<?xml version="1.0" encoding="utf-8"?>
<!-- Generator: Adobe Illustrator 25.3.1, SVG Export Plug-In . SVG Version: 6.00 Build 0)  -->
<svg version="1.1" id="Layer_1" xmlns="http://www.w3.org/2000/svg" xmlns:xlink="http://www.w3.org/1999/xlink" x="0px" y="0px"
	 viewBox="0 0 24 24" style="enable-background:new 0 0 24 24;" xml:space="preserve">
<style type="text/css">
	.st0{fill:#FF8900;}
</style>
<g>
	<path class="st0" d="M9.1,16.6l4.6-4.6L9.1,7.4C9,7.2,9,6.8,9.2,6.6c0.2-0.2,0.5-0.2,0.7,0l5,5c0.2,0.2,0.2,0.5,0,0.7c0,0,0,0,0,0
		l-5,5c-0.2,0.2-0.5,0.2-0.7,0C9,17.1,9,16.8,9.1,16.6L9.1,16.6z"/>
	<path class="st0" d="M9.5,18c-0.3,0-0.5-0.1-0.7-0.3c-0.4-0.4-0.4-1,0-1.4l4.3-4.3L8.8,7.7c-0.4-0.4-0.4-1,0-1.4
		c0.4-0.4,1-0.4,1.4,0l5,5c0.4,0.4,0.4,1,0,1.4l-5,5C10,17.9,9.8,18,9.5,18z"/>
</g>
</svg>
