<svg xmlns="http://www.w3.org/2000/svg" viewBox="0 0 40.01 40.01"><defs><style>.cls-1{fill:#fff;}</style></defs><g id="Layer_2" data-name="Layer 2"><g id="Layer_1-2" data-name="Layer 1"><path class="cls-1" d="M35,40H5a5,5,0,0,1-5-5V5A5,5,0,0,1,5,0H15.88a2,2,0,0,1,0,4H5A1,1,0,0,0,4,5V35a1,1,0,0,0,1,1H35a1,1,0,0,0,1-1V26.08a2,2,0,0,1,4,0V35A5,5,0,0,1,35,40Z"/><path class="cls-1" d="M38,18.45a2,2,0,0,1-2-2V4H24.88a2,2,0,0,1,0-4H38a2,2,0,0,1,2,2V16.45A2,2,0,0,1,38,18.45Z"/><path class="cls-1" d="M20,22a2,2,0,0,1-2-2,2,2,0,0,1,.59-1.42l18-18a2,2,0,0,1,2.83,0,2,2,0,0,1,0,2.83l-18,18A2,2,0,0,1,20,22Z"/></g></g></svg>