<svg xmlns="http://www.w3.org/2000/svg" viewBox="0 0 32.29 40"><defs><style>.cls-1{fill:#2c3149;}</style></defs><g id="Layer_2" data-name="Layer 2"><g id="Layer_1-2" data-name="Layer 1"><path class="cls-1" d="M26.29,40H6a6,6,0,0,1-6-6V6A6,6,0,0,1,6,0H19.65A2,2,0,0,1,21,.56L31.67,10.78a2,2,0,0,1,.62,1.44V34A6,6,0,0,1,26.29,40ZM6,4A2,2,0,0,0,4,6V34a2,2,0,0,0,2,2H26.29a2,2,0,0,0,2-2V13.07L18.84,4Z"/><path class="cls-1" d="M30.29,15.74H21.4a5,5,0,0,1-5-5V2.21a2,2,0,0,1,4,0v8.53a1,1,0,0,0,1,1h8.89a2,2,0,0,1,0,4Z"/></g></g></svg>