<svg xmlns="http://www.w3.org/2000/svg" xmlns:xlink="http://www.w3.org/1999/xlink" width="255.238" height="260.521" viewBox="0 0 255.238 260.521"><defs><clipPath id="a"><rect width="192.213" height="206.872" transform="translate(100.31 81.369)" fill="none"/></clipPath></defs><g transform="translate(-919 1037)"><g transform="translate(848.979 -1064.72)"><path d="M126.923,146.446a30.852,30.852,0,0,0,11.3-23.646c0-17.549-15.16-31.776-33.86-31.776S70.5,105.251,70.5,122.8s15.16,31.777,33.861,31.777a35.221,35.221,0,0,0,19.323-5.7l8.3,6.2Z" fill="#fff"/><path d="M131.985,155.551a.479.479,0,0,1-.287-.1l-8.035-6a35.679,35.679,0,0,1-19.3,5.6c-18.935,0-34.339-14.471-34.339-32.257s15.4-32.255,34.339-32.255S138.7,105.015,138.7,122.8a31.426,31.426,0,0,1-11.159,23.75l4.858,8.279a.48.48,0,0,1-.413.722ZM104.36,91.5c-18.407,0-33.381,14.04-33.381,31.3s14.974,31.3,33.381,31.3a34.721,34.721,0,0,0,19.06-5.623.475.475,0,0,1,.549.017l6.4,4.779-3.863-6.582a.479.479,0,0,1,.1-.609,30.508,30.508,0,0,0,11.126-23.28C137.741,105.543,122.767,91.5,104.36,91.5Z" fill="#191919"/><rect width="32.774" height="17.541" transform="translate(83.982 106.493)" fill="#fff"/><path d="M83.982,124.394a.36.36,0,0,1-.359-.36V106.493a.359.359,0,0,1,.359-.359h32.774a.359.359,0,0,1,.359.359v17.541a.359.359,0,0,1-.359.359Zm32.774-.36h0ZM84.341,106.853v16.822H116.4V106.853Z" fill="#191919"/><rect width="29.487" height="14.366" transform="translate(85.646 108.122)" fill="#69aade"/><path d="M85.646,122.848a.36.36,0,0,1-.36-.359V108.122a.36.36,0,0,1,.36-.359h29.486a.36.36,0,0,1,.36.359v14.366a.36.36,0,0,1-.36.36ZM86,108.481v13.648h28.768V108.481Z" fill="#191919"/><path d="M104.889,115.432a4.608,4.608,0,1,1-4.579-5.124A4.874,4.874,0,0,1,104.889,115.432Z" fill="#fff"/><path d="M100.31,120.916a5.514,5.514,0,1,1,4.939-5.484A5.238,5.238,0,0,1,100.31,120.916Zm0-10.248a4.8,4.8,0,1,0,4.22,4.764A4.522,4.522,0,0,0,100.31,110.668Z" fill="#191919"/><rect width="32.774" height="17.541" transform="translate(89.981 128.189) rotate(-23.228)" fill="#fff"/><path d="M96.9,144.667a.357.357,0,0,1-.33-.217l-6.918-16.119a.359.359,0,0,1,0-.275.354.354,0,0,1,.192-.2l30.117-12.925a.359.359,0,0,1,.472.188l6.918,16.119a.359.359,0,0,1,0,.275.355.355,0,0,1-.192.2L97.041,144.638A.347.347,0,0,1,96.9,144.667Zm-6.446-16.29,6.635,15.459,29.457-12.642-6.635-15.459Z" fill="#191919"/><rect width="29.487" height="14.366" transform="translate(92.153 129.03) rotate(-23.228)" fill="#69aade"/><path d="M97.819,142.591a.339.339,0,0,1-.133-.026.355.355,0,0,1-.2-.191l-5.666-13.2a.359.359,0,0,1,0-.275.355.355,0,0,1,.192-.2l27.1-11.629a.359.359,0,0,1,.472.188l5.666,13.2a.36.36,0,0,1-.189.472l-27.1,11.629A.342.342,0,0,1,97.819,142.591Zm-5.194-13.373,5.382,12.542,26.437-11.346-5.383-12.541Z" fill="#191919"/><path d="M112.72,128.158a4.609,4.609,0,1,1-6.23-2.9A4.875,4.875,0,0,1,112.72,128.158Z" fill="#fff"/><path d="M108.9,135.367a5.507,5.507,0,0,1-4.924-3.455,5.767,5.767,0,0,1-.207-4.115,4.676,4.676,0,0,1,2.583-2.872,5.239,5.239,0,0,1,6.7,3.092,5.77,5.77,0,0,1,.207,4.114A4.679,4.679,0,0,1,110.674,135,4.483,4.483,0,0,1,108.9,135.367Zm-.77-10.087a3.787,3.787,0,0,0-1.495.305,3.966,3.966,0,0,0-2.185,2.441,5.055,5.055,0,0,0,.186,3.6,4.523,4.523,0,0,0,5.758,2.714,3.972,3.972,0,0,0,2.185-2.441,5.058,5.058,0,0,0-.186-3.6A4.791,4.791,0,0,0,108.127,125.28Z" fill="#191919"/><path d="M272.691,59.672c0-17.382-14.969-31.473-33.433-31.473S205.825,42.29,205.825,59.672c0,16.45,13.412,29.933,30.5,31.333l2.932,9.177L242.189,91C259.279,89.605,272.691,76.122,272.691,59.672Z" fill="#fff"/><path d="M239.258,100.661a.479.479,0,0,1-.456-.333l-2.835-8.873c-17.2-1.566-30.622-15.468-30.622-31.783,0-17.618,15.214-31.952,33.913-31.952s33.913,14.334,33.913,31.952c0,16.315-13.425,30.217-30.622,31.783l-2.835,8.873A.48.48,0,0,1,239.258,100.661Zm0-71.983c-18.171,0-32.954,13.9-32.954,30.994,0,15.921,13.2,29.474,30.061,30.856a.478.478,0,0,1,.417.331l2.476,7.749,2.475-7.749a.48.48,0,0,1,.417-.331c16.858-1.382,30.062-14.935,30.062-30.856C272.212,42.582,257.429,28.678,239.258,28.678Z" fill="#191919"/><circle cx="10.723" cy="10.723" r="10.723" transform="translate(228.204 34.946)" fill="#69aade"/><path d="M238.927,56.75a11.082,11.082,0,1,1,11.082-11.082A11.094,11.094,0,0,1,238.927,56.75Zm0-21.445A10.364,10.364,0,1,0,249.29,45.668,10.375,10.375,0,0,0,238.927,35.305Z" fill="#191919"/><path d="M238.927,54.682a9.014,9.014,0,1,1,9.012-9.014A9.025,9.025,0,0,1,238.927,54.682Zm0-17.308a8.295,8.295,0,1,0,8.294,8.294A8.3,8.3,0,0,0,238.927,37.374Z" fill="#191919"/><path d="M242.1,47.156a.747.747,0,1,0,0-1.495h-2.435c0-.289-.006-.6-.01-.922l2.994-2.994a.747.747,0,1,0-1.057-1.057l-2.625,2.624-2.7-2.7a.748.748,0,0,0-1.057,1.058l2.951,2.951c0,.329.008.679.011,1.044h-2.4a.747.747,0,1,0,0,1.495h2.409c0,.366,0,.727.006,1.073H235.77a.747.747,0,1,0,0,1.495h2.416c0,.547-.007.951-.017,1.1a.748.748,0,0,0,1.259.683c.177-.176.25-.26.262-1.782H242.1a.747.747,0,1,0,0-1.495h-2.41c0-.32,0-.683-.009-1.073Z" fill="#fff"/><path d="M238.9,52.082a1.105,1.105,0,0,1-1.084-1.331c0-.075.006-.32.008-.668H235.77a1.107,1.107,0,1,1,0-2.214h2.053l0-.353H235.77a1.108,1.108,0,1,1,0-2.215H237.8l-.005-.533-2.848-2.848a1.106,1.106,0,0,1,0-1.566,1.11,1.11,0,0,1,1.566,0l2.45,2.45,2.37-2.37a1.131,1.131,0,0,1,1.565,0,1.107,1.107,0,0,1,0,1.565l-2.886,2.888,0,.414H242.1a1.108,1.108,0,0,1,0,2.215h-2.057l0,.353H242.1a1.107,1.107,0,0,1,0,2.214h-2.054c-.021,1.216-.1,1.412-.364,1.678A1.093,1.093,0,0,1,238.9,52.082Zm-3.131-3.494a.389.389,0,1,0,0,.777h2.417a.36.36,0,0,1,.359.361c0,.559-.008.972-.019,1.123a.427.427,0,0,0,.1.4.4.4,0,0,0,.548,0c.082-.082.145-.145.157-1.531a.359.359,0,0,1,.359-.356H242.1a.389.389,0,0,0,0-.777h-2.41a.359.359,0,0,1-.359-.356l-.01-1.072a.36.36,0,0,1,.36-.363H242.1a.389.389,0,0,0,0-.777h-2.435a.359.359,0,0,1-.359-.356l-.01-.921a.36.36,0,0,1,.1-.258l3-2.994a.389.389,0,0,0-.55-.55l-2.624,2.625a.369.369,0,0,1-.508,0l-2.7-2.7a.391.391,0,0,0-.55,0,.389.389,0,0,0,0,.55l2.951,2.951a.358.358,0,0,1,.106.25l.01,1.045a.359.359,0,0,1-.359.362h-2.4a.389.389,0,1,0,0,.777h2.409a.359.359,0,0,1,.359.356l.006,1.075a.36.36,0,0,1-.359.36Z" fill="#191919"/><circle cx="10.634" cy="10.634" r="10.634" transform="translate(215.963 56.866)" fill="#69aade"/><path d="M226.6,78.494A10.994,10.994,0,1,1,237.591,67.5,11.007,11.007,0,0,1,226.6,78.494Zm0-21.268A10.274,10.274,0,1,0,236.872,67.5,10.287,10.287,0,0,0,226.6,57.226Z" fill="#191919"/><path d="M226.6,76.442a8.942,8.942,0,1,1,8.941-8.942A8.952,8.952,0,0,1,226.6,76.442Zm0-17.164A8.222,8.222,0,1,0,234.82,67.5,8.231,8.231,0,0,0,226.6,59.278Z" fill="#191919"/><path d="M227.058,72.843v.62a.208.208,0,0,1-.207.208h-.763a.208.208,0,0,1-.208-.208v-.624a.208.208,0,0,0-.185-.206,3.946,3.946,0,0,1-2.385-1.051,3.639,3.639,0,0,1-.907-2.568.208.208,0,0,1,.207-.216h1.3a.206.206,0,0,1,.207.2,2.754,2.754,0,0,0,.479,1.675,1.457,1.457,0,0,0,1.063.526.206.206,0,0,0,.222-.207V67.954a.209.209,0,0,0-.171-.2,4,4,0,0,1-2.239-1.094,2.749,2.749,0,0,1-.8-1.928,2.7,2.7,0,0,1,.8-1.981A3.715,3.715,0,0,1,225.7,61.8a.208.208,0,0,0,.184-.206v-.625a.208.208,0,0,1,.208-.207h.763a.207.207,0,0,1,.207.207v.617a.207.207,0,0,0,.187.207,3.576,3.576,0,0,1,2.276.843,3.458,3.458,0,0,1,.96,2.406.209.209,0,0,1-.208.218h-1.3a.207.207,0,0,1-.207-.2,1.994,1.994,0,0,0-.425-1.354,2.061,2.061,0,0,0-1.036-.545.206.206,0,0,0-.249.2v2.9a.208.208,0,0,0,.173.2,4.9,4.9,0,0,1,2.612,1.1,2.849,2.849,0,0,1,.856,2.089,2.784,2.784,0,0,1-.856,2.035,4.219,4.219,0,0,1-2.6.946A.208.208,0,0,0,227.058,72.843Zm-1.178-9.485a.207.207,0,0,0-.238-.206q-1.422.227-1.422,1.416a1.659,1.659,0,0,0,1.4,1.645.207.207,0,0,0,.263-.2Zm1.178,7.628a.208.208,0,0,0,.226.207,2.2,2.2,0,0,0,1.381-.467,1.525,1.525,0,0,0,.428-1.125,1.456,1.456,0,0,0-.428-1.071,2.367,2.367,0,0,0-1.37-.561.208.208,0,0,0-.237.206Z" fill="#fff"/><path d="M226.851,74.03h-.763a.567.567,0,0,1-.567-.567v-.491a4.245,4.245,0,0,1-2.465-1.136,4,4,0,0,1-1.013-2.811.581.581,0,0,1,.162-.416.563.563,0,0,1,.4-.171h1.3a.565.565,0,0,1,.567.546,2.438,2.438,0,0,0,.4,1.46,1.036,1.036,0,0,0,.648.372V68.079a4.284,4.284,0,0,1-2.312-1.177,3.1,3.1,0,0,1-.9-2.174,3.047,3.047,0,0,1,.909-2.235,3.982,3.982,0,0,1,2.3-1.027v-.493a.568.568,0,0,1,.567-.567h.763a.568.568,0,0,1,.567.567v.48a3.414,3.414,0,0,1,3.422,3.578.579.579,0,0,1-.158.418.569.569,0,0,1-.409.174h-1.3a.565.565,0,0,1-.566-.545,1.719,1.719,0,0,0-.32-1.113,1.632,1.632,0,0,0-.671-.4V66.14a5.023,5.023,0,0,1,2.679,1.173,3.2,3.2,0,0,1,.962,2.342,3.139,3.139,0,0,1-.962,2.288,4.376,4.376,0,0,1-2.679,1.036v.484A.568.568,0,0,1,226.851,74.03Zm-.612-.718h.46v-.469a.566.566,0,0,1,.512-.564,3.92,3.92,0,0,0,2.378-.843,2.416,2.416,0,0,0,.751-1.781,2.481,2.481,0,0,0-.751-1.835,4.581,4.581,0,0,0-2.42-1,.566.566,0,0,1-.47-.558v-2.9a.567.567,0,0,1,.214-.445.561.561,0,0,1,.473-.11,2.429,2.429,0,0,1,1.211.642,2.187,2.187,0,0,1,.523,1.447h.993a3.025,3.025,0,0,0-.845-2.01,3.27,3.27,0,0,0-2.054-.739.568.568,0,0,1-.515-.565v-.465h-.46V61.6a.571.571,0,0,1-.5.563,3.384,3.384,0,0,0-2.018.84,2.327,2.327,0,0,0-.7,1.727,2.379,2.379,0,0,0,.706,1.682,3.682,3.682,0,0,0,2.044.987.569.569,0,0,1,.463.557v3.037a.57.57,0,0,1-.185.42.586.586,0,0,1-.428.145,1.811,1.811,0,0,1-1.313-.66,2.938,2.938,0,0,1-.549-1.739h-1a3.227,3.227,0,0,0,.795,2.172,3.62,3.62,0,0,0,2.177.947.57.57,0,0,1,.5.563Zm1.035-11.873h0Zm-.006,10.114a.567.567,0,0,1-.569-.567V68.175a.566.566,0,0,1,.2-.429.546.546,0,0,1,.451-.132,2.67,2.67,0,0,1,1.572.662,1.814,1.814,0,0,1,.533,1.325,1.874,1.874,0,0,1-.533,1.378,2.5,2.5,0,0,1-1.606.572A.339.339,0,0,1,227.268,71.553Zm.15-3.2v2.466a1.652,1.652,0,0,0,.993-.347,1.168,1.168,0,0,0,.322-.871,1.1,1.1,0,0,0-.323-.817A1.86,1.86,0,0,0,227.418,68.353Zm-.173-.028h0Zm-1.569-1.744a.551.551,0,0,1-.161-.024,2,2,0,0,1-1.655-1.989c0-.683.3-1.544,1.725-1.771a.567.567,0,0,1,.654.56v2.656a.574.574,0,0,1-.229.456A.562.562,0,0,1,225.676,66.581Zm-.155-3.04c-.831.185-.942.642-.942,1.027a1.226,1.226,0,0,0,.942,1.234Z" fill="#191919"/><circle cx="10.634" cy="10.634" r="10.634" transform="translate(240.915 56.584)" fill="#69aade"/><path d="M251.549,78.212a10.993,10.993,0,1,1,10.993-10.994A11.006,11.006,0,0,1,251.549,78.212Zm0-21.268a10.274,10.274,0,1,0,10.274,10.274A10.287,10.287,0,0,0,251.549,56.944Z" fill="#191919"/><path d="M251.549,76.16a8.942,8.942,0,1,1,8.941-8.942A8.952,8.952,0,0,1,251.549,76.16Zm0-17.164a8.223,8.223,0,1,0,8.222,8.222A8.232,8.232,0,0,0,251.549,59Z" fill="#191919"/><path d="M252.284,68.414H250.27v3.073a1.434,1.434,0,0,1-.311,1,1.1,1.1,0,0,1-1.585,0,1.432,1.432,0,0,1-.3-.988V63.134A1.368,1.368,0,0,1,248.4,62.1a1.513,1.513,0,0,1,1.059-.311h2.821a7.411,7.411,0,0,1,1.925.192,2.887,2.887,0,0,1,1.152.615,2.776,2.776,0,0,1,.736,1.051,3.7,3.7,0,0,1,.252,1.4,3.093,3.093,0,0,1-1.022,2.514A4.646,4.646,0,0,1,252.284,68.414Zm-.533-4.976H250.27v3.317h1.481a4.408,4.408,0,0,0,1.3-.163,1.507,1.507,0,0,0,.8-.533,1.589,1.589,0,0,0,.274-.97,1.642,1.642,0,0,0-.422-1.17A2.812,2.812,0,0,0,251.751,63.438Z" fill="#fff"/><path d="M249.174,73.187a1.373,1.373,0,0,1-1.067-.457,1.783,1.783,0,0,1-.4-1.229V63.134a1.708,1.708,0,0,1,.447-1.3,1.837,1.837,0,0,1,1.3-.408h2.821a7.711,7.711,0,0,1,2.024.206,3.253,3.253,0,0,1,1.291.692,3.15,3.15,0,0,1,.832,1.186,4.108,4.108,0,0,1,.277,1.534,3.445,3.445,0,0,1-1.15,2.789,5,5,0,0,1-3.274.939h-1.655v2.714a1.787,1.787,0,0,1-.4,1.242A1.389,1.389,0,0,1,249.174,73.187Zm.289-11.041a1.224,1.224,0,0,0-.815.214,1.128,1.128,0,0,0-.218.774V71.5a1.108,1.108,0,0,0,.211.749.724.724,0,0,0,1.052-.006,1.106,1.106,0,0,0,.217-.757V68.414a.36.36,0,0,1,.36-.359h2.014a4.334,4.334,0,0,0,2.813-.772,2.732,2.732,0,0,0,.892-2.238,3.38,3.38,0,0,0-.224-1.265,2.435,2.435,0,0,0-.643-.917,2.51,2.51,0,0,0-1.01-.538,7.112,7.112,0,0,0-1.828-.179Zm2.288,4.969H250.27a.36.36,0,0,1-.36-.36V63.438a.36.36,0,0,1,.36-.359h1.481a3.079,3.079,0,0,1,2.2.588,2,2,0,0,1,.525,1.422,1.954,1.954,0,0,1-.343,1.184,1.878,1.878,0,0,1-.978.662A4.714,4.714,0,0,1,251.751,67.115Zm-1.122-.719h1.122a4.1,4.1,0,0,0,1.192-.146,1.162,1.162,0,0,0,.615-.4,1.26,1.26,0,0,0,.2-.757,1.29,1.29,0,0,0-.325-.924c-.162-.164-.592-.368-1.685-.368h-1.122Z" fill="#191919"/><path d="M268.355,146.446a30.851,30.851,0,0,1-11.3-23.646c0-17.549,15.159-31.776,33.86-31.776s33.86,14.227,33.86,31.776-15.16,31.777-33.86,31.777a35.221,35.221,0,0,1-19.323-5.7l-8.3,6.2Z" fill="#fff"/><path d="M263.294,155.551a.473.473,0,0,1-.319-.123.479.479,0,0,1-.094-.6l4.858-8.279a31.43,31.43,0,0,1-11.16-23.75c0-17.785,15.4-32.255,34.34-32.255s34.34,14.47,34.34,32.255-15.4,32.257-34.34,32.257a35.677,35.677,0,0,1-19.3-5.6l-8.036,6A.474.474,0,0,1,263.294,155.551Zm8.3-7.155a.47.47,0,0,1,.261.079,34.722,34.722,0,0,0,19.061,5.623c18.406,0,33.381-14.04,33.381-31.3s-14.975-31.3-33.381-31.3-33.381,14.04-33.381,31.3a30.508,30.508,0,0,0,11.126,23.28.479.479,0,0,1,.105.609l-3.863,6.582,6.4-4.779A.471.471,0,0,1,271.6,148.4Z" fill="#191919"/><rect width="30.122" height="36.023" transform="translate(277.437 104.249)" fill="#69aade"/><path d="M307.559,140.631H277.437a.36.36,0,0,1-.36-.359V104.25a.36.36,0,0,1,.36-.359h30.12a.363.363,0,0,1,.361.361v36.021A.359.359,0,0,1,307.559,140.631Zm-29.763-.718h29.4v-35.3H277.8Z" fill="#191919"/><path d="M304.568,113.254H280.59V106.8h23.978Z" fill="#fff"/><path d="M280.591,113.614a.355.355,0,0,1-.254-.106.36.36,0,0,1-.106-.254V106.8a.361.361,0,0,1,.36-.36h23.977a.36.36,0,0,1,.36.36v6.452a.36.36,0,0,1-.36.359Zm.359-.719h23.259v-5.734H280.95Z" fill="#191919"/><rect width="4.083" height="4.084" transform="translate(280.741 115.348)" fill="#fff"/><path d="M284.824,119.792h-4.083a.36.36,0,0,1-.359-.36v-4.081a.364.364,0,0,1,.362-.362h4.08a.36.36,0,0,1,.36.359v4.084A.361.361,0,0,1,284.824,119.792Zm-3.723-.719h3.364v-3.365H281.1Z" fill="#191919"/><rect width="4.083" height="4.084" transform="translate(287.313 115.348)" fill="#fff"/><path d="M291.4,119.792h-4.083a.36.36,0,0,1-.359-.36v-4.081a.364.364,0,0,1,.362-.362h4.08a.359.359,0,0,1,.359.359v4.084A.36.36,0,0,1,291.4,119.792Zm-3.723-.719h3.363v-3.365h-3.363Z" fill="#191919"/><rect width="4.083" height="4.084" transform="translate(293.847 115.348)" fill="#fff"/><path d="M297.93,119.792h-4.083a.36.36,0,0,1-.36-.36v-4.081a.366.366,0,0,1,.364-.362h4.079a.359.359,0,0,1,.359.359v4.084A.36.36,0,0,1,297.93,119.792Zm-3.724-.719h3.364v-3.365h-3.364Z" fill="#191919"/><rect width="4.083" height="4.084" transform="translate(280.741 121.339)" fill="#fff"/><path d="M284.824,125.783h-4.083a.359.359,0,0,1-.359-.359v-4.081a.365.365,0,0,1,.362-.363h4.08a.36.36,0,0,1,.36.359v4.085A.36.36,0,0,1,284.824,125.783Zm-3.723-.719h3.364V121.7H281.1Z" fill="#191919"/><rect width="4.083" height="4.084" transform="translate(287.313 121.339)" fill="#fff"/><path d="M291.4,125.783h-4.083a.359.359,0,0,1-.359-.359v-4.081a.365.365,0,0,1,.362-.363h4.08a.359.359,0,0,1,.359.359v4.085A.359.359,0,0,1,291.4,125.783Zm-3.723-.719h3.363V121.7h-3.363Z" fill="#191919"/><rect width="4.083" height="4.084" transform="translate(293.847 121.339)" fill="#fff"/><path d="M297.93,125.783h-4.083a.36.36,0,0,1-.36-.359v-4.081a.366.366,0,0,1,.364-.363h4.079a.359.359,0,0,1,.359.359v4.085A.359.359,0,0,1,297.93,125.783Zm-3.724-.719h3.364V121.7h-3.364Z" fill="#191919"/><rect width="4.083" height="4.084" transform="translate(280.741 127.625)" fill="#fff"/><path d="M284.824,132.068h-4.083a.359.359,0,0,1-.359-.359v-4.081a.365.365,0,0,1,.362-.363h4.08a.36.36,0,0,1,.36.36v4.084A.36.36,0,0,1,284.824,132.068Zm-3.723-.718h3.364v-3.366H281.1Z" fill="#191919"/><rect width="4.083" height="4.084" transform="translate(287.313 127.625)" fill="#fff"/><path d="M291.4,132.068h-4.083a.359.359,0,0,1-.359-.359v-4.084a.36.36,0,0,1,.359-.36h4.08a.365.365,0,0,1,.362.363v4.081A.359.359,0,0,1,291.4,132.068Zm-3.723-.718h3.363v-3.366h-3.363Z" fill="#191919"/><rect width="4.083" height="4.084" transform="translate(293.847 127.625)" fill="#fff"/><path d="M297.93,132.068h-4.083a.36.36,0,0,1-.36-.359v-4.081a.366.366,0,0,1,.364-.363h4.079a.36.36,0,0,1,.359.36v4.084A.359.359,0,0,1,297.93,132.068Zm-3.724-.718h3.364v-3.366h-3.364Z" fill="#191919"/><rect width="4.083" height="4.084" transform="translate(280.741 133.69)" fill="#fff"/><path d="M284.824,138.134h-4.083a.36.36,0,0,1-.359-.36v-4.081a.364.364,0,0,1,.362-.362h4.08a.36.36,0,0,1,.36.359v4.084A.36.36,0,0,1,284.824,138.134Zm-3.723-.719h3.364v-3.366H281.1Z" fill="#191919"/><rect width="4.083" height="4.084" transform="translate(287.313 133.69)" fill="#fff"/><path d="M291.4,138.134h-4.083a.36.36,0,0,1-.359-.36V133.69a.359.359,0,0,1,.359-.359h4.08a.364.364,0,0,1,.362.362v4.081A.36.36,0,0,1,291.4,138.134Zm-3.723-.719h3.363v-3.366h-3.363Z" fill="#191919"/><rect width="4.083" height="4.084" transform="translate(293.847 133.69)" fill="#fff"/><path d="M297.93,138.134h-4.083a.36.36,0,0,1-.36-.36v-4.081a.366.366,0,0,1,.364-.362h4.079a.359.359,0,0,1,.359.359v4.084A.36.36,0,0,1,297.93,138.134Zm-3.724-.719h3.364v-3.366h-3.364Z" fill="#191919"/><rect width="4.083" height="4.084" transform="translate(300.485 115.348)" fill="#fff"/><path d="M304.568,119.792h-4.083a.36.36,0,0,1-.359-.36v-4.081a.364.364,0,0,1,.362-.362h4.08a.36.36,0,0,1,.36.359v4.084A.36.36,0,0,1,304.568,119.792Zm-3.723-.719h3.364v-3.365h-3.364Z" fill="#191919"/><rect width="4.083" height="4.084" transform="translate(300.485 121.339)" fill="#fff"/><path d="M304.568,125.783h-4.083a.359.359,0,0,1-.359-.359v-4.081a.365.365,0,0,1,.362-.363h4.08a.36.36,0,0,1,.36.359v4.085A.36.36,0,0,1,304.568,125.783Zm-3.723-.719h3.364V121.7h-3.364Z" fill="#191919"/><rect width="4.083" height="4.084" transform="translate(300.485 127.625)" fill="#fff"/><path d="M304.568,132.068h-4.083a.359.359,0,0,1-.359-.359v-4.081a.365.365,0,0,1,.362-.363h4.08a.36.36,0,0,1,.36.36v4.084A.36.36,0,0,1,304.568,132.068Zm-3.723-.718h3.364v-3.366h-3.364Z" fill="#191919"/><rect width="4.083" height="4.084" transform="translate(300.485 133.69)" fill="#fff"/><path d="M304.568,138.134h-4.083a.36.36,0,0,1-.359-.36v-4.081a.364.364,0,0,1,.362-.362h4.08a.36.36,0,0,1,.36.359v4.084A.36.36,0,0,1,304.568,138.134Zm-3.723-.719h3.364v-3.366h-3.364Z" fill="#191919"/><path d="M302.128,112.18a1.359,1.359,0,0,1-1.4-1.313v-1.675a1.4,1.4,0,0,1,2.8,0v1.675A1.36,1.36,0,0,1,302.128,112.18Zm0-3.585a.645.645,0,0,0-.682.6v1.675a.688.688,0,0,0,1.363,0v-1.675A.644.644,0,0,0,302.128,108.6Z" fill="#191919"/><path d="M192.67,59.672C192.67,42.29,177.7,28.2,159.237,28.2S125.8,42.29,125.8,59.672c0,16.45,13.413,29.933,30.5,31.333l2.932,9.177L162.168,91C179.257,89.605,192.67,76.122,192.67,59.672Z" fill="#fff"/><path d="M159.237,100.661a.48.48,0,0,1-.457-.333l-2.834-8.873c-17.2-1.566-30.621-15.468-30.621-31.783,0-17.618,15.213-31.952,33.912-31.952s33.912,14.334,33.912,31.952c0,16.315-13.424,30.217-30.621,31.783l-2.835,8.873A.479.479,0,0,1,159.237,100.661Zm0-71.983c-18.171,0-32.954,13.9-32.954,30.994,0,15.921,13.2,29.474,30.061,30.856a.48.48,0,0,1,.418.331l2.475,7.749,2.475-7.749a.48.48,0,0,1,.417-.331c16.857-1.382,30.062-14.935,30.062-30.856C192.191,42.582,177.408,28.678,159.237,28.678Z" fill="#191919"/><rect width="40.558" height="23.495" rx="0.258" transform="translate(138.958 49.771)" fill="#fff"/><path d="M179.258,73.625H139.216a.618.618,0,0,1-.618-.617V50.029a.618.618,0,0,1,.618-.617h40.042a.618.618,0,0,1,.617.617V73.008A.618.618,0,0,1,179.258,73.625Zm-39.941-.719h39.839V50.13H139.317Z" fill="#191919"/><rect width="40.558" height="23.495" rx="0.258" transform="translate(138.958 47.738)" fill="#69aade"/><path d="M179.258,71.592H139.216a.618.618,0,0,1-.618-.617V48a.618.618,0,0,1,.618-.618h40.042a.618.618,0,0,1,.617.618V70.975A.618.618,0,0,1,179.258,71.592Zm-39.941-.719h39.839V48.1H139.317Z" fill="#191919"/><path d="M157.925,64.909H143.974a.359.359,0,1,1,0-.719h13.951a.359.359,0,1,1,0,.719Z" fill="#191919"/><path d="M157.925,67.934H143.974a.36.36,0,1,1,0-.719h13.951a.36.36,0,1,1,0,.719Z" fill="#191919"/><rect width="40.558" height="7.453" transform="translate(138.958 53.544)" fill="#fff"/><path d="M179.875,61.357H138.6V53.185h41.276Zm-40.558-.719h39.839V53.9H139.317Z" fill="#191919"/><rect width="7.34" height="2.248" transform="translate(168.522 49.358)" fill="#fff"/><path d="M175.862,51.965h-7.34a.359.359,0,0,1-.359-.359V49.358a.359.359,0,0,1,.359-.359h7.34a.359.359,0,0,1,.359.359v2.248A.359.359,0,0,1,175.862,51.965Zm-6.981-.718H175.5v-1.53h-6.621Z" fill="#191919"/><g clip-path="url(#a)"><path d="M164.026,179.309c-7.878,1.345-13.549,9.765-15.437,30.02-2.1,22.536-4.343,36.026,7.1,38.627,1.836.418,8.61.429,10.494-8.327S164.026,179.309,164.026,179.309Z" fill="#69aade"/><path d="M157.1,248.76a7.173,7.173,0,0,1-1.558-.155c-11.159-2.537-10-14.552-8.077-34.459q.228-2.364.466-4.878c1.777-19.068,7.007-29.082,15.988-30.617a.68.68,0,0,1,.522.132.664.664,0,0,1,.254.474c.165,2.109,4.022,51.763,2.14,60.513-.753,3.5-2.334,6.039-4.7,7.546A9.441,9.441,0,0,1,157.1,248.76Zm6.324-68.65c-7.865,1.844-12.5,11.437-14.166,29.281q-.234,2.517-.466,4.883c-1.852,19.179-2.97,30.755,7.046,33.033a8.005,8.005,0,0,0,5.581-1.115c2.053-1.308,3.438-3.564,4.113-6.7C167.246,231.5,163.9,186.5,163.419,180.11Z" fill="#191919"/><path d="M144.951,194.882c6.42-.9,10.791-.623,11.229,1.507.672,3.269-4.616,6.809-11.037,7.7s-10.888,1.592-11.489-1.586C133.412,201.231,138.53,195.778,144.951,194.882Z" fill="#69aade"/><path d="M137.931,205.509c-2.723,0-4.515-.677-4.932-2.878a2.654,2.654,0,0,1,.7-1.884,18.276,18.276,0,0,1,11.159-6.524h0c7.561-1.054,11.477-.39,11.975,2.033a4.129,4.129,0,0,1-.817,3.231c-1.79,2.536-6.022,4.6-10.781,5.266l-.413.058A54.4,54.4,0,0,1,137.931,205.509Zm12.856-10.438a42.337,42.337,0,0,0-5.744.472h0c-6.167.859-10.7,5.973-10.73,6.872.445,2.337,4.027,1.955,10.325,1.075l.414-.057c4.344-.606,8.312-2.5,9.876-4.714a2.809,2.809,0,0,0,.6-2.2C155.442,196.113,154.825,195.071,150.787,195.071Zm-5.836-.188h0Z" fill="#191919"/><path d="M152.835,193.96c.422,1.9-2.338,4.984-7.531,6.138s-7.355-.039-8.127-1.213c-.819-1.246,1.686-3.518,6.688-5.33C149.527,191.5,152.413,192.061,152.835,193.96Z" fill="#fff"/><path d="M141.545,201.231c-3.064,0-4.376-1.145-4.925-1.98a1.658,1.658,0,0,1-.161-1.479c.531-1.6,3.214-3.407,7.179-4.844s6.91-1.719,8.537-.826a2.545,2.545,0,0,1,1.31,1.714c.273,1.228-.406,2.682-1.865,3.989a13.872,13.872,0,0,1-6.171,2.943A18.073,18.073,0,0,1,141.545,201.231Zm8.2-8.3a17.214,17.214,0,0,0-5.652,1.255c-3.954,1.432-6.048,3.047-6.368,4.01-.068.207-.016.287.01.327.445.677,2.058,2.122,7.426.928a12.533,12.533,0,0,0,5.57-2.634c1.058-.949,1.615-1.986,1.455-2.708h0a1.222,1.222,0,0,0-.652-.834A3.717,3.717,0,0,0,149.744,192.927Z" fill="#191919"/><path d="M146.291,181.795s-6.715-2.032-10.4-7.1c0,0-5.546-3.471-4.532,1.566,0,0,4.533,4.437,5.616,5.269l-.676.173-8.374-2.635s-8.771-5.353-11.74-4.363c0,0-.892.156-.466,1.109,0,0-2.523.349-1.907,2.292l1.861.608s4.055,2.426,5.305,4.008l2.763,4.784s5.424,3.892,8.388,4.906l7.951,3.317.214,3.574,9.555-.514,2.246-1.59S150.822,185.564,146.291,181.795Z" fill="#fff"/><path d="M129.876,186.228c.079-.665-1.755-2.444-1.755-2.444.858-1.265.259-3.789.259-3.789-.154-2.369-2.408-1.459-2.408-1.459.38,1.226-1.067,5.955-1.067,5.955l1.455,2.907,4.7-.658Z" fill="#fff"/><path d="M126.36,187.814a.666.666,0,0,1-.6-.369l-1.455-2.907a.659.659,0,0,1-.041-.493c.666-2.18,1.264-4.927,1.066-5.563a.668.668,0,0,1,.447-.836,3.021,3.021,0,0,1,2.4.275,2.164,2.164,0,0,1,.859,1.73,7.113,7.113,0,0,1-.1,3.756,6.763,6.763,0,0,1,1.52,2.1l.863.374a.666.666,0,0,1-.53,1.223l-1.181-.512a.667.667,0,0,1-.4-.691,8.494,8.494,0,0,0-1.556-1.888.665.665,0,0,1-.087-.852c.565-.834.308-2.637.161-3.261a.752.752,0,0,1-.017-.125c-.024-.563-.234-.714-.3-.764a1.175,1.175,0,0,0-.717-.16,24.483,24.483,0,0,1-1.075,5.331l1.337,2.671a.667.667,0,0,1-.6.964Z" fill="#191919"/><path d="M144.937,188.419a.675.675,0,0,1-.24-.045c-.6-.233-5.916-2.345-7.243-4.887a.666.666,0,1,1,1.181-.617c.928,1.777,5.038,3.678,6.543,4.261a.667.667,0,0,1-.241,1.288Z" fill="#191919"/><path d="M119.418,177.845a.664.664,0,0,1-.558-.3,2.286,2.286,0,0,0-2.625-1.146.666.666,0,0,1-.436-1.259,3.643,3.643,0,0,1,4.176,1.676.667.667,0,0,1-.557,1.031Z" fill="#191919"/><path d="M140.276,199.694a.666.666,0,0,1-.645-.5l-.851-3.324-6.9-2.843c-2.985-1.019-8.3-4.819-8.524-4.981a.657.657,0,0,1-.188-.208l-2.764-4.784a26.423,26.423,0,0,0-5.005-3.731l-1.79-.585a.665.665,0,0,1-.429-.432,2.148,2.148,0,0,1,.181-1.861,2.939,2.939,0,0,1,1.581-1.124,1.263,1.263,0,0,1,.146-.579,1.426,1.426,0,0,1,.986-.7c3-1.012,10.925,3.678,12.133,4.409l6.675,2.1c-1.677-1.563-3.855-3.694-3.985-3.821a.657.657,0,0,1-.187-.344c-.316-1.567-.077-2.636.709-3.18,1.519-1.052,4.289.579,4.829.918a.666.666,0,0,1,.186.173c3.506,4.822,9.99,6.837,10.055,6.856a.682.682,0,0,1,.233.125,14.67,14.67,0,0,1,4.985,9.875l.881,3.409a.667.667,0,1,1-1.291.334l-.9-3.474a.616.616,0,0,1-.021-.141,13.575,13.575,0,0,0-4.41-8.894c-1-.325-6.994-2.421-10.534-7.2-1.02-.611-2.685-1.283-3.258-.885-.273.189-.343.775-.2,1.621.792.773,4.476,4.356,5.406,5.071a.667.667,0,0,1-.241,1.174l-.676.173a.676.676,0,0,1-.365-.01l-8.374-2.635a.743.743,0,0,1-.147-.066c-3.289-2.008-9.231-4.951-11.182-4.3l-.129.046c.009.019.022.075.06.161a.667.667,0,0,1-.517.932,2.167,2.167,0,0,0-1.327.685.672.672,0,0,0-.1.431l1.5.489a.669.669,0,0,1,.136.062c.17.1,4.174,2.507,5.485,4.167l2.744,4.738c.8.562,5.5,3.845,8.1,4.734l7.252,2.985a.664.664,0,0,1,.392.451l.934,3.648a.665.665,0,0,1-.48.811A.63.63,0,0,1,140.276,199.694Z" fill="#191919"/><path d="M122.936,178.516c-.386-.911-1.588-4.237-1.588-4.237a1.583,1.583,0,0,0-2.753-.308c.363,1.561,1.586,6.834,1.586,6.834l2.862,3.153,2.058-1.411S123.267,179.3,122.936,178.516Z" fill="#fff"/><path d="M125.007,183.354a.665.665,0,0,1-.632-.458,12.848,12.848,0,0,0-1.711-3.429c-.675-.766-1.741-3.919-2.015-4.753-.2-.287-.484-.6-.8-.622a1.066,1.066,0,0,0-.619.244c.414,1.915,1.549,6.86,1.562,6.913a.666.666,0,1,1-1.3.3c-.014-.058-1.318-5.737-1.644-7.3a.668.668,0,0,1,.137-.559,2.517,2.517,0,0,1,1.931-.928,2.458,2.458,0,0,1,1.895,1.3.641.641,0,0,1,.075.156,22.808,22.808,0,0,0,1.777,4.373,13.846,13.846,0,0,1,1.976,3.893.667.667,0,0,1-.633.875Z" fill="#191919"/><path d="M138.98,205.053l-1.556-5.849s.154,1.036,6.033.339c7.453-.885,9.386-5.284,9.386-5.284l1.859,6.691s-5.074,4.824-10.343,5.916C138.891,208,138.98,205.053,138.98,205.053Z" fill="#fff"/><path d="M142.123,207.791a4.358,4.358,0,0,1-2.877-.849,2.55,2.55,0,0,1-.93-1.793l-1.517-5.7a.829.829,0,0,1-.034-.143.667.667,0,0,1,1.23-.443c.19.1,1.236.513,5.383.022,6.94-.823,8.782-4.728,8.856-4.894a.668.668,0,0,1,1.251.093l1.859,6.691a.668.668,0,0,1-.183.663c-.212.2-5.273,4.967-10.667,6.085A11.861,11.861,0,0,1,142.123,207.791Zm-2.477-2.728a1.23,1.23,0,0,0,.479.877c.505.408,1.626.785,4.1.274,4.318-.9,8.588-4.472,9.726-5.481l-1.357-4.886c-1.205,1.477-3.856,3.74-9.057,4.358a20.522,20.522,0,0,1-5.118.145l1.206,4.532A.641.641,0,0,1,139.646,205.063Z" fill="#191919"/><path d="M164.612,235.138c-.618-12.516-2.39-23.256-8.441-38.834,0,0-6.36,8.238-12.3,9.12-6.539.97-10.2-2.445-10.2-2.445a78.82,78.82,0,0,1,5.3,14.76c2.039,8.086,3,18.374,5.82,22.822,0,0,3.905,10.623,14.526,6.606C163.037,245.759,164.866,240.259,164.612,235.138Z" fill="#69aade"/><path d="M156.3,248.852c-8,0-11.746-6.713-11.785-6.787-1.758-2.687-2.841-8.211-3.987-14.059-.6-3.076-1.227-6.257-1.985-9.242a94.285,94.285,0,0,0-5.483-15.5.667.667,0,0,1,.879-.894c.067.032,6.828,3.1,10.109,2.341,5.558-1.278,11.536-8.749,11.6-8.824a.666.666,0,0,1,1.148.187c6.622,18.3,8.209,23.1,8.834,35.741a.667.667,0,0,1-.632.7.7.7,0,0,1-.7-.633c-.6-12.2-2.126-17.016-8.362-34.266-1.841,2.118-6.731,7.277-11.586,8.394-2.688.613-7.055-.853-9.387-1.767a97.345,97.345,0,0,1,4.875,14.19c.766,3.021,1.394,6.22,2,9.314,1.121,5.717,2.181,11.117,3.823,13.633a12.429,12.429,0,0,0,12.555,6,.666.666,0,1,1,.183,1.32A15.1,15.1,0,0,1,156.3,248.852Z" fill="#191919"/><path d="M203.015,241.979c16.926-26.445,14.2-70.123,14.2-70.123H188.819S186.09,215.534,203.015,241.979Z" fill="#fff"/><path d="M203.016,242.646a.668.668,0,0,1-.562-.307c-16.848-26.324-14.328-70.086-14.3-70.526a.666.666,0,0,1,.665-.624h28.394a.667.667,0,0,1,.665.624c.027.44,2.548,44.2-14.3,70.526A.668.668,0,0,1,203.016,242.646Zm-13.564-70.125c-.238,5.367-1.367,43.893,13.564,68.2,14.934-24.317,13.8-62.838,13.562-68.2Z" fill="#191919"/><path d="M215.643,185.047c-4.047-12.158-3.116-29.68-3.116-29.68H193.3s1.415,16.681-2.913,29.68Z" fill="#fff"/><path d="M215.644,185.713H190.387a.666.666,0,0,1-.632-.877c4.233-12.715,2.895-29.247,2.881-29.412a.667.667,0,0,1,.664-.723h19.227a.664.664,0,0,1,.665.7c-.008.174-.876,17.538,3.083,29.434a.661.661,0,0,1-.091.6A.668.668,0,0,1,215.644,185.713ZM191.3,184.381H214.73c-3.285-10.684-3.011-25.033-2.9-28.348H194.014C194.216,159.311,194.8,173.088,191.3,184.381Z" fill="#191919"/><path d="M206.07,192.982h-5.5l-2.358,8.431-2.169,63.309,7.373,10.354,7.089-10.354-2.169-63.309Z" fill="#69aade"/><path d="M203.418,275.742a.664.664,0,0,1-.543-.279L195.5,265.108a.678.678,0,0,1-.123-.409l2.17-63.308a.693.693,0,0,1,.024-.158l2.358-8.43a.667.667,0,0,1,.642-.487h5.5a.667.667,0,0,1,.644.494l2.267,8.43a.7.7,0,0,1,.023.151l2.169,63.308a.668.668,0,0,1-.116.4l-7.089,10.354a.666.666,0,0,1-.544.29Zm-6.7-11.223,6.689,9.393,6.426-9.387-2.158-63.012-2.115-7.865h-4.483l-2.2,7.868Z" fill="#191919"/><path d="M199.746,204.548a.5.5,0,0,1-.241-.939l6.843-3.749a.5.5,0,0,1,.48.877l-6.842,3.749A.5.5,0,0,1,199.746,204.548Z" fill="#fff"/><path d="M199.746,210.182a.5.5,0,0,1-.241-.939l6.843-3.749a.5.5,0,0,1,.48.877l-6.842,3.749A.5.5,0,0,1,199.746,210.182Z" fill="#fff"/><path d="M199.746,216.674a.5.5,0,0,1-.241-.939l6.843-3.749a.5.5,0,0,1,.48.877l-6.842,3.749A.5.5,0,0,1,199.746,216.674Z" fill="#fff"/><path d="M199.746,223.183a.5.5,0,0,1-.241-.939l6.843-3.748a.5.5,0,0,1,.48.877l-6.842,3.748A.5.5,0,0,1,199.746,223.183Z" fill="#fff"/><path d="M199.746,230.692a.5.5,0,0,1-.241-.938l6.843-3.748a.5.5,0,0,1,.48.877l-6.842,3.748A.5.5,0,0,1,199.746,230.692Z" fill="#fff"/><path d="M209.751,185.284c.033-2.856-3.9-3.035-6.59-3.066s-6.712.054-6.745,2.911,2.948,8.926,6.649,8.923C206.8,194.049,209.718,188.141,209.751,185.284Z" fill="#69aade"/><path d="M203.062,194.718a5.5,5.5,0,0,1-3.832-1.86,12.7,12.7,0,0,1-3.48-7.737c.013-1.087.52-2.52,2.863-3.172a16.745,16.745,0,0,1,4.556-.4,16.52,16.52,0,0,1,4.5.5c2.29.706,2.756,2.15,2.743,3.237-.036,3.225-3.166,9.423-7.352,9.426Zm-.49-11.836a14.009,14.009,0,0,0-3.6.351c-1.678.467-1.881,1.31-1.888,1.9a11.366,11.366,0,0,0,3.1,6.785,4.331,4.331,0,0,0,2.884,1.464h0c3.186,0,5.992-5.441,6.022-8.11h0c.007-.6-.173-1.445-1.8-1.948a15.462,15.462,0,0,0-4.128-.443C202.961,182.883,202.767,182.882,202.572,182.882Z" fill="#191919"/><path d="M237.069,243.536l5.561-61.023s-25.468-11.55-25.576-9.74c-.479,8.028,2.114,27.575-14.147,66.864-15.313-39.184-13.667-58.766-14.146-66.794-.108-1.809-25.863,6.52-25.863,6.52l5.847,64.173-3.674,54.655c13.426,6.675,34.907,2.722,34.907,2.722l2.947-11.76,2.806,11.76s21.587,3.953,35.013-2.722Z" fill="#69aade"/><path d="M185.731,302.763c-6.75,0-14.669-.849-20.957-3.975a.667.667,0,0,1-.368-.642l3.671-54.6-5.843-64.12a.666.666,0,0,1,.459-.695c7.344-2.375,24.609-7.778,26.354-6.581a.855.855,0,0,1,.379.655c.061,1.024.088,2.23.119,3.627.205,9.214.63,28.237,13.38,61.408,13.262-32.6,13.34-50.971,13.382-60.909.006-1.627.012-3.033.082-4.2a.823.823,0,0,1,.4-.662c1.652-1,17.07,5.736,26.112,9.836a.667.667,0,0,1,.389.667l-5.557,60.97,3.672,54.6a.667.667,0,0,1-.368.642c-13.47,6.7-34.54,2.942-35.43,2.779a.666.666,0,0,1-.528-.5l-2.174-9.108-2.284,9.116a.667.667,0,0,1-.526.493A86.841,86.841,0,0,1,185.731,302.763Zm-19.965-4.975c12.068,5.739,30.649,3.033,33.671,2.54l2.841-11.337a.666.666,0,0,1,.647-.5h0a.666.666,0,0,1,.644.512l2.7,11.329c3.047.493,21.708,3.194,33.772-2.54L236.4,243.581a.733.733,0,0,1,0-.1l5.518-60.551c-10.335-4.674-21.834-9.431-24.227-9.675-.046,1.042-.05,2.279-.056,3.685-.043,10.185-.123,29.146-14.117,62.957a.666.666,0,0,1-.616.411H202.9a.667.667,0,0,1-.614-.424c-13.426-34.356-13.863-53.986-14.074-63.42-.026-1.222-.05-2.3-.1-3.219-2.19-.1-13.793,3.145-24.505,6.594l5.8,63.642a.614.614,0,0,1,0,.1Z" fill="#191919"/><path d="M189.363,175.761c-.1-.258,3.685-5.789,3.641-5.374-.358,3.386,1.9,6.02,10.012,11.476.626.421-3.187,2.517-6.759,6.569a29.307,29.307,0,0,0-4.4,7.6A37.542,37.542,0,0,1,189.363,175.761Z" fill="#fff"/><path d="M191.862,196.7a.665.665,0,0,1-.616-.414,37.861,37.861,0,0,1-2.534-20.664l.045.01c.392-1.459,3.708-5.7,3.749-5.736a.756.756,0,0,1,.8-.121.7.7,0,0,1,.363.684c-.327,3.083,1.944,5.619,9.721,10.852a.806.806,0,0,1,.361.633c.028.6-.506,1.04-1.935,2.209a42.02,42.02,0,0,0-5.057,4.72,28.812,28.812,0,0,0-4.272,7.4.666.666,0,0,1-.615.428Zm-1.841-20.828-.006.029a36.984,36.984,0,0,0,1.88,18.36,26.868,26.868,0,0,1,3.862-6.269,43.072,43.072,0,0,1,5.213-4.87c.436-.356.912-.745,1.208-1.02-6.5-4.414-9.222-7.085-9.77-9.911C191.475,173.518,190.226,175.415,190.021,175.871Z" fill="#191919"/><path d="M217.291,174.186c.1-.259-4.531-5.188-4.487-4.773.358,3.385-1.058,6.994-9.165,12.45-.586.394,3.627,2.3,6.3,6.23a55.643,55.643,0,0,1,4.332,7.94A49.587,49.587,0,0,0,217.291,174.186Z" fill="#fff"/><path d="M214.276,196.7a.668.668,0,0,1-.611-.4,55.252,55.252,0,0,0-4.271-7.829,21.338,21.338,0,0,0-4.973-4.852c-1.073-.808-1.518-1.142-1.5-1.682a.774.774,0,0,1,.35-.626c8.307-5.59,9.174-8.988,8.874-11.827a.706.706,0,0,1,.365-.685c.456-.235.831.1,1.106.345.043.039,3.906,3.626,4.292,4.963l.048-.005a49.777,49.777,0,0,1-3.055,22.172.662.662,0,0,1-.607.426Zm-9.719-14.655c.195.155.438.339.666.51a22.514,22.514,0,0,1,5.272,5.165,52.52,52.52,0,0,1,3.71,6.568,49.7,49.7,0,0,0,2.435-19.933,44.506,44.506,0,0,0-3.142-3.475C213.244,174.581,210.523,177.943,204.557,182.044Z" fill="#191919"/><path d="M181.841,177.81l-6.982,7.237,6.455,6.18-4.912,6.034s7.513,15.644,13.4,25.61a96.36,96.36,0,0,0,13.121,17.19s-17.875-46.309-13.384-64.13l3.21-6.035A27.925,27.925,0,0,0,181.841,177.81Z" fill="#69aade"/><path d="M202.925,240.728a.666.666,0,0,1-.471-.195A98.044,98.044,0,0,1,189.23,223.21c-5.836-9.876-13.353-25.5-13.428-25.661a.665.665,0,0,1,.084-.709l4.523-5.557-6.011-5.755a.665.665,0,0,1-.019-.944l6.959-7.211a28.334,28.334,0,0,1,11.181-8.1.671.671,0,0,1,.733.187.664.664,0,0,1,.087.751l-3.171,5.963c-4.317,17.47,13.2,63.189,13.379,63.649a.667.667,0,0,1-.622.907Zm-25.738-43.375c1.188,2.455,7.892,16.211,13.191,25.179a97.362,97.362,0,0,0,10.743,14.606c-3.959-10.83-16.084-46.06-12.226-61.37a.622.622,0,0,1,.058-.15l2.3-4.32a26.379,26.379,0,0,0-8.884,6.923.555.555,0,0,1-.045.052l-6.518,6.755,5.972,5.717a.666.666,0,0,1,.056.9Zm4.654-19.542h0Z" fill="#191919"/><path d="M224.359,177.81l6.029,7.237-5.5,6.18,4.911,6.034s-7.512,15.644-13.4,25.61a96.414,96.414,0,0,1-13.121,17.19s17.874-46.309,13.384-64.13l-3.21-6.035A27.917,27.917,0,0,1,224.359,177.81Z" fill="#69aade"/><path d="M203.275,240.728a.667.667,0,0,1-.622-.907c.178-.46,17.7-46.179,13.38-63.649l-3.172-5.962a.665.665,0,0,1,.087-.752.674.674,0,0,1,.734-.187,28.332,28.332,0,0,1,11.2,8.122l6.022,7.227a.667.667,0,0,1-.013.87l-5.125,5.756,4.552,5.594a.661.661,0,0,1,.084.709c-.075.157-7.591,15.785-13.428,25.661a97.989,97.989,0,0,1-13.224,17.323A.668.668,0,0,1,203.275,240.728ZM214.95,171.3l2.3,4.319a.751.751,0,0,1,.059.151c3.857,15.31-8.269,50.54-12.228,61.37a97.3,97.3,0,0,0,10.744-14.606c5.3-8.968,12-22.724,13.191-25.179l-4.644-5.706a.667.667,0,0,1,.019-.864l5.12-5.751-5.661-6.795-.014-.016A26.373,26.373,0,0,0,214.95,171.3Z" fill="#191919"/><path d="M179.722,269.028l-12.384-.812.469-4.792,12.582.622Z" fill="#69aade"/><path d="M179.723,269.694h-.044l-12.384-.812a.668.668,0,0,1-.62-.73l.469-4.792a.673.673,0,0,1,.7-.6l12.582.623a.667.667,0,0,1,.628.754l-.667,4.981A.665.665,0,0,1,179.723,269.694Zm-11.655-2.1,11.077.726.487-3.645-11.223-.556Z" fill="#191919"/><path d="M226,269.028l12.384-.812-.469-4.792-12.582.622Z" fill="#69aade"/><path d="M225.994,269.694a.665.665,0,0,1-.659-.578l-.666-4.981a.663.663,0,0,1,.148-.515.675.675,0,0,1,.479-.239l12.581-.623a.663.663,0,0,1,.7.6l.469,4.792a.667.667,0,0,1-.619.73l-12.384.812Zm.092-5.017.487,3.645,11.075-.726-.339-3.475Z" fill="#191919"/><path d="M206.687,247.167a3.3,3.3,0,1,1-3.3-3.3A3.3,3.3,0,0,1,206.687,247.167Z" fill="#191919"/><path d="M206.687,266.953a3.3,3.3,0,1,1-3.3-3.3A3.3,3.3,0,0,1,206.687,266.953Z" fill="#191919"/><path d="M242.488,182.71s5.455,1.218,11.641,10.354a73.941,73.941,0,0,1,8.634,19.659c1.131,3.963,9.692,26.945,9.692,26.945s-11.445,7.857-15.775,8.879c0,0-15.4-22.4-17.339-31.789Z" fill="#69aade"/><path d="M256.681,249.213a.669.669,0,0,1-.549-.288c-.632-.919-15.5-22.615-17.444-32.032a.652.652,0,0,1-.01-.2l3.147-34.048a.665.665,0,0,1,.809-.588c.233.051,5.784,1.381,12.047,10.629A74.047,74.047,0,0,1,263.4,212.54c1.113,3.894,9.591,26.666,9.676,26.9a.665.665,0,0,1-.247.782c-.472.323-11.6,7.938-16,8.977A.673.673,0,0,1,256.681,249.213Zm-16.667-32.494c1.829,8.535,14.911,28.053,16.95,31.06,3.943-1.209,12.65-7,14.684-8.369-1.279-3.438-8.478-22.835-9.526-26.505a72.609,72.609,0,0,0-8.545-19.467c-4.633-6.841-8.853-9.137-10.5-9.82Z" fill="#191919"/><path d="M199.648,249.6l30.6,53.864h2.824l-30.466-53.778Z" fill="#fff"/><path d="M233.073,304.131h-2.824a.665.665,0,0,1-.579-.337l-30.6-53.864a.669.669,0,0,1,.009-.673.624.624,0,0,1,.59-.322l2.959.086a.667.667,0,0,1,.561.337l30.466,53.779a.665.665,0,0,1-.58.994Zm-2.436-1.332h1.293l-29.718-52.457-1.4-.041Z" fill="#191919"/><path d="M224.366,211.319l-21.759,38.367,30.466,53.778,19.817-39.419Z" fill="#fff"/><path d="M233.073,304.131a.666.666,0,0,1-.58-.338l-30.467-53.778a.671.671,0,0,1,0-.658l21.759-38.367a.634.634,0,0,1,.587-.337.665.665,0,0,1,.579.349l28.526,52.727a.669.669,0,0,1,.009.617l-19.817,39.419a.666.666,0,0,1-.579.366Zm-29.7-54.444,29.666,52.364,19.1-37.993-27.787-51.364Z" fill="#191919"/><path d="M223.072,211.034,199.648,249.6l2.959.086,21.759-38.367Z" fill="#fff"/><path d="M202.606,250.353h-.019l-2.959-.086a.666.666,0,0,1-.549-1.012L222.5,210.688a.658.658,0,0,1,.713-.3l1.293.285a.666.666,0,0,1,.436.979l-21.758,38.368A.669.669,0,0,1,202.606,250.353Zm-1.794-1.385,1.413.041L222.478,213.3Z" fill="#191919"/><path d="M245.84,265.8c1.663,5.406,1.742,11.3.261,11.755s-4.912-3.224-6.574-8.631-2.589-11.073-1.107-11.528S244.178,260.389,245.84,265.8Z" fill="#69aade"/><path d="M245.824,278.258c-1.3,0-2.693-1.461-3.46-2.4a20.4,20.4,0,0,1-3.473-6.739c-1.062-3.451-3.252-11.564-.667-12.36,1.963-.6,6.519,3.207,8.254,8.845h0a30.191,30.191,0,0,1,1.337,7.918c.054,2.772-.458,4.343-1.519,4.67A1.616,1.616,0,0,1,245.824,278.258Zm-7.069-20.248a.54.54,0,0,0-.14.018c-.48.327-.538,3.911,1.549,10.7a19.067,19.067,0,0,0,3.234,6.29c1.316,1.617,2.261,1.971,2.506,1.9.7-.311,1.054-5.216-.7-10.922C243.635,260.89,239.882,258.01,238.755,258.01Z" fill="#191919"/><path d="M241.951,267.631c1.61,4.681,2.039,8.416.573,8.919s-4.273-2.413-5.882-7.094-1.893-9.045-.427-9.549S240.342,262.95,241.951,267.631Z" fill="#fff"/><path d="M242.175,277.273c-2.005,0-4.646-3.188-6.162-7.6-1.54-4.48-2.2-9.644-.015-10.4,2.209-.755,5.034,3.63,6.583,8.138,1.128,3.28,2.648,8.911.16,9.767A1.739,1.739,0,0,1,242.175,277.273Zm-5.639-16.752a.311.311,0,0,0-.1.015c-.653.225-.948,3.5.84,8.7,1.6,4.665,4.174,6.973,5.036,6.682.522-.18.967-2.389-.987-8.073h0C239.707,263.151,237.375,260.521,236.536,260.521Z" fill="#191919"/><path d="M241.322,259.559l-5.107,1.6-4.065-.559c-1.577-.545-5.445-1.8-6.973-1.5a52.576,52.576,0,0,0-5.786,1.809l-3.381.621s-2.127,3.017,2.644,2.923c0,0,4.518-.938,4.635-.974.054-.015,2.715.634,2.715.634l.075.156-2.941,2.87-3.816,2.8h0l-3.1,1.291-3.985.662s-1.3.53-.768,2.5c.323,1.192,1.872,1.48,1.872,1.48l.562-.043c-.437.171-1.447.671-1.447,1.71a2.323,2.323,0,0,0,1.882,2.19l.87-.059a1.721,1.721,0,0,0-.592,2.187c.657,1.674,1.758,1.357,1.758,1.357l3.109-.152-1.042.173s-1.658.885-.1,2.324c.763.7,3.385.614,3.385.614l2.639-.781,5.233-1.843a13.6,13.6,0,0,0,4.1-2.411,41.4,41.4,0,0,0,4.218-5.388l6.455-3S248.108,263.26,241.322,259.559Z" fill="#fff"/><path d="M221.384,286.854c-.864,0-2.716-.087-3.485-.8a2.213,2.213,0,0,1-.873-1.9,1.715,1.715,0,0,1,.068-.3l-.622.032c-.613.126-1.81-.092-2.472-1.777a2.536,2.536,0,0,1-.086-1.8,2.9,2.9,0,0,1-2.12-2.766,2.153,2.153,0,0,1,.472-1.349,2.627,2.627,0,0,1-1.437-1.623c-.544-2.012.522-3.036,1.161-3.3a.7.7,0,0,1,.142-.04l3.908-.649,2.951-1.23,3.752-2.757,2.124-2.079c-.7-.168-1.316-.312-1.561-.364-.333.073-1.349.289-4.516.946a.634.634,0,0,1-.122.014c-1.908.051-3.09-.391-3.578-1.309a2.778,2.778,0,0,1,.376-2.664.665.665,0,0,1,.425-.271l3.323-.61a51.059,51.059,0,0,1,5.836-1.82c1.522-.3,4.774.648,7.256,1.5l3.852.53,4.965-1.557a.668.668,0,0,1,.519.051c7.218,3.938,3.4,13.929,3.355,14.029a.663.663,0,0,1-.339.361l-6.287,2.921a39.527,39.527,0,0,1-4.213,5.35,14.163,14.163,0,0,1-4.329,2.551l-5.233,1.843-2.671.791a.641.641,0,0,1-.167.028C221.68,286.851,221.55,286.854,221.384,286.854Zm-2.7-2.974a.779.779,0,0,0-.338.449c-.023.192.138.459.454.749a5.991,5.991,0,0,0,2.828.44l2.555-.756,5.2-1.833a12.987,12.987,0,0,0,3.865-2.27,41.145,41.145,0,0,0,4.117-5.269.672.672,0,0,1,.274-.236l6.206-2.883c.516-1.465,2.773-8.809-2.6-11.99l-4.831,1.516a.675.675,0,0,1-.29.024l-4.064-.559a.618.618,0,0,1-.127-.031c-3.158-1.09-5.7-1.656-6.629-1.475a52.232,52.232,0,0,0-5.68,1.779.548.548,0,0,1-.112.031l-3.084.567a1.3,1.3,0,0,0-.159,1.055c.1.19.523.637,2.311.6,1.745-.362,4.351-.906,4.537-.952.2-.059.209-.063,3.045.63a.664.664,0,0,1,.442.358l.076.156a.668.668,0,0,1-.135.766l-2.941,2.87-3.888,2.864a.656.656,0,0,1-.139.079l-3.1,1.29a.647.647,0,0,1-.146.042l-3.885.645c-.158.1-.652.515-.334,1.69.174.641,1.024.913,1.28.981l.458-.035a.65.65,0,0,1,.7.514.666.666,0,0,1-.407.77c-.381.15-1.023.491-1.023,1.09a1.6,1.6,0,0,0,1.27,1.518l.77-.052a.652.652,0,0,1,.676.447.665.665,0,0,1-.255.768,1.062,1.062,0,0,0-.347,1.393c.406,1.034.915.965.978.954.031-.006.1-.017.128-.019l3.109-.153a.685.685,0,0,1,.694.6.666.666,0,0,1-.552.729Z" fill="#191919"/><path d="M213.879,276.332h-.109a.667.667,0,0,1-.649-.683A.694.694,0,0,1,213.8,275a17.147,17.147,0,0,0,8.955-2.887.666.666,0,1,1,.74,1.108A18.321,18.321,0,0,1,213.879,276.332Z" fill="#191919"/><path d="M215.523,280.2c-.359,0-.575-.018-.615-.022a.665.665,0,0,1-.6-.724.673.673,0,0,1,.724-.6,14.928,14.928,0,0,0,9.4-3.173.666.666,0,0,1,.8,1.064A16.484,16.484,0,0,1,215.523,280.2Z" fill="#191919"/><path d="M219.175,283.839a2.976,2.976,0,0,1-.447-.029.667.667,0,0,1,.227-1.314c.062.007,2.621.318,7.224-3.147a.666.666,0,1,1,.8,1.064C222.9,283.489,220.191,283.839,219.175,283.839Z" fill="#191919"/><path d="M241.115,257.392l-4.9,2.515a18.824,18.824,0,0,1,5.025,6.23,17.355,17.355,0,0,1,1.04,10.55l5.312-2.97S250.614,256.868,241.115,257.392Z" fill="#fff"/><path d="M242.28,277.354a.666.666,0,0,1-.643-.841,16.583,16.583,0,0,0-1-10.094,18.3,18.3,0,0,0-4.825-5.982.667.667,0,0,1,.1-1.124l4.9-2.514a.645.645,0,0,1,.267-.072,6.036,6.036,0,0,1,5.116,1.994c3.916,4.427,2.131,14.679,2.054,15.113a.668.668,0,0,1-.331.465L242.6,277.27A.67.67,0,0,1,242.28,277.354Zm-4.87-17.312a19.069,19.069,0,0,1,4.434,5.812,18.513,18.513,0,0,1,1.362,9.552l3.779-2.113c.262-1.715,1.354-10.139-1.79-13.689a4.692,4.692,0,0,0-3.9-1.553Z" fill="#191919"/><path d="M259,240.445l-9.036,7.319-11.541,9.3s2.111.756,5.683,5.135c2.417,2.962,2.689,12.794,1.494,15.716a126.175,126.175,0,0,0,16.256-14.5c3.639-3.83,11.529-9.376,12.27-14.746s-3.35-13.609-3.35-13.609Z" fill="#69aade"/><path d="M245.77,278.077a.666.666,0,0,1-.618-.918c1.064-2.6.342-11.689-1.979-14.534-3.279-4.02-5.117-4.4-5.136-4.4a.679.679,0,0,1-.529-.484.664.664,0,0,1,.2-.68l11.405-9.8,4.6-3.731a.667.667,0,0,1,.84,1.036l-4.581,3.718L239.4,257.358a17.549,17.549,0,0,1,4.8,4.425c2.259,2.769,3.134,10.14,2.6,14.124a97.688,97.688,0,0,0,14.151-12.4c.834-.878,1.89-1.874,3.008-2.929,3.807-3.592,8.544-8.061,9.085-11.987.7-5.117-3.009-13.539-3.046-13.623a.666.666,0,1,1,1.217-.543c.16.359,3.907,8.853,3.149,14.348-.6,4.39-5.532,9.04-9.49,12.775-1.105,1.042-2.148,2.026-2.956,2.877a91.977,91.977,0,0,1-15.8,13.556A.666.666,0,0,1,245.77,278.077Z" fill="#191919"/><path d="M254.129,244.711a.666.666,0,0,1-.629-.887c.3-.861,3.068-8.434,7.085-8.962a.675.675,0,0,1,.748.575.668.668,0,0,1-.574.748c-1.9.248-3.7,3.042-4.874,5.432a40.039,40.039,0,0,1,7.737-4.12.666.666,0,0,1,.486,1.24c-.067.027-6.769,2.675-9.479,5.748A.665.665,0,0,1,254.129,244.711Z" fill="#191919"/><path d="M186.193,142.9c1.055,3.168,3.269,8.668.347,9.641s-6.075-.243-8.893-6.38c-1.394-3.034-.205-7.065,2.718-8.038S185.138,139.729,186.193,142.9Z" fill="#fff"/><path d="M184.75,153.511c-2.961,0-5.547-2.369-7.709-7.075a7.339,7.339,0,0,1-.055-5.894,5.348,5.348,0,0,1,3.168-3.055,4.041,4.041,0,0,1,4.286.987,10.285,10.285,0,0,1,2.385,4.212l.31.911c.955,2.78,2.143,6.239,1.151,8.245a2.547,2.547,0,0,1-1.536,1.327A6.308,6.308,0,0,1,184.75,153.511Zm-3.179-14.932a3.149,3.149,0,0,0-1,.172,4.039,4.039,0,0,0-2.366,2.321,6.07,6.07,0,0,0,.043,4.807c2.337,5.087,4.976,7.058,8.078,6.026a1.229,1.229,0,0,0,.761-.654c.746-1.507-.435-4.946-1.216-7.221l-.314-.923h0a9.146,9.146,0,0,0-2.043-3.671A2.757,2.757,0,0,0,181.571,138.579Z" fill="#191919"/><path d="M219.335,142.9c-1.056,3.168-3.27,8.668-.347,9.641s6.074-.243,8.893-6.38c1.393-3.034.205-7.065-2.718-8.038S220.39,139.729,219.335,142.9Z" fill="#fff"/><path d="M220.778,153.512a6.32,6.32,0,0,1-2-.343,2.552,2.552,0,0,1-1.536-1.327c-.991-2.007.2-5.467,1.153-8.248l.309-.908a10.284,10.284,0,0,1,2.384-4.212,4.04,4.04,0,0,1,4.287-.987,5.344,5.344,0,0,1,3.167,3.055,7.335,7.335,0,0,1-.055,5.894C226.325,151.141,223.739,153.511,220.778,153.512Zm3.179-14.933a2.754,2.754,0,0,0-1.947.857,9.151,9.151,0,0,0-2.043,3.671h0l-.313.92c-.782,2.276-1.964,5.716-1.217,7.224a1.232,1.232,0,0,0,.762.654c3.094,1.032,5.739-.938,8.076-6.026a6.065,6.065,0,0,0,.043-4.807,4.033,4.033,0,0,0-2.366-2.321A3.147,3.147,0,0,0,223.957,138.579Zm-4.622,4.317h0Z" fill="#191919"/><path d="M222.29,132.615c-.286,17.408-4.021,36.068-19.677,36.068-16.661,0-19.677-21.067-19.677-36.068s9.341-25.568,20.209-25.568S222.537,117.618,222.29,132.615Z" fill="#fff"/><path d="M201.9,168.711c-17.788,0-19.382-27.454-19.4-27.733a.666.666,0,1,1,1.331-.068c.014.266,1.543,26.468,18.073,26.468l.31,0a.666.666,0,1,1,.025,1.332C202.128,168.71,202.012,168.711,201.9,168.711Z" fill="#191919"/><path d="M204.153,168.707a.666.666,0,0,1-.017-1.332c15.183-.4,17.651-26.229,17.674-26.49a.667.667,0,0,1,1.328.117c-.1,1.114-2.6,27.278-18.967,27.705Z" fill="#191919"/><ellipse cx="1.773" cy="1.934" rx="1.773" ry="1.934" transform="translate(209.477 140.076)" fill="#191919"/><ellipse cx="1.773" cy="1.934" rx="1.773" ry="1.934" transform="translate(192.208 140.076)" fill="#191919"/><path d="M190.257,137.353a.665.665,0,0,1-.528-1.07c.024-.031,2.493-3.143,6.96-.893a.666.666,0,1,1-.6,1.19c-3.458-1.744-5.234.426-5.308.52A.67.67,0,0,1,190.257,137.353Z" fill="#191919"/><path d="M215,137.184a.663.663,0,0,1-.5-.227c-.088-.1-1.982-2.151-5.328-.214a.667.667,0,1,1-.668-1.154c4.333-2.5,6.974.462,7,.493a.667.667,0,0,1-.5,1.1Z" fill="#191919"/><path d="M202.615,153.207a.666.666,0,0,1-.666-.666v-1.067a.666.666,0,1,1,1.332,0v1.067A.666.666,0,0,1,202.615,153.207Z" fill="#191919"/><path d="M207.532,156.318c-4.937,8.09-9.352.05-9.352.05Z" fill="#fff"/><path d="M202.9,160.427h-.086c-2.977-.069-4.985-3.664-5.069-3.818a.5.5,0,0,1,.435-.74l9.352-.05a.48.48,0,0,1,.439.254.5.5,0,0,1-.009.507C206.4,159.133,204.7,160.427,202.9,160.427Zm-3.8-3.564c.691.961,2.07,2.527,3.739,2.564,1.282-.016,2.543-.848,3.77-2.6Z" fill="#191919"/><path d="M227.621,126.261c0-6.416-3.758-12.964-7-13.833-.4-3.767-5.739-8.978-12.942-7.177-2.468-2.068-6-2.8-9.471-2.8-7.479,0-13.638,5.692-14.556,10.63-2.968,2-5.388,7.645-5.388,13.181,0,6.889,2.921,9.99,5.136,12.407.254.277,2.958-12,3.435-19.877,2.835,3.4,10.389,5.62,18.112,3.448,4.133,2.555,11.959,2.054,14.4.6.9,7.45,2.688,16.059,2.9,15.831C224.459,136.251,227.621,133.15,227.621,126.261Z" fill="#69aade"/><path d="M220.685,112.684a.666.666,0,0,1-.6-.387c-3.2-6.911-10.469-6.595-10.769-6.572a.655.655,0,0,1-.7-.628.665.665,0,0,1,.626-.7c.091,0,8.471-.4,12.056,7.343a.666.666,0,0,1-.324.885A.683.683,0,0,1,220.685,112.684Z" fill="#191919"/><path d="M222.229,139.337a.667.667,0,0,1-.2-.031c-.417-.134-.607-.2-1.659-5.715-.62-3.251-1.181-6.752-1.568-9.759-3.255,1.251-10.014,1.376-13.949-.875-7.073,1.9-13.993.22-17.466-2.686-.578,6.085-2.681,18.65-3.749,19.028a.692.692,0,0,1-.728-.181l-.079-.087c-2.207-2.407-5.231-5.7-5.231-12.769,0-5.513,2.329-11.273,5.454-13.574,1.149-5.214,7.548-10.905,15.156-10.905,3.527,0,7.194.187,9.861,2.422a.666.666,0,1,1-.855,1.021c-2.325-1.947-5.724-2.11-9.006-2.11-7.087,0-13.014,5.315-13.9,10.085a.669.669,0,0,1-.283.431c-2.857,1.926-5.094,7.473-5.094,12.63a15.081,15.081,0,0,0,4.214,11.134,124.691,124.691,0,0,0,3.025-18.645.667.667,0,0,1,1.177-.387c2.7,3.239,9.952,5.332,17.42,3.233a.673.673,0,0,1,.531.075c3.949,2.442,11.514,1.9,13.709.593a.665.665,0,0,1,1,.493c.707,5.861,1.939,12.221,2.515,14.62a14.892,14.892,0,0,0,4.432-11.116c0-5.4-2.752-10.738-5.3-12.58a.667.667,0,0,1,.782-1.08c2.877,2.079,5.852,7.757,5.852,13.66,0,6.838-3.033,10.125-5.249,12.526l-.3.33A.689.689,0,0,1,222.229,139.337Z" fill="#191919"/><path d="M204.789,122.862c-.638,0-2.769-.415-7.279-4.863a.666.666,0,0,1,.935-.95c4.5,4.437,6.309,4.48,6.349,4.48h0a.654.654,0,0,1,.733.568.683.683,0,0,1-.587.756A1.266,1.266,0,0,1,204.789,122.862Z" fill="#191919"/><path d="M219.284,123.226a.665.665,0,0,1-.61-.4c-2.607-5.956-7.712-6.682-7.929-6.71a.666.666,0,0,1,.166-1.322,12.136,12.136,0,0,1,8.984,7.5.666.666,0,0,1-.611.934Z" fill="#191919"/></g></g></g></svg>