<svg xmlns="http://www.w3.org/2000/svg" width="283.579" height="186.165" viewBox="0 0 283.579 186.165"><g transform="translate(-52.814 -67.362)"><path d="M301.2,123.541c6.7,1.144,9.655,8.137,11.26,25.358,1.786,19.159,1.857,38.644-8.112,39.159-1.6.083-6.532,2.554-8.134-4.89-.8-3.743-1.57-18.68-.273-32.61A158.443,158.443,0,0,1,301.2,123.541Z" fill="#ffb067"/><path d="M301.23,189.011c-2.056,0-4.472-.963-5.5-5.737-.789-3.67-1.605-18.561-.283-32.763a160.334,160.334,0,0,1,5.28-27.113l.127-.424.435.075c6.866,1.172,10.03,8.165,11.674,25.8,1.2,12.86,2.149,30.7-3.412,37.13a7.115,7.115,0,0,1-5.172,2.576,6.606,6.606,0,0,0-.873.153A10.835,10.835,0,0,1,301.23,189.011Zm.328-64.892a159,159,0,0,0-5.115,26.485c-1.313,14.1-.513,28.84.266,32.459,1.249,5.806,4.461,5.125,6.588,4.669a7.037,7.037,0,0,1,1.031-.172,6.075,6.075,0,0,0,4.466-2.232c5.311-6.141,4.354-23.706,3.173-36.383C310.413,132.262,307.572,125.433,301.558,124.119Z" fill="#181818"/><path d="M199.454,190.125H150.787l4.374-14.012a48.413,48.413,0,0,0-.411-7.607c-.721-5.906-2.264-14.328-2.986-20.758-1.29-11.477-1.941-17.976-1.941-17.976s1.984-1.369,8.433-3.543,10.206-2.982,10.072-2.284c-1.04,5.413-.8,21.764,10.626,50.753,14.755-39.153,8.162-47.189,6.489-50.455-.325-.633,2.676-.487,9.364,2.085,4.341,1.67,5.724,3.708,5.724,3.708l-3.79,38.4.267,5.7Z" fill="#ffb067"/><path d="M200.037,190.625H150.108l4.557-14.6a49.815,49.815,0,0,0-.411-7.46c-.329-2.692-.822-5.868-1.345-9.231-.614-3.948-1.249-8.03-1.642-11.532-1.275-11.348-1.935-17.917-1.942-17.982l-.029-.294.243-.167c.084-.058,2.116-1.433,8.557-3.605,9.508-3.207,10.238-2.572,10.513-2.331a.646.646,0,0,1,.211.615c-.308,1.6-2.606,16.461,10.124,49.26,13.276-35.727,8.279-44.782,6.384-48.216-.122-.223-.234-.425-.33-.612a.643.643,0,0,1,.085-.739c1.068-1.191,8.437,1.565,9.9,2.13,4.436,1.706,5.9,3.805,5.959,3.893l.1.15-3.809,38.574.27,5.63Zm-48.57-1h47.4l-2.358-15.417-.273-5.754,3.773-38.268a13.143,13.143,0,0,0-5.387-3.391c-5.129-1.973-7.631-2.359-8.519-2.368l.1.173c2.163,3.92,7.227,13.1-6.782,50.275l-.458,1.213-.475-1.206c-10-25.363-12.022-43.045-10.714-50.687-.822.009-3.472.522-9.359,2.507a46.43,46.43,0,0,0-8.064,3.331c.145,1.429.79,7.7,1.909,17.659.391,3.48,1.024,7.551,1.636,11.49.524,3.371,1.019,6.555,1.35,9.263a48.685,48.685,0,0,1,.414,7.695l-.022.123Z" fill="#181818"/><path d="M191.748,128.712l3.784,5.394-2.719,4.56,2.633,4.689a187.407,187.407,0,0,1-8.6,18.659c-4.138,7.354-7.893,12.684-7.893,12.684s11.234-34.169,8.078-47.319l-1.785-4.868A26.748,26.748,0,0,1,191.748,128.712Z" fill="#ffb067"/><path d="M177.432,177.727l1.047-3.185c.112-.34,11.153-34.184,8.067-47.046l-2.269-6.178,1.234.769a26.989,26.989,0,0,1,6.638,6.326l.009.011,3.969,5.66-2.736,4.589L196,143.317l-.087.222a189.426,189.426,0,0,1-8.628,18.721c-4.1,7.291-7.883,12.673-7.92,12.726Zm8.843-53.865,1.226,3.345c2.621,10.907-4.294,35.389-7.029,44.337,1.484-2.27,3.661-5.725,5.94-9.774a185.014,185.014,0,0,0,8.481-18.378l-2.658-4.734,2.7-4.53L191.343,129A27.226,27.226,0,0,0,186.275,123.862Z" fill="#181818"/><path d="M162.512,127.738l-3.861,5.876,3.928,4.555-2.947,4.283a197.958,197.958,0,0,0,8.706,18.718A66.89,66.89,0,0,0,178.954,174.7s-11.426-32.486-10.979-47.319c.128-4.227,1.555-5.558,1.555-5.558A21,21,0,0,0,162.512,127.738Z" fill="#ffb067"/><path d="M180.117,176.5l-1.508-1.436A68.116,68.116,0,0,1,167.9,161.415a199.881,199.881,0,0,1-8.734-18.776l-.1-.249,2.881-4.186-3.923-4.55,4.085-6.215a21.3,21.3,0,0,1,7.205-6.07l2.9-1.37-2.345,2.188c-.008.008-1.278,1.3-1.4,5.208-.44,14.569,10.836,46.813,10.95,47.137ZM160.2,142.514a195.3,195.3,0,0,0,8.577,18.411,64.417,64.417,0,0,0,8.992,11.85c-2.523-7.465-10.674-32.659-10.289-45.411a12.973,12.973,0,0,1,.73-4.2,20.61,20.61,0,0,0-5.284,4.861l-3.646,5.549,3.933,4.562Z" fill="#181818"/><path d="M177.563,176.113c-11.893-19.512-9.976-51.74-9.976-51.74H187.54S189.457,156.6,177.563,176.113Z" fill="#fff"/><path d="M177.563,176.67a.556.556,0,0,1-.475-.267c-11.847-19.436-10.076-51.739-10.057-52.063a.557.557,0,0,1,.556-.524H187.54a.558.558,0,0,1,.556.524c.019.324,1.79,32.627-10.057,52.063A.556.556,0,0,1,177.563,176.67Zm-9.444-51.74c-.172,4.176-.9,32.254,9.444,50.093,10.346-17.839,9.617-45.917,9.445-50.093Z" fill="#191919"/><path d="M169.53,125.234c.677-7.012.872-13.027.872-13.027h14.051s0,6.4.781,13.63c4.453,1.02,7.474,2.883,7.474,5.037,0,3.24-6.3,9.49-14.634,9.49s-15.528-6.25-15.528-9.49C162.546,128.672,164.912,126.236,169.53,125.234Z" fill="#fff"/><path d="M178.075,140.921c-8.295,0-16.086-6.268-16.086-10.046,0-2.217,2.176-4.926,7.025-6.1.636-6.744.829-12.532.831-12.592a.557.557,0,0,1,.556-.539h14.053a.558.558,0,0,1,.557.558c0,.062.007,6.225.735,13.179,4.718,1.152,7.52,3.19,7.52,5.489C193.266,134.313,186.851,140.921,178.075,140.921Zm-7.137-28.157c-.065,1.633-.3,6.771-.854,12.523a.556.556,0,0,1-.436.491c-4.521.982-6.545,3.267-6.545,5.1,0,2.941,6.93,8.932,14.972,8.932,7.991,0,14.076-5.953,14.076-8.932,0-1.751-2.764-3.516-7.042-4.5a.558.558,0,0,1-.429-.483c-.644-5.957-.759-11.416-.779-13.133Zm-1.408,12.469h0Z" fill="#191919"/><path d="M176.749,180.537a2.32,2.32,0,1,0,2.318-2.433A2.378,2.378,0,0,0,176.749,180.537Z" fill="#191919"/><path d="M273.537,195.045,271.8,144.414l-1.927-7.168H265.2l-2,7.168-1.735,50.631Z" fill="#ffb067"/><path d="M274.055,195.545H260.942l1.772-51.266,2.106-7.533h5.437l2.045,7.65Zm-12.077-1H273.02L271.3,144.488l-1.813-6.742h-3.913l-1.885,6.745Z" fill="#181818"/><path d="M273.021,129.981c.028-2.428-3.487-1.152-5.774-1.178s-5.535-1.382-5.563,1.047,2.522,9.127,5.668,9.124C270.525,138.972,272.993,132.41,273.021,129.981Z" fill="#ffb067"/><path d="M267.352,139.475a3.769,3.769,0,0,1-2.646-1.306,14.691,14.691,0,0,1-3.522-8.325,1.859,1.859,0,0,1,.6-1.467c.808-.688,2.165-.486,3.6-.273a14.485,14.485,0,0,0,1.869.2,14,14,0,0,0,1.888-.153c1.538-.184,2.992-.359,3.817.383a1.831,1.831,0,0,1,.563,1.454h0c-.028,2.438-2.488,9.485-6.168,9.488ZM263.419,128.9a1.567,1.567,0,0,0-.988.235c-.06.051-.242.205-.247.717a13.933,13.933,0,0,0,3.233,7.611,2.832,2.832,0,0,0,1.935,1.009h0c2.768,0,5.141-6.172,5.168-8.5h0c.005-.488-.172-.647-.231-.7-.488-.439-1.84-.276-3.03-.133a14.008,14.008,0,0,1-2.019.159,15.412,15.412,0,0,1-2.005-.21A13.228,13.228,0,0,0,263.419,128.9Z" fill="#181818"/><path d="M241.633,193.9h60.079l-1-14.82s-1.745-20.783-.184-34.007a168.469,168.469,0,0,1,3.351-20.156s-3.4-2.133-11.206-4.639-12.137-3.449-12.186-2.631c-.407,6.825.969,25.077-12.855,58.479-17.851-45.113-9.875-54.372-7.851-58.136.393-.729-3.869,0-11.959,2.965-5.252,1.924-7.427,4.305-7.427,4.305l2.231,53.82Z" fill="#ffb067"/><path d="M302.247,194.4H241.1l1.032-15.353-2.24-53.972.138-.152c.092-.1,2.319-2.494,7.624-4.438,2.687-.985,11.531-4.108,12.508-2.979a.628.628,0,0,1,.065.721c-.117.215-.251.448-.4.7-2.3,3.971-8.375,14.458,7.819,55.855,11.65-28.576,12.051-45.816,12.246-54.157.027-1.177.05-2.179.1-3.012a.713.713,0,0,1,.32-.552c.379-.262,1.275-.873,12.519,2.737,7.772,2.5,11.176,4.6,11.317,4.691l.31.194-.091.355a170.046,170.046,0,0,0-3.34,20.089c-1.536,13.022.17,33.7.188,33.907Zm-60.08-1h59.01l-.96-14.287c-.017-.2-1.732-20.976-.183-34.1a180.5,180.5,0,0,1,3.274-19.853,60.3,60.3,0,0,0-10.785-4.407c-8.926-2.866-11.048-2.958-11.544-2.886-.042.783-.064,1.71-.088,2.784-.2,8.513-.611,26.227-12.794,55.665l-.473,1.142-.454-1.149c-16.939-42.809-10.821-53.37-8.209-57.88l.115-.2c-1.213.084-4.682.851-11.08,3.195a20.759,20.759,0,0,0-7.09,4.034l2.223,53.6Z" fill="#181818"/><path d="M252.156,123.142l-4.578,6.216,3.29,5.253-3.186,5.4s5.4,13.027,10.4,21.5,9.55,14.615,9.55,14.615-13.591-39.37-9.773-54.522l2.375-6.7A57.762,57.762,0,0,0,252.156,123.142Z" fill="#ffb067"/><path d="M269.171,179.048l-1.939-2.622c-.045-.062-4.614-6.26-9.577-14.656s-10.381-21.434-10.434-21.564l-.1-.23,3.158-5.357-3.309-5.284,4.789-6.5a58.918,58.918,0,0,1,8.159-8.316L261.3,113.4l-2.967,8.37c-3.725,14.789,9.639,53.8,9.774,54.192Zm-20.931-39a208.367,208.367,0,0,0,10.277,21.208c2.969,5.024,5.8,9.255,7.585,11.842-3.154-9.741-11.941-38.854-8.725-51.618l1.76-4.97a56.186,56.186,0,0,0-6.582,6.929l-4.372,5.937,3.27,5.223Z" fill="#181818"/><path d="M287.527,122.02l4.671,6.771-4.752,5.249,3.566,4.934s-5.527,13.1-10.534,21.568a77.965,77.965,0,0,1-12.843,15.587s13.824-37.431,13.282-54.522c-.154-4.87-3.176-6.7-3.176-6.7S283.917,117.4,287.527,122.02Z" fill="#ffb067"/><path d="M266.458,177.873l.708-1.917c.138-.374,13.784-37.536,13.251-54.333-.143-4.515-2.823-6.219-2.938-6.29l.449-.89c.257.1,6.343,2.6,9.992,7.269l.017.024,4.9,7.1-4.746,5.242,3.493,4.835-.109.259c-.056.131-5.6,13.223-10.564,21.627a79.117,79.117,0,0,1-12.938,15.7Zm13.509-61.316a9.8,9.8,0,0,1,1.45,5.035c.466,14.707-9.746,44.665-12.59,52.695a75.445,75.445,0,0,0,11.221-14,219.828,219.828,0,0,0,10.393-21.249l-3.637-5.034,4.758-5.256-4.439-6.433A23.926,23.926,0,0,0,279.967,116.557Z" fill="#181818"/><path d="M269.317,177.759c14.39-22.483,12.07-59.616,12.07-59.616H257.248S254.928,155.276,269.317,177.759Z" fill="#fff"/><path d="M269.317,178.316a.554.554,0,0,1-.468-.256c-14.323-22.377-12.18-59.579-12.157-59.952a.557.557,0,0,1,.556-.522h24.139a.556.556,0,0,1,.555.522c.024.373,2.166,37.575-12.156,59.952A.554.554,0,0,1,269.317,178.316ZM257.778,118.7c-.2,4.529-1.172,37.327,11.539,58.011,12.714-20.69,11.742-53.483,11.54-58.011Z" fill="#191919"/><path d="M279.976,129.358c-3.44-10.336-1.994-25.233-1.994-25.233h-17s.013,14.018-2.477,25.233Z" fill="#fff"/><path d="M279.977,129.915H258.5a.556.556,0,0,1-.544-.678c2.449-11.027,2.465-24.972,2.465-25.112a.555.555,0,0,1,.556-.557h17a.556.556,0,0,1,.555.611c-.015.148-1.393,14.9,1.969,25a.556.556,0,0,1-.528.733ZM259.194,128.8h20.021c-2.77-9.078-2.055-21.273-1.839-24.119H261.534C261.5,107.348,261.255,119.044,259.194,128.8Z" fill="#191919"/><path d="M257.711,121.463a47.735,47.735,0,0,1,2.906-5.82c-.3,2.878-.889,8.522,6,13.16.532.359-.873-.931-3.334,2.993a54.58,54.58,0,0,0-3.452,6.9A31.919,31.919,0,0,1,257.711,121.463Z" fill="#fff"/><path d="M259.835,139.254h0a.556.556,0,0,1-.516-.346,32.2,32.2,0,0,1-2.153-17.562l.039.008a44.865,44.865,0,0,1,3.028-6.138.564.564,0,0,1,.937.487c-.3,2.857-.865,8.178,5.762,12.638a.692.692,0,0,1,.327.719.582.582,0,0,1-.62.367c-.119-.017-1.17-.063-2.88,2.665a54.2,54.2,0,0,0-3.408,6.817A.558.558,0,0,1,259.835,139.254Zm-1.569-17.743a.548.548,0,0,1-.01.069,31.449,31.449,0,0,0,1.607,15.642,49.275,49.275,0,0,1,2.952-5.722,8.028,8.028,0,0,1,2.623-2.854c-4.71-3.549-5.541-7.6-5.539-10.554C259.187,119.49,258.386,121.13,258.266,121.511Z" fill="#191919"/><path d="M279.806,116.741a14.855,14.855,0,0,0-2.094-2.711c.569,1.093.079,5.7-2.461,8.505a30.025,30.025,0,0,1-8,6.268c-.539.265,2.4-.351,5.04,2.785a36.9,36.9,0,0,1,4.38,7.386C281.789,130.184,279.806,116.741,279.806,116.741Z" fill="#fff"/><path d="M276.667,139.532h-.031a.558.558,0,0,1-.479-.332,36.624,36.624,0,0,0-4.3-7.253,6.493,6.493,0,0,0-4.477-2.482c-.269-.032-.675-.08-.749-.516A.677.677,0,0,1,267,128.3a29.377,29.377,0,0,0,7.836-6.142c2.453-2.705,2.813-7.042,2.381-7.874a.589.589,0,0,1,.117-.7.574.574,0,0,1,.7-.04c.026.018,2.1,2.147,2.3,3.114l.023,0c.082.557,1.954,13.737-3.208,22.6A.557.557,0,0,1,276.667,139.532ZM268.786,128.6a7.89,7.89,0,0,1,3.926,2.629,33.929,33.929,0,0,1,3.993,6.509c4.242-8.383,2.62-20.411,2.552-20.9a11.405,11.405,0,0,0-.792-1.09,12.21,12.21,0,0,1-2.8,7.162A32.468,32.468,0,0,1,268.786,128.6Z" fill="#191919"/><path d="M270.3,182.857a2.8,2.8,0,1,1-2.8-2.8A2.8,2.8,0,0,1,270.3,182.857Z" fill="#191919"/><path d="M255.81,97.427c.841,2.525,2.606,6.909.276,7.685s-4.842-.194-7.088-5.086c-1.111-2.418-.163-5.631,2.166-6.407S254.969,94.9,255.81,97.427Z" fill="#fff"/><path d="M254.658,105.915c-2.371,0-4.439-1.9-6.166-5.656a5.872,5.872,0,0,1-.045-4.718,4.289,4.289,0,0,1,2.541-2.45c1.331-.444,3.8-.493,5.35,4.159l.246.723c.764,2.221,1.713,4.987.918,6.6a2.058,2.058,0,0,1-1.24,1.071A5.06,5.06,0,0,1,254.658,105.915Zm-2.557-11.9a2.428,2.428,0,0,0-.761.13,3.191,3.191,0,0,0-1.87,1.837,4.8,4.8,0,0,0,.034,3.81c1.855,4.041,3.953,5.606,6.406,4.789a.958.958,0,0,0,.593-.508c.59-1.193-.351-3.929-.973-5.74l-.249-.732h0C254.713,95.9,253.72,94.017,252.1,94.017Z" fill="#191919"/><path d="M281.39,97.427c-.841,2.525-2.606,6.909-.277,7.685s4.842-.194,7.089-5.086c1.111-2.418.163-5.631-2.166-6.407S282.231,94.9,281.39,97.427Z" fill="#fff"/><path d="M282.541,105.914a5.058,5.058,0,0,1-1.6-.274,2.058,2.058,0,0,1-1.239-1.071c-.795-1.608.154-4.372.916-6.592l.247-.726h0a8.218,8.218,0,0,1,1.908-3.368,3.247,3.247,0,0,1,3.442-.792,4.285,4.285,0,0,1,2.541,2.449,5.875,5.875,0,0,1-.044,4.719C286.98,104.02,284.911,105.914,282.541,105.914Zm-.623-8.311-.25.735c-.621,1.81-1.561,4.546-.971,5.738a.954.954,0,0,0,.592.507c2.464.822,4.552-.75,6.407-4.789a4.808,4.808,0,0,0,.033-3.811,3.189,3.189,0,0,0-1.87-1.836,2.143,2.143,0,0,0-2.319.541,7.259,7.259,0,0,0-1.622,2.915Z" fill="#191919"/><path d="M284.164,89.232c-.228,13.876-3.2,28.749-15.684,28.749-13.281,0-15.685-16.792-15.685-28.749s7.446-20.38,16.108-20.38S284.361,77.278,284.164,89.232Z" fill="#fff"/><path d="M267.347,118.5a.553.553,0,0,1-.081-.006c-13.924-2.011-14.7-21.822-14.706-22.023a.555.555,0,0,1,.539-.573.579.579,0,0,1,.574.539c.006.191.754,19.077,13.753,20.955a.557.557,0,0,1-.079,1.108Z" fill="#191919"/><path d="M269.414,118.538a.557.557,0,0,1-.079-1.108c12.991-1.877,13.416-20.8,13.419-20.989a.564.564,0,0,1,.564-.549.556.556,0,0,1,.549.565c0,.2-.439,20.063-14.372,22.075A.562.562,0,0,1,269.414,118.538Z" fill="#191919"/><path d="M276.777,97a1.418,1.418,0,1,1-1.413-1.541A1.481,1.481,0,0,1,276.777,97Z" fill="#191919"/><path d="M263.013,97a1.419,1.419,0,1,1-1.413-1.541A1.481,1.481,0,0,1,263.013,97Z" fill="#191919"/><path d="M257.974,93.577a.558.558,0,0,1-.357-.986c3.572-2.972,6.67-.693,6.7-.669a.557.557,0,1,1-.671.889c-.1-.078-2.445-1.755-5.317.637A.557.557,0,0,1,257.974,93.577Z" fill="#191919"/><path d="M278.874,93.577a.557.557,0,0,1-.356-.129c-2.9-2.415-5.292-.656-5.317-.638a.557.557,0,1,1-.672-.888c.031-.025,3.128-2.305,6.7.669a.557.557,0,0,1-.356.986Z" fill="#191919"/><path d="M268.507,105.672a.557.557,0,0,1-.557-.557v-.851a.556.556,0,1,1,1.113,0v.851A.556.556,0,0,1,268.507,105.672Z" fill="#191919"/><path d="M272.307,108.422c-4.039,6.618-7.651.041-7.651.041Z" fill="#fff"/><path d="M268.516,111.792h-.071c-2.44-.056-4.086-3-4.155-3.127a.418.418,0,0,1,.364-.62l7.652-.04h0a.417.417,0,0,1,.356.636C271.388,110.731,269.992,111.792,268.516,111.792Zm-3.092-2.916c.567.786,1.688,2.05,3.042,2.08,1.049.028,2.067-.686,3.067-2.112Z" fill="#191919"/><path d="M283.816,74.779c-1.861-2.569-3.969-4.88-7.946-6.012-5.722-1.629-11.887-1.33-14.892,3.061-2.484,0-4.711-.4-7.538,3.123-1.67,2.083-3.523,4.663-3.523,8.482,0,5.573,1.389,9.105,3.182,11.061.169.184.852-5.8,3.837-10.805,1.845-1.93,5.673-6.089,5.808-6.1,1.346,2.54,5.683,6.976,10.9,9.428,0,0,5.92,1.977,8.4,1.173,1.453,2.924,1.416,6.047,1.588,5.86,1.793-1.955,2.974-5.851,2.974-11.424C286.609,79.95,286.586,78.6,283.816,74.779Z" fill="#ffb067"/><path d="M252.946,95.06l-.216-.228c-1.511-1.65-3.313-4.967-3.313-11.4,0-3.935,1.875-6.6,3.634-8.795,2.715-3.387,5.031-3.348,7.243-3.316l.427.005c2.8-3.836,8.492-4.974,15.286-3.041a14.589,14.589,0,0,1,8.215,6.2c2.886,3.984,2.886,5.462,2.886,8.144,0,5.4-1.1,9.579-3.1,11.763l-.215.234-.321-.087c-.346-.109-.38-.367-.473-1.055a16.759,16.759,0,0,0-1.224-4.705c-2.777.542-8.053-1.205-8.288-1.284a28,28,0,0,1-10.854-9.108c-.633.646-1.872,1.968-2.916,3.083-.867.926-1.735,1.852-2.376,2.523a33.247,33.247,0,0,0-3.5,9.7c-.227,1.035-.262,1.194-.6,1.285Zm6.67-22.745c-1.9,0-3.625.255-5.786,2.949-1.726,2.153-3.413,4.558-3.413,8.169,0,5.257,1.228,8.281,2.457,9.991a33.921,33.921,0,0,1,3.633-9.991l.068-.09c.642-.672,1.526-1.614,2.408-2.557,3.447-3.678,3.447-3.678,3.736-3.693l.318-.016.149.281c1.23,2.32,5.352,6.711,10.668,9.21,1.549.514,6.13,1.767,8.039,1.15l.41-.133.191.386a16.336,16.336,0,0,1,1.426,4.9c1.417-2.164,2.188-5.74,2.188-10.242,0-2.554,0-3.836-2.7-7.557h0a13.685,13.685,0,0,0-7.678-5.824c-6.486-1.847-11.85-.777-14.341,2.863l-.15.218h-.263c-.236,0-.468,0-.7-.008S259.834,72.315,259.616,72.315Z" fill="#181818"/><path d="M263.592,82.892a.56.56,0,0,1-.446-.223,6.939,6.939,0,0,1-1.216-5.709.557.557,0,0,1,1.073.3A5.81,5.81,0,0,0,264.037,82a.558.558,0,0,1-.445.892Z" fill="#191919"/><path d="M282.116,88.98a.556.556,0,0,1-.536-.406c-1.212-4.329-5.425-6.488-5.467-6.51a.557.557,0,0,1,.5-1,12.584,12.584,0,0,1,6.041,7.205.558.558,0,0,1-.385.687A.565.565,0,0,1,282.116,88.98Z" fill="#191919"/><path d="M284.747,84.776a.558.558,0,0,1-.538-.414,7.87,7.87,0,0,0-3.022-4.5.557.557,0,0,1,.579-.952,8.84,8.84,0,0,1,3.519,5.165.557.557,0,0,1-.538.7Z" fill="#191919"/><path d="M262.466,77.668a.558.558,0,0,1-.557-.546,9.783,9.783,0,0,0-1.421-5.015.556.556,0,1,1,.912-.638,10.791,10.791,0,0,1,1.622,5.631.556.556,0,0,1-.545.568Z" fill="#191919"/><path d="M256.937,76.236a.557.557,0,0,1-.374-.97,7.368,7.368,0,0,1,5.555-1.545.556.556,0,0,1,.469.631.562.562,0,0,1-.632.471,6.342,6.342,0,0,0-4.645,1.27A.558.558,0,0,1,256.937,76.236Z" fill="#191919"/><path d="M262.314,76.236a.557.557,0,0,1-.371-.972A6.926,6.926,0,0,1,269.6,73.92a.557.557,0,0,1-.523.983h0a5.718,5.718,0,0,0-6.395,1.191A.556.556,0,0,1,262.314,76.236Z" fill="#191919"/><path d="M261.89,73.58a.556.556,0,0,1-.453-.881,6.338,6.338,0,0,1,5.815-2.7.557.557,0,0,1-.157,1.1,5.229,5.229,0,0,0-4.752,2.246A.557.557,0,0,1,261.89,73.58Z" fill="#191919"/><path d="M53.371,232.792l.3,12.9,265.058-.052.712-12.85Z" fill="#fff"/><path d="M319.441,232.792H53.371l59.02-49.935H335.836Z" fill="#fff"/><path d="M335.836,183.413h-228.4a.556.556,0,1,1,0-1.113h228.4a.556.556,0,1,1,0,1.113Z" fill="#191919"/><path d="M319.441,233.349H53.372a.557.557,0,1,1,0-1.114H319.441a.557.557,0,0,1,0,1.114Z" fill="#191919"/><path d="M319.441,246.25H53.372a.557.557,0,1,1,0-1.113H319.441a.557.557,0,1,1,0,1.113Z" fill="#191919"/><path d="M161.239,190.877l-.282,20.777h36l-6.242-20.848Z" fill="#fff"/><path d="M196.952,212.21H160.957a.557.557,0,0,1-.558-.564l.283-20.777a.556.556,0,0,1,.555-.549l29.471-.071h0a.557.557,0,0,1,.534.4l6.241,20.847a.557.557,0,0,1-.533.717ZM161.521,211.1H196.2l-5.909-19.734-28.507.07Z" fill="#191919"/><path d="M186.809,195.315H167.146a.557.557,0,1,1,0-1.113h19.663a.557.557,0,1,1,0,1.113Z" fill="#191919"/><path d="M182.589,201.077H167.38a.556.556,0,1,1,0-1.113h15.209a.556.556,0,1,1,0,1.113Z" fill="#191919"/><path d="M192.42,207.7H175.495a.556.556,0,1,1,0-1.113H192.42a.556.556,0,1,1,0,1.113Z" fill="#191919"/><path d="M203.569,170.9s-3.854-9.549-4.819-14.991c-.575-3.244,1.4-8.944,1.6-17.328.107-4.6-.593-8.792.135-8.883,2.909-.365,5.535,3.027,8.059,10.28l7.114,26.959Z" fill="#ffb067"/><path d="M203.28,171.522l-.175-.433c-.158-.393-3.884-9.661-4.847-15.092-.3-1.693.053-3.967.5-6.845a77.8,77.8,0,0,0,1.091-10.582c.043-1.835-.046-3.635-.117-5.082-.145-2.952-.205-4.173.69-4.285,3.211-.407,5.935,2.971,8.594,10.611l7.245,27.453Zm-2.568-41.342a19.255,19.255,0,0,0,.019,3.258c.072,1.463.162,3.285.118,5.156a79.013,79.013,0,0,1-1.1,10.712c-.434,2.786-.775,4.987-.5,6.517.828,4.673,3.86,12.532,4.617,14.456l11.194-3.669-6.994-26.5C205.712,133.365,203.2,130,200.712,130.18Z" fill="#181818"/><path d="M193.43,181.619c-.414-4.071-2.152-5.032-3.813-4.378-.986.388-2.059,2.787-1.191,6.786,1.4,6.433,2.489,6.888,3.462,6.705C193.1,190.5,193.844,185.691,193.43,181.619Z" fill="#ffb067"/><path d="M191.563,191.265c-1.322,0-2.383-1.412-3.626-7.131-.879-4.051.115-6.815,1.5-7.358a2.637,2.637,0,0,1,2.415.143c1.136.691,1.835,2.256,2.079,4.649h0c.332,3.272-.034,9.3-1.948,9.655A2.234,2.234,0,0,1,191.563,191.265Zm-1.019-13.712a2.045,2.045,0,0,0-.744.153c-.7.274-1.705,2.442-.885,6.215,1.432,6.592,2.445,6.395,2.88,6.319.648-.138,1.583-4.193,1.138-8.57-.2-2.008-.774-3.392-1.6-3.9A1.48,1.48,0,0,0,190.544,177.553Z" fill="#181818"/><path d="M214.249,180.582c-1.476,1.243-6.036,2.733-10.722,5.153a102.2,102.2,0,0,1-11.974,5.181s2.224-4.608,1.642-7.945a8.773,8.773,0,0,0-3.781-5.645l7.594-3.194,7.563-5.163,2.012-2.382,9.074.351C216.548,169.364,217.924,177.487,214.249,180.582Z" fill="#ffb067"/><path d="M190.672,191.593l.431-.894c.022-.045,2.146-4.506,1.6-7.642a8.339,8.339,0,0,0-3.544-5.3l-.846-.508,8.456-3.557,7.465-5.1,2.125-2.515,9.653.373.116.314c.927,2.522,2.344,10.914-1.556,14.2h0a24.1,24.1,0,0,1-4.923,2.49c-1.791.775-3.821,1.654-5.892,2.724a101.074,101.074,0,0,1-12.11,5.228Zm-.245-14.151a9.13,9.13,0,0,1,3.26,5.443c.435,2.494-.586,5.584-1.223,7.182A109.9,109.9,0,0,0,203.3,185.29c2.1-1.085,4.148-1.971,5.954-2.753a24.479,24.479,0,0,0,4.676-2.338h0c3.182-2.68,2.325-9.839,1.369-12.774l-8.488-.328-1.954,2.285-7.652,5.212Z" fill="#181818"/><path d="M195.589,183.777s-6.414,6.7-12.522,4.989c0,0-3.874-7.455-6.16-6.936a6.712,6.712,0,0,1,3.333-1.694c1.225-.189,3.462-1.049,6.547-1.623,3.72-.691,4.751-.884,4.751-.884Z" fill="#fff"/><path d="M185.159,189.6a8.284,8.284,0,0,1-2.243-.3.556.556,0,0,1-.344-.28c-1.768-3.4-4.4-6.894-5.541-6.649a.556.556,0,0,1-.517-.936,7.221,7.221,0,0,1,3.641-1.851,19.289,19.289,0,0,0,1.991-.506c1.212-.346,2.72-.776,4.539-1.115l4.752-.884a.565.565,0,0,1,.567.241l4.051,6.149a.56.56,0,0,1-.063.692C195.752,184.412,190.708,189.6,185.159,189.6Zm-1.714-1.315c4.909,1.183,10.111-3.342,11.427-4.589l-3.6-5.456-4.388.817c-1.767.329-3.247.751-4.437,1.09a19.769,19.769,0,0,1-2.126.537,5.591,5.591,0,0,0-2.152.861C180.352,182.707,182.71,186.9,183.445,188.289Z" fill="#191919"/><path d="M172.319,189.684c-.213-1.427.652-5.873,1.98-6.958.892-.73,5.564-1.948,5.564-1.948l.288,1.424a42.147,42.147,0,0,1-5.048,1.865c-.981.2-1.7,5.212-1.7,5.212S172.817,193.01,172.319,189.684Z" fill="#fff"/><path d="M172.792,191.639h0c-.682,0-.863-.841-1.014-1.855-.238-1.59.657-6.25,2.172-7.489a33.466,33.466,0,0,1,5.412-2.43.557.557,0,1,1,.386,1.045,32.3,32.3,0,0,0-5.092,2.247c-1.049.858-1.836,4.515-1.8,6.1l.007-.046c.353-2.455,1.012-5.44,2.14-5.673a41.847,41.847,0,0,0,4.939-1.829.556.556,0,1,1,.443,1.021,41.65,41.65,0,0,1-5.157,1.9c-.318.245-.936,2.473-1.263,4.746C173.632,191.459,173.186,191.639,172.792,191.639Z" fill="#191919"/><path d="M172.314,190.827c.486-2.049.741-4.659,1.365-5.629a14.23,14.23,0,0,1,3.808-2.967,16.11,16.11,0,0,1,3.437-.946v2.267a56.066,56.066,0,0,0-4.691,3.33c-.708.709-1.066,3.2-1.834,5.1-.638,1.578-1.606,1.777-1.606,1.777S171.538,194.1,172.314,190.827Z" fill="#fff"/><path d="M172.817,194.183a1.319,1.319,0,0,1-.373-.051.621.621,0,0,1-.124-.054c-.251-.148-1.033-.826-.547-3.339.1-.506.191-1.058.286-1.62a14.916,14.916,0,0,1,1.15-4.472,10.535,10.535,0,0,1,3.46-2.63,13.515,13.515,0,0,1,3.4-.894.557.557,0,0,1,.135,1.106,12.522,12.522,0,0,0-3.071.8,9.911,9.911,0,0,0-2.988,2.222,15.621,15.621,0,0,0-.988,4.055c-.1.569-.192,1.132-.291,1.644a3.46,3.46,0,0,0,.015,2.118c.264-.03.69-.31.993-1.243.216-.664.383-1.268.541-1.84a16.9,16.9,0,0,1,1.12-3.2c.764-1.531,4.681-2.877,5.458-3.131a.557.557,0,0,1,.347,1.059c-1.75.573-4.4,1.749-4.808,2.57a15.846,15.846,0,0,0-1.044,2.995c-.161.586-.332,1.206-.554,1.888C174.415,193.771,173.464,194.183,172.817,194.183Z" fill="#191919"/><path d="M174.565,191.634a11.635,11.635,0,0,1,1.053-5.5c.475-1.05,6.276-2.93,6.276-2.93l1.584,2.392s-4.128,1.294-5.249,2.247c-.928.789-1.337,2.042-1.157,4.084.271,3.075-1.517,2.793-1.517,2.793S175.035,194.593,174.565,191.634Z" fill="#fff"/><path d="M175.669,195.089a1.888,1.888,0,0,1-.46-.053.558.558,0,0,1-.2-.1c-.134-.107-.492-.389-.921-3.434a11.552,11.552,0,0,1,1.032-5.579c.52-1.15,4.227-2.482,5.8-3a.558.558,0,0,1,.35,1.059c-2.557.845-4.909,1.947-5.134,2.4a10.549,10.549,0,0,0-.942,4.965,15.342,15.342,0,0,0,.524,2.626.738.738,0,0,0,.449-.166,2.249,2.249,0,0,0,.362-1.815c-.191-2.162.238-3.609,1.351-4.556a16.366,16.366,0,0,1,4.324-1.989.557.557,0,0,1,.328,1.065,15.048,15.048,0,0,0-3.931,1.773c-.813.692-1.119,1.839-.963,3.61a3.1,3.1,0,0,1-.758,2.768A1.842,1.842,0,0,1,175.669,195.089Z" fill="#191919"/><path d="M177.552,193.685c-.4-1.742.39-4.35.678-5.286s5.563-2.732,5.563-2.732l.129,2.939a14.279,14.279,0,0,0-3.4,1.607,5.413,5.413,0,0,0-.994,3.54c-.012.844-1.073,1.17-1.073,1.17S177.884,195.11,177.552,193.685Z" fill="#fff"/><path d="M178.4,195.5a.984.984,0,0,1-.317-.053c-.53-.18-.909-.783-1.158-1.84-.417-1.773-.195-4.57.79-5.749.681-.814,3.809-2.134,4.429-2.39a.557.557,0,0,1,.426,1.029,18.425,18.425,0,0,0-4,2.076c-.663.794-.941,3.16-.56,4.778a2.338,2.338,0,0,0,.4,1.009.578.578,0,0,1,.15-.047c.119-.038.359-.307.329-1.049a4.563,4.563,0,0,1,.144-1.365l.054-.249a3.676,3.676,0,0,1,.646-1.65,2.3,2.3,0,0,1,1.319-.864c.157-.054.329-.112.514-.192.864-.368,2.164-.84,2.164-.84l.381,1.046s-1.268.461-2.109.82c-.212.09-.407.158-.587.22-.422.144-.613.217-.759.433a2.634,2.634,0,0,0-.478,1.255l-.059.269a3.464,3.464,0,0,0-.116,1.073c.062,1.583-.772,2.034-1.119,2.153A1.007,1.007,0,0,1,178.4,195.5Z" fill="#191919"/><path d="M215.657,167.5a.558.558,0,0,1-.539-.418l-6.43-24.848c-2.8-10.378-8.867-12.32-8.928-12.338a.558.558,0,0,1,.317-1.069c.272.081,6.707,2.089,9.689,13.122L216.2,166.8a.557.557,0,0,1-.4.679A.566.566,0,0,1,215.657,167.5Z" fill="#191919"/><path d="M191.549,191.472a.621.621,0,0,1-.465-.2c-.272-.323-.127-.631.191-1.306.993-2.108,3.632-7.705-1.817-12.443a.557.557,0,0,1,.153-.935l7.184-2.968,7.505-4.352a.557.557,0,1,1,.558.964l-7.57,4.385-6.449,2.668c4.777,4.733,2.807,10.15,1.714,12.572L213.97,180.1c4.435-3.2,1.656-11.232,1.627-11.313a.557.557,0,1,1,1.05-.371c.129.364,3.1,8.968-2.077,12.623a.478.478,0,0,1-.091.052l-22.7,10.334A.566.566,0,0,1,191.549,191.472Zm22.7-10.89h0Z" fill="#191919"/><path d="M202.967,169.922a.558.558,0,0,1-.517-.35c-1.985-4.938-4.695-13.709-4.721-13.8a.541.541,0,0,1-.022-.219c.02-.2,2.042-20.415,2.085-26.067a.557.557,0,0,1,.557-.553h.005a.557.557,0,0,1,.552.562c-.043,5.544-1.9,24.254-2.08,26.057.316,1.017,2.809,9,4.657,13.6a.556.556,0,0,1-.308.725A.57.57,0,0,1,202.967,169.922Z" fill="#191919"/><path d="M204.19,170.8a.557.557,0,0,1-.472-.852,8.5,8.5,0,0,1,5.785-3.429.557.557,0,1,1,.174,1.1,8.043,8.043,0,0,0-3.558,1.468,22.854,22.854,0,0,1,4.918-.727.544.544,0,0,1,.562.551.558.558,0,0,1-.551.563,23.5,23.5,0,0,0-6.675,1.295A.55.55,0,0,1,204.19,170.8Z" fill="#191919"/><path d="M147.164,171.285s3.853-9.55,4.818-14.992c.576-3.244-1.4-8.943-1.6-17.328-.107-4.6.592-8.791-.135-8.882-2.909-.365-5.536,3.026-8.059,10.279l-8.3,25.62Z" fill="#ffb067"/><path d="M147.441,171.935l-14.173-5.663,8.446-26.064c2.662-7.652,5.394-11.032,8.6-10.622.894.113.834,1.333.689,4.283-.071,1.447-.159,3.249-.116,5.085a77.816,77.816,0,0,0,1.091,10.582c.447,2.878.8,5.152.5,6.845-.963,5.431-4.689,14.7-4.848,15.092Zm-12.934-6.245,12.377,4.945c.776-1.973,3.782-9.779,4.606-14.428.271-1.53-.071-3.731-.5-6.518a78.978,78.978,0,0,1-1.1-10.712c-.044-1.872.046-3.693.117-5.157a19.164,19.164,0,0,0,.02-3.257c-2.536-.168-5,3.187-7.359,9.963Z" fill="#181818"/><path d="M150.964,186.9c2.167-3.472,5.615-4.089,7.129-3.143s.507,5.291-1.827,8.653c-4.2,6.05-7.222,5.358-7.552,4.424C148.118,195.149,148.8,190.37,150.964,186.9Z" fill="#ffb067"/><path d="M149.937,197.944a2.534,2.534,0,0,1-.35-.022,1.563,1.563,0,0,1-1.345-.923c-.7-1.974.154-6.931,2.3-10.365,2.367-3.792,6.125-4.361,7.818-3.3a2.04,2.04,0,0,1,.872,1.4c.4,1.915-.679,5.264-2.553,7.964C153.5,197.265,151.09,197.944,149.937,197.944Zm6.553-14.084a6.3,6.3,0,0,0-5.1,3.3c-2.06,3.3-2.746,7.967-2.2,9.5.028.079.2.221.536.266,1.243.184,3.5-1.009,6.134-4.808,1.705-2.456,2.734-5.548,2.4-7.192a1.1,1.1,0,0,0-.421-.752A2.572,2.572,0,0,0,156.49,183.86Z" fill="#181818"/><path d="M132.736,176.788c.776,1.767,3.815,5.494,6.955,9.732a84.829,84.829,0,0,0,9.023,10.07s1.05-5.755,3.043-8.494c2.264-3.109,6.627-4.543,6.627-4.543l-11.842-12.922-.756-3.024-11.2-4.026C132.637,168.954,130.8,172.39,132.736,176.788Z" fill="#ffb067"/><path d="M149.06,197.478l-.647-.489a84.617,84.617,0,0,1-9.124-10.171c-.846-1.142-1.685-2.248-2.474-3.287a46.33,46.33,0,0,1-4.537-6.542h0c-1.764-4.011-.567-7.183,1.09-11.575.241-.639.493-1.305.746-2l.17-.47,11.923,4.287.789,3.16,12.279,13.4-.734.242c-.042.015-4.241,1.425-6.379,4.363-1.9,2.613-2.946,8.232-2.956,8.289Zm-15.867-20.891a47.813,47.813,0,0,0,4.418,6.34c.792,1.042,1.633,2.15,2.482,3.3a85.411,85.411,0,0,0,8.31,9.389c.384-1.749,1.37-5.639,2.95-7.809a14.793,14.793,0,0,1,6.163-4.457l-11.428-12.47-.722-2.889-10.483-3.767c-.2.534-.391,1.049-.579,1.548-1.574,4.169-2.71,7.181-1.111,10.819Z" fill="#181818"/><path d="M176.891,193.486c-.3,1.464-3.232,1.8-6.03.765s-3.974-4.312-3.474-5.667,2.628.436,5.426,1.47c.827.3,1.5,1.659,2.1,1.968C176.334,192.759,177.094,192.489,176.891,193.486Z" fill="#fff"/><path d="M174.039,195.406a9.923,9.923,0,0,1-3.372-.633,6.128,6.128,0,0,1-3.274-2.978,4.541,4.541,0,0,1-.528-3.4,1.233,1.233,0,0,1,.7-.759c.755-.3,1.724.176,3.064.835a24.674,24.674,0,0,0,2.375,1.064,4.016,4.016,0,0,1,1.508,1.313,3.482,3.482,0,0,0,.655.684,7.359,7.359,0,0,0,1.1.45c.623.209,1.4.469,1.165,1.62a1.942,1.942,0,0,1-1.028,1.3A4.95,4.95,0,0,1,174.039,195.406Zm-5.95-6.757a.3.3,0,0,0-.11.017c-.03.013-.059.082-.069.111a3.563,3.563,0,0,0,.471,2.5,5.082,5.082,0,0,0,2.672,2.448c1.831.676,3.81.757,4.814.2a.863.863,0,0,0,.478-.554h0a.6.6,0,0,0,.02-.2c-.028,0-.261-.08-.448-.144a8.309,8.309,0,0,1-1.261-.516,3.721,3.721,0,0,1-1-.963,3.368,3.368,0,0,0-1.035-.978,26.03,26.03,0,0,1-2.481-1.109A7.61,7.61,0,0,0,168.089,188.649Z" fill="#191919"/><path d="M177.877,198.687l.57,3.448a.188.188,0,0,1-.3.157l-2.531-2.4Z" fill="#fff"/><path d="M178.259,202.729a.588.588,0,0,1-.348-.115l-2.568-2.427a.4.4,0,0,1,.086-.643l2.258-1.21a.4.4,0,0,1,.366-.006.4.4,0,0,1,.218.293l.571,3.448a.6.6,0,0,1-.309.592A.585.585,0,0,1,178.259,202.729Zm-1.964-2.742,1.653,1.565-.374-2.249Z" fill="#191919"/><rect width="1.482" height="3.611" rx="0.379" transform="translate(167.372 180.254) rotate(151.836)" fill="#fff"/><path d="M166.222,181.22a.8.8,0,0,1-.227-.034.774.774,0,0,1-.461-.378l-1.347-2.516a.778.778,0,0,1,.319-1.054l.639-.342a.78.78,0,0,1,1.054.32l1.346,2.515a.779.779,0,0,1-.318,1.054l-.639.342h0A.78.78,0,0,1,166.222,181.22Zm.177-.446h0Zm-.906-3.181-.609.35,1.345,2.469.62-.332Z" fill="#191919"/><rect width="2.763" height="22.402" rx="0.258" transform="translate(178.004 198.755) rotate(151.833)" fill="#fff"/><path d="M175.675,200.368a.659.659,0,0,1-.191-.028.652.652,0,0,1-.39-.319l-10.331-19.295a.66.66,0,0,1,.269-.891l1.982-1.061a.641.641,0,0,1,.5-.049.649.649,0,0,1,.39.319l10.331,19.295a.659.659,0,0,1-.269.89l-1.982,1.061A.65.65,0,0,1,175.675,200.368Zm-10.14-19.895,10.2,19.045,1.731-.926-10.2-19.045Z" fill="#191919"/><path d="M155.181,185.085l3.03.706a15.68,15.68,0,0,0,3.844-.009,11.79,11.79,0,0,1,5.544,2.164c1.752,1.327,5.187,4.307,7.469,6.151a10.952,10.952,0,0,1,1.942,2.3s.471,2.681-2.348.668l-8.314-4.758c3.523,1.559,7.859,4.44,9,6.123.853,1.257-.9,1.633-1.665,1.442l-10.276-5.234,4.42,2.319s2.019,1.1,3.651,1.845c1.251.569,1.315,3.079-1.62,2.341l-7.866-3.461c.036.426,7.739,2.652,4.975,4.91,0,0-.276.29-4.259-1-1.728-.56-8.744-3.807-10.761-6.743l-2-1.845.231-7.338Z" fill="#fff"/><path d="M166.824,203.19a17.52,17.52,0,0,1-4.287-1.066c-1.416-.46-8.762-3.712-11.011-6.9l-1.954-1.8a.556.556,0,0,1-.178-.427l.231-7.338a.558.558,0,0,1,.492-.536l5-.582a.639.639,0,0,1,.191.011l3.03.706a15.083,15.083,0,0,0,3.651-.019.525.525,0,0,1,.112,0,12.267,12.267,0,0,1,5.836,2.275c1.041.789,2.689,2.171,4.283,3.508,1.13.947,2.262,1.9,3.2,2.653a11.482,11.482,0,0,1,2.065,2.442.567.567,0,0,1,.076.2c.024.14.217,1.384-.582,1.888a1.348,1.348,0,0,1-1.04.138,1.271,1.271,0,0,1-.016,1.4,2.444,2.444,0,0,1-2.371.686.571.571,0,0,1-.119-.045l-.58-.3a1.745,1.745,0,0,1-.1.6c-.133.382-.748,1.583-3.032,1.01l-1.737-.763a1.752,1.752,0,0,1,.124.446,1.791,1.791,0,0,1-.789,1.656C167.254,203.1,167.168,203.19,166.824,203.19Zm-16.309-10.421,1.811,1.672a.553.553,0,0,1,.081.094c1.9,2.774,8.679,5.946,10.474,6.528a18.463,18.463,0,0,0,3.846,1c.311-.307.288-.484.279-.546-.128-.95-2.85-2.16-4.013-2.676-1.2-.531-1.518-.675-1.555-1.113a.557.557,0,0,1,.78-.555l7.865,3.462c.823.2,1.477.084,1.621-.328a.875.875,0,0,0-.455-1c-1.632-.745-3.6-1.818-3.687-1.863l-4.413-2.314a.557.557,0,0,1,.512-.989l10.212,5.2a1.438,1.438,0,0,0,1.134-.253c.044-.063-.037-.227-.119-.348a12.549,12.549,0,0,0-2.856-2.543l-5.961-3.408a.557.557,0,0,1,.5-.993,37.751,37.751,0,0,1,6.041,3.454l2.325,1.33c1.124.8,1.442.666,1.443.665a1.019,1.019,0,0,0,.093-.652,10.123,10.123,0,0,0-1.758-2.069c-.941-.759-2.078-1.714-3.214-2.666-1.583-1.327-3.22-2.7-4.24-3.472a11.336,11.336,0,0,0-5.2-2.048,15.678,15.678,0,0,1-3.96-.006l-2.951-.688-4.426.516Z" fill="#191919"/><path d="M134,166.2a.572.572,0,0,1-.172-.027.557.557,0,0,1-.358-.7l7.508-23.169c2.966-10.984,8.769-13.218,9.014-13.307a.557.557,0,0,1,.384,1.046c-.082.031-5.529,2.206-8.331,12.578l-7.516,23.195A.557.557,0,0,1,134,166.2Z" fill="#191919"/><path d="M148.483,197.156a.648.648,0,0,1-.419-.151L132.3,177.134c-2.158-3.907.53-10.155.645-10.419a.557.557,0,0,1,1.021.446c-.026.06-2.583,6.01-.741,9.359l15.012,18.922c.568-2.7,2.042-9.671,8.887-11.977l-9.951-11.849a.557.557,0,1,1,.853-.717l10.5,12.5a.557.557,0,0,1-.284.9c-6.9,1.829-8.361,8.771-8.912,11.386-.208.99-.278,1.323-.673,1.453A.574.574,0,0,1,148.483,197.156Z" fill="#191919"/><path d="M147.766,170.306a.559.559,0,0,1-.517-.766c1.845-4.59,4.33-12.547,4.655-13.595-.239-1.9-2.672-21.447-2.073-26.139a.557.557,0,0,1,1.106.141c-.6,4.689,2.061,25.766,2.088,25.978a.544.544,0,0,1-.021.234c-.026.088-2.736,8.858-4.722,13.8A.557.557,0,0,1,147.766,170.306Z" fill="#191919"/><path d="M146.542,171.188a.553.553,0,0,1-.183-.03,23.544,23.544,0,0,0-6.673-1.3.557.557,0,0,1-.552-.562.578.578,0,0,1,.562-.551,22.774,22.774,0,0,1,4.917.727,8.055,8.055,0,0,0-3.558-1.468.557.557,0,1,1,.175-1.1,8.5,8.5,0,0,1,5.785,3.43.556.556,0,0,1-.473.851Z" fill="#191919"/><path d="M306.643,148.735c-5.572-.959-9.063.88-9.239,2.721-.269,2.824,5.562,8.266,11.057,8.686,5.768.442,7.062-1.854,7.28-4.6C315.829,154.446,312.074,149.67,306.643,148.735Z" fill="#ffb067"/><path d="M309.8,160.7q-.656,0-1.379-.054c-3.906-.3-7.745-2.918-9.818-5.38a5.75,5.75,0,0,1-1.7-3.854,2.853,2.853,0,0,1,1.234-1.944c1.8-1.38,5.014-1.836,8.588-1.222h0c5.436.936,9.634,5.8,9.511,7.345C315.963,159.052,313.907,160.7,309.8,160.7Zm-6.073-11.722a8.433,8.433,0,0,0-4.983,1.284,1.926,1.926,0,0,0-.844,1.246,4.925,4.925,0,0,0,1.469,3.114c1.875,2.228,5.531,4.75,9.128,5.026,5.589.428,6.552-1.735,6.744-4.137.027-.789-3.5-5.387-8.685-6.279A16.711,16.711,0,0,0,303.729,148.974Z" fill="#181818"/><path d="M294.275,178.8c.08-10.211,3.239-12.3,3.053-26.972,0,0,6.976,8.373,10.8,8.574,1.991.1,7.609-4.858,7.609-4.858s-.729,2.068-1.769,9.478c-.985,7.021-.471,12.535-2.447,16.552,0,0-2.331,9.335-11.675,6.909C296.577,187.636,294.241,183.162,294.275,178.8Z" fill="#ffb067"/><path d="M302.807,189.39a12.3,12.3,0,0,1-3.082-.419c-3.374-.877-5.988-5.345-5.95-10.172a46.6,46.6,0,0,1,1.374-10.7,62.027,62.027,0,0,0,1.679-16.262l-.017-1.408.9,1.082c1.9,2.282,7.486,8.239,10.446,8.4h.046c1.343,0,5.117-2.889,7.206-4.735l1.431-1.263-.628,1.8c-.007.02-.732,2.152-1.745,9.383-.342,2.433-.5,4.736-.65,6.767-.275,3.859-.512,7.2-1.822,9.89a11.385,11.385,0,0,1-4.7,6.444A8.64,8.64,0,0,1,302.807,189.39ZM294.275,178.8l.5,0c-.034,4.316,2.3,8.442,5.2,9.195a8.66,8.66,0,0,0,6.8-.661,10.583,10.583,0,0,0,4.261-5.886l.037-.1c1.242-2.527,1.475-5.789,1.743-9.565.146-2.047.311-4.368.658-6.835.578-4.124,1.06-6.6,1.378-8-1.829,1.5-5.183,4.048-6.751,3.95-3.2-.168-8.231-5.44-10.269-7.725a62.75,62.75,0,0,1-1.71,15.133,45.733,45.733,0,0,0-1.351,10.5Z" fill="#181818"/><path d="M299.645,150.718c-.147,1.648,2.586,4.461,7.091,4.861s5.9-.6,6.418-1.679c.553-1.14-1.576-3.537-5.992-4.513C302.163,148.282,299.791,149.07,299.645,150.718Z" fill="#fff"/><path d="M308.6,156.227q-.881,0-1.917-.093a10.666,10.666,0,0,1-5.583-2.079c-1.356-1.059-2.109-2.325-2.014-3.387a2.155,2.155,0,0,1,.912-1.582c1.27-.932,3.787-1.015,7.28-.243,3.694.816,5.695,2.532,6.285,3.753a1.712,1.712,0,0,1,.087,1.548C312.974,155.549,311.352,156.227,308.6,156.227Zm-5.424-6.793a4.282,4.282,0,0,0-2.52.55,1.053,1.053,0,0,0-.461.783,3.379,3.379,0,0,0,1.59,2.41,9.548,9.548,0,0,0,5,1.847c4.992.444,5.651-.919,5.867-1.367a.722.722,0,0,0-.088-.576c-.52-1.075-2.429-2.467-5.522-3.15A18.192,18.192,0,0,0,303.18,149.434Z" fill="#191919"/><path d="M303.172,140.463s5.141-3.023,7.172-7.95c0,0,3.888-3.978,4.058.387,0,0-2.857,4.573-3.585,5.478l.593.007,6.391-3.853s6.176-6.179,8.827-5.955c0,0,.769-.05.608.824,0,0,2.154-.217,2.034,1.511l-1.416.875s-2.865,2.816-3.581,4.374l-1.326,4.505s-3.7,4.3-5.949,5.733l-5.906,4.332.432,4.025s-.223,1.5-4.219,1.147c-4.119-.365-5.934-2.382-5.934-2.382S300.182,144.484,303.172,140.463Z" fill="#fff"/><path d="M316.52,139.29a.557.557,0,0,1-.306-1.023,30.812,30.812,0,0,0,2.785-2.1.557.557,0,0,1,.727.845,31.316,31.316,0,0,1-2.9,2.186A.55.55,0,0,1,316.52,139.29Z" fill="#191919"/><path d="M305.483,145.671a.556.556,0,0,1-.318-1.014c1.128-.783,4.145-3.178,4.557-4.835a.557.557,0,0,1,1.082.268c-.588,2.363-4.554,5.17-5,5.482A.555.555,0,0,1,305.483,145.671Z" fill="#191919"/><path d="M324.453,131.828a.552.552,0,0,1-.186-.032.557.557,0,0,1-.339-.712,3.085,3.085,0,0,1,3.1-2.214.557.557,0,0,1-.107,1.109,1.951,1.951,0,0,0-1.946,1.479A.558.558,0,0,1,324.453,131.828Z" fill="#191919"/><path d="M311.6,153.53h-.007a.556.556,0,0,1-.55-.563l.035-2.678a.553.553,0,0,1,.23-.443l5.366-3.9c2-1.277,5.234-4.936,5.776-5.556l1.292-4.39c.779-1.706,3.6-4.5,3.724-4.613a.528.528,0,0,1,.1-.077l1.145-.707a.577.577,0,0,0-.175-.349,1.893,1.893,0,0,0-1.239-.3.557.557,0,0,1-.6-.655.389.389,0,0,0,.007-.181c-.028,0-.094.013-.114.013-1.742-.147-6.068,3.476-8.387,5.794a.505.505,0,0,1-.106.083l-6.9,4.125a.557.557,0,0,1-.7-.84,13.961,13.961,0,0,0,.79-1.234c.258-.428.555-.92.894-1.449.642-1,1.369-2.306,1.634-2.788-.206-.762-.508-1.223-.861-1.3-.677-.162-1.758.839-2.174,1.348-2.236,3.982-6.6,7.517-7.2,7.988a11.558,11.558,0,0,0-1.887,8.271.512.512,0,0,1,.011.118l-.012.737a.556.556,0,0,1-.556.549h-.009a.557.557,0,0,1-.548-.566l.011-.681a12.457,12.457,0,0,1,2.14-9.151.56.56,0,0,1,.1-.107c.047-.037,4.734-3.714,7.029-7.785.231-.293,1.8-2.164,3.344-1.806.841.2,1.427.984,1.742,2.34a.558.558,0,0,1-.052.391c-.039.072-.957,1.768-1.78,3.048-.176.277-.342.544-.5.8l4.839-2.918c.848-.843,6.416-6.319,9.22-6.068a1.135,1.135,0,0,1,.864.374,1.06,1.06,0,0,1,.236.451,2.488,2.488,0,0,1,1.532.61,1.813,1.813,0,0,1,.519,1.493.558.558,0,0,1-.263.436l-1.363.842a22.437,22.437,0,0,0-3.421,4.165l-1.3,4.431a.545.545,0,0,1-.112.206c-.153.178-3.783,4.381-6.071,5.839l-5.112,3.714-.033,2.4A.556.556,0,0,1,311.6,153.53Z" fill="#191919"/><path d="M321.813,133.08c.137-.83.464-3.819.464-3.819a1.346,1.346,0,0,1,2.213-.805c.012,1.362.057,5.964.057,5.964l-1.734,3.178-1.982-.754S321.7,133.793,321.813,133.08Z" fill="#fff"/><path d="M320.937,137.5l-.045,0a.558.558,0,0,1-.511-.6,11.829,11.829,0,0,1,.852-3.608,19.893,19.893,0,0,0,.594-3.973.631.631,0,0,1,.03-.142,2.086,2.086,0,0,1,1.3-1.443,2.144,2.144,0,0,1,1.774.38.557.557,0,0,1,.22.426c.044,1.368.1,6.36.1,6.36l-1.113.013s-.052-4.354-.094-6.031a.849.849,0,0,0-.572-.08c-.261.08-.437.4-.544.681a19.135,19.135,0,0,1-.712,4.328,10.89,10.89,0,0,0-.728,3.179A.558.558,0,0,1,320.937,137.5Z" fill="#191919"/><path d="M319.708,138.79a8.353,8.353,0,0,0,.323-2.135,3.642,3.642,0,0,1-.715-2.692,1.53,1.53,0,0,1,1.589-1.758c-.1,1.087,1.748,4.521,1.748,4.521l-.32,2.652-1.415,2.214-2.709-.55Z" fill="#fff"/><path d="M320.918,142.149a.558.558,0,0,1-.505-.792c.34-.734,1.031-1.968,1.238-2.334l.241-2.4a18.643,18.643,0,0,1-1.469-3.7,1.139,1.139,0,0,0-.426.325,1.061,1.061,0,0,0-.148.852.608.608,0,0,1,.007.121,3.889,3.889,0,0,0,.454,1.921.561.561,0,0,1,.079.291,24.4,24.4,0,0,1-.129,2.44.559.559,0,0,1-.1.253l-1.66,2.245a.557.557,0,0,1-.9-.662l1.574-2.128c.073-.639.094-1.634.1-2.007a5.057,5.057,0,0,1-.532-2.346,2.12,2.12,0,0,1,.376-1.662,2.65,2.65,0,0,1,1.737-.911.567.567,0,0,1,.445.161.558.558,0,0,1,.161.445,13.389,13.389,0,0,0,1.5,4,.565.565,0,0,1,.06.31l-.268,2.684a.572.572,0,0,1-.07.221c-.009.015-.88,1.546-1.256,2.355A.557.557,0,0,1,320.918,142.149Z" fill="#191919"/><path d="M312.239,160.9l.915-7s-3.3,1.974-5.283,1.945c-2.624-.037-8.2-4.874-8.2-4.874l-.829,5.845s2.527,4.322,7.09,4.661C310.666,161.83,312.239,160.9,312.239,160.9Z" fill="#fff"/><path d="M307.987,162.115c-.622,0-1.318-.024-2.1-.082-4.8-.357-7.421-4.75-7.53-4.936a.56.56,0,0,1-.071-.36l.829-5.844a.557.557,0,0,1,.917-.343c1.509,1.308,5.859,4.71,7.843,4.739,1.5-.009,4.106-1.341,4.989-1.867a.558.558,0,0,1,.838.551l-.915,7a.561.561,0,0,1-.27.408C312.373,161.471,311.17,162.115,307.987,162.115Zm-8.565-5.425c.5.752,2.821,3.955,6.551,4.232a14.432,14.432,0,0,0,5.754-.4l.732-5.6a11.8,11.8,0,0,1-4.548,1.486h-.048c-2.231-.032-6.093-2.98-7.782-4.36Zm12.816,4.214h0Z" fill="#191919"/><path d="M282.221,215.949h41.335l-4.016-26.158H285.11Z" fill="#fff"/><path d="M323.557,216.506H282.221a.557.557,0,0,1-.554-.618l2.89-26.159a.556.556,0,0,1,.553-.5h34.43a.558.558,0,0,1,.551.472l4.016,26.158a.557.557,0,0,1-.55.642Zm-40.714-1.113h40.064l-3.845-25.045H285.609Z" fill="#191919"/><path d="M314.638,195.279h-23.5a.557.557,0,1,1,0-1.113h23.5a.557.557,0,0,1,0,1.113Z" fill="#191919"/><path d="M312.664,200.342H294.232a.556.556,0,0,1,0-1.113h18.432a.556.556,0,1,1,0,1.113Z" fill="#191919"/><path d="M307.2,206.274H289.171a.557.557,0,1,1,0-1.113H307.2a.557.557,0,1,1,0,1.113Z" fill="#191919"/><path d="M315.1,211.495H291.608a.556.556,0,0,1,0-1.113H315.1a.556.556,0,0,1,0,1.113Z" fill="#191919"/><path d="M306.329,222.456H264.993l4.016-26.158h34.43Z" fill="#fff"/><path d="M306.328,223.013H264.993a.558.558,0,0,1-.551-.642l4.017-26.157a.556.556,0,0,1,.551-.472h34.429a.556.556,0,0,1,.554.495l2.889,26.158a.557.557,0,0,1-.554.618ZM265.643,221.9h40.063l-2.766-25.044H269.487Z" fill="#191919"/><path d="M297.41,201.786h-23.5a.556.556,0,1,1,0-1.113h23.5a.556.556,0,1,1,0,1.113Z" fill="#191919"/><path d="M294.316,206.849H275.885a.557.557,0,1,1,0-1.114h18.431a.557.557,0,0,1,0,1.114Z" fill="#191919"/><path d="M299.378,212.782H281.35a.556.556,0,1,1,0-1.113h18.028a.556.556,0,1,1,0,1.113Z" fill="#191919"/><path d="M296.941,218H273.448a.557.557,0,0,1,0-1.113h23.493a.557.557,0,1,1,0,1.113Z" fill="#191919"/><path d="M236.975,173.139s4.986-6.362,4.986-13.455c0-3.8-1.05-14.123-1.275-23.784-.124-5.3.682-10.13-.156-10.235-3.352-.42-6.378,3.487-9.285,11.844l-9.566,29.519Z" fill="#ffb067"/><path d="M237.138,173.742l-16.079-6.423,9.71-29.964c3.052-8.772,6.148-12.647,9.824-12.186.96.12.891,1.507.727,4.858-.082,1.669-.183,3.744-.134,5.861.126,5.444.517,11.121.832,15.683.248,3.6.443,6.443.443,8.113,0,7.183-4.884,13.5-5.092,13.763ZM222.3,166.737l14.5,5.794c.953-1.325,4.658-6.864,4.658-12.847,0-1.636-.194-4.463-.441-8.043-.315-4.573-.707-10.263-.834-15.729-.05-2.153.052-4.249.135-5.933a20.1,20.1,0,0,0,.006-3.833c-2.991-.241-5.825,3.522-8.61,11.528Z" fill="#181818"/><path d="M242.517,191.143c2.5-4,5.307-4.726,7.052-3.636s.583,6.1-2.106,9.971c-4.837,6.97-8.321,6.173-8.7,5.1C238.076,200.635,240.02,195.143,242.517,191.143Z" fill="#ffb067"/><path d="M240.174,203.781a2.84,2.84,0,0,1-.4-.026,1.724,1.724,0,0,1-1.487-1.014c-.778-2.2,1.338-7.914,3.8-11.863,2.86-4.582,5.957-4.909,7.74-3.8a2.286,2.286,0,0,1,.971,1.563c.45,2.187-.783,6.022-2.93,9.117C244.237,203,241.484,203.781,240.174,203.781Zm7.785-16.223c-1.452,0-3.3,1.1-5.018,3.849-2.538,4.067-4.3,9.31-3.708,11,.039.113.252.3.678.357,1.443.193,4.084-1.167,7.142-5.573,1.974-2.844,3.166-6.431,2.772-8.345a1.34,1.34,0,0,0-.52-.916A2.509,2.509,0,0,0,247.959,187.558Z" fill="#181818"/><path d="M220.351,179.48c.9,2.036,4.4,6.33,8.014,11.213a97.9,97.9,0,0,0,10.4,11.6s.536-7.234,2.832-10.389c2.608-3.583,8.311-4.632,8.311-4.632l-13.645-14.889-.871-3.485-12.907-4.639C220.238,170.454,218.123,174.412,220.351,179.48Z" fill="#ffb067"/><path d="M239.192,203.247l-.731-.552a97.091,97.091,0,0,1-10.5-11.7c-.978-1.318-1.945-2.594-2.857-3.794-2.535-3.339-4.537-5.976-5.213-7.516-2.02-4.593-.645-8.237,1.257-13.279.279-.737.569-1.5.861-2.31l.17-.47,13.626,4.9.9,3.621,14.17,15.461-.888.165c-.056.009-5.54,1.057-8,4.433-2.186,3-2.732,10.061-2.737,10.132ZM222.78,164.9c-.235.641-.468,1.258-.693,1.855-1.819,4.821-3.133,8.3-1.277,12.523h0c.628,1.432,2.7,4.159,5.094,7.315.913,1.2,1.884,2.481,2.863,3.8a99.527,99.527,0,0,0,9.6,10.838c.242-2.143.978-7.08,2.827-9.621,2.1-2.888,6.028-4.182,7.766-4.633L235.8,172.63l-.837-3.349Z" fill="#181818"/><path d="M268.19,197.1c-.343,1.687-3.724,2.073-6.949.882s-4.578-4.969-4-6.53,3.028.5,6.252,1.694c.952.351,1.733,1.912,2.419,2.268C267.548,196.267,268.423,195.955,268.19,197.1Z" fill="#fff"/><path d="M264.9,199.232a11.4,11.4,0,0,1-3.856-.723,6.984,6.984,0,0,1-3.728-3.393,5.228,5.228,0,0,1-.6-3.853,1.333,1.333,0,0,1,.761-.825c.832-.331,1.936.209,3.46.959a28.31,28.31,0,0,0,2.747,1.23,4.57,4.57,0,0,1,1.7,1.487,4.011,4.011,0,0,0,.781.81,8.419,8.419,0,0,0,1.281.521c.723.243,1.541.518,1.287,1.77h0a2.151,2.151,0,0,1-1.141,1.445A5.622,5.622,0,0,1,264.9,199.232Zm-6.862-7.784a.4.4,0,0,0-.152.025c-.02.007-.074.029-.128.176a4.186,4.186,0,0,0,.548,2.954,5.934,5.934,0,0,0,3.125,2.861c2.13.787,4.439.88,5.617.224a1.072,1.072,0,0,0,.592-.694h0a.608.608,0,0,0,.02-.267,2.986,2.986,0,0,0-.57-.224,9.413,9.413,0,0,1-1.44-.59,4.241,4.241,0,0,1-1.128-1.088,3.907,3.907,0,0,0-1.228-1.152,29.6,29.6,0,0,1-2.852-1.276A8.457,8.457,0,0,0,258.042,191.448Z" fill="#191919"/><path d="M254.763,208.2c4.3,1.623,4.659,1.155,4.659,1.155,2.767-1.64-1.5-3.412-1.539-3.9l5.488,2.318c2.043.312,2.917-1.093,2.412-1.821-1.18-1.7-5.336-3.292-5.336-3.292l-.659-.345,7.406,3.7c2.073.515,4.25-2.148-2.841-5.286l3.968,2.052c3.659,2.222,2.875-.964,2.875-.964s-12.491-12.984-17.4-12.04c-.478.092-7.246-.853-8.741-.5-2.224.521-3.857,5.731-4.579,7.015-1.2,2.139,3.06,5.439,4.579,6.658C249.172,206.253,251.056,206.8,254.763,208.2Z" fill="#fff"/><path d="M259.622,209.81a20.076,20.076,0,0,1-4.907-1.219c-1.779-.577-10.571-4.846-13.077-8.5a.557.557,0,1,1,.918-.631c2.214,3.223,10.648,7.465,12.5,8.065a20.1,20.1,0,0,0,4.491,1.16c.417-.4.384-.641.372-.727-.153-1.141-3.207-2.5-4.674-3.149-1.342-.6-1.7-.756-1.74-1.21a.556.556,0,0,1,.231-.5.562.562,0,0,1,.548-.056l9.064,3.988c1.022.249,1.8.1,1.98-.427a1.086,1.086,0,0,0-.569-1.255c-1.877-.854-4.219-2.129-4.242-2.142l-5.086-2.668a.557.557,0,0,1,.511-.989l11.779,6a1.757,1.757,0,0,0,1.4-.324c.084-.121-.028-.336-.137-.5a14.592,14.592,0,0,0-3.329-2.962l-6.857-3.922a.558.558,0,0,1,.5-.994,43.612,43.612,0,0,1,6.953,3.976l2.678,1.533c1.113.79,1.627.843,1.75.765s.181-.507.143-.853a11.711,11.711,0,0,0-2.053-2.418c-1.084-.876-2.391-1.972-3.7-3.068-1.828-1.532-3.718-3.117-4.894-4.009a13.141,13.141,0,0,0-6.046-2.377,18.053,18.053,0,0,1-4.547-.005.557.557,0,1,1,.222-1.091,17.528,17.528,0,0,0,4.251-.017.533.533,0,0,1,.113,0,14.047,14.047,0,0,1,6.678,2.6c1.2.909,3.1,2.5,4.939,4.044,1.3,1.09,2.6,2.183,3.682,3.054a13.028,13.028,0,0,1,2.36,2.793.564.564,0,0,1,.076.2c.027.157.242,1.539-.633,2.09a1.555,1.555,0,0,1-1.33.1,1.44,1.44,0,0,1,.09,1.7,2.726,2.726,0,0,1-2.642.756.571.571,0,0,1-.119-.045l-.8-.407a1.931,1.931,0,0,1-.1.808c-.149.422-.827,1.752-3.393,1.108l-2.2-.966a1.865,1.865,0,0,1-.644,2.526C260.086,209.713,260,209.81,259.622,209.81Z" fill="#191919"/><path d="M250.795,189.692s-7.783.594-9.372,10.488l-3.635-2.572V187.49l8.323-1.664Z" fill="#fff"/><path d="M241.423,200.737a.561.561,0,0,1-.322-.1l-3.635-2.573a.558.558,0,0,1-.235-.456V187.49a.558.558,0,0,1,.448-.546L246,185.28a.552.552,0,0,1,.464.116l4.683,3.866a.558.558,0,0,1-.31.985c-.3.024-7.37.7-8.866,10.022a.557.557,0,0,1-.334.425A.544.544,0,0,1,241.423,200.737Zm-3.078-3.418,2.688,1.9c1.476-7.1,6.242-9.229,8.506-9.845l-3.578-2.953-7.616,1.523Z" fill="#191919"/><path d="M221.806,167.2a.542.542,0,0,1-.172-.027.558.558,0,0,1-.359-.7l8.651-26.7c3.408-12.618,10.053-15.176,10.335-15.279a.557.557,0,0,1,.384,1.046c-.083.031-6.406,2.537-9.651,14.55l-8.658,26.722A.558.558,0,0,1,221.806,167.2Z" fill="#191919"/><path d="M238.44,202.853a.554.554,0,0,1-.436-.211l-18.089-22.817c-2.459-4.454.622-11.615.754-11.917a.557.557,0,1,1,1.021.446c-.03.069-2.993,6.961-.85,10.857l17.089,21.544c.259-3.508,1.811-11.816,10.592-13.63L237.05,173.467a.557.557,0,0,1,.853-.717L250,187.148a.558.558,0,0,1-.348.911c-11.132,1.6-10.676,13.695-10.651,14.21a.556.556,0,0,1-.36.548A.566.566,0,0,1,238.44,202.853Z" fill="#191919"/><path d="M237.788,172.926a.557.557,0,0,1-.444-.893c3.522-4.665,4.1-12.83,4.108-12.912-.083-1.076-2.026-28.226-1.319-33.764a.557.557,0,0,1,1.105.141c-.693,5.429,1.3,33.339,1.325,33.62-.022.425-.605,8.653-4.331,13.587A.554.554,0,0,1,237.788,172.926Z" fill="#191919"/><path d="M236.259,172.942a.549.549,0,0,1-.183-.03,27.275,27.275,0,0,0-7.717-1.5.557.557,0,0,1-.55-.562.547.547,0,0,1,.561-.551,26.592,26.592,0,0,1,6.043.937,9.319,9.319,0,0,0-4.462-1.96.555.555,0,0,1-.463-.636.561.561,0,0,1,.637-.463,9.7,9.7,0,0,1,6.606,3.912.556.556,0,0,1-.472.851Z" fill="#191919"/><path d="M120.135,172.142l2.011-10a7.962,7.962,0,0,0,6.022.449c3.575-.907,3.622-4.75,4.1-8.414a12.966,12.966,0,0,0,.049-3.574,12.611,12.611,0,0,0,2.073-2.365c.208-.626-2.559-6.259-2.559-6.259a7.54,7.54,0,0,1-.142-2.586,27.31,27.31,0,0,0-.093-6.331c-3.352-15.459-11.509-16.007-18-15.653-10.874.592-13.23,11.644-13.23,11.644-2.448,8.776,4.98,26.549,4.98,26.549s.931,1.462-1.923,5.642a51.083,51.083,0,0,0-4.563,8.346l10.613,1.151Z" fill="#fff"/><path d="M120.135,172.7a.608.608,0,0,1-.073,0L109.4,171.3l-10.6-1.15a.555.555,0,0,1-.455-.765,51.052,51.052,0,0,1,4.618-8.449c2.521-3.693,1.9-5.041,1.9-5.054-.336-.793-7.5-18.112-5.032-26.972.016-.081,2.566-11.443,13.737-12.052,7.749-.421,15.355,1.236,18.577,16.092a26.156,26.156,0,0,1,.1,6.483l-.006.111a6.85,6.85,0,0,0,.116,2.245c2.842,5.792,2.633,6.423,2.564,6.631a9.855,9.855,0,0,1-2.013,2.4,14.726,14.726,0,0,1-.085,3.437c-.051.386-.1.772-.143,1.157-.4,3.352-.809,6.819-4.378,7.724l-.134.034a8.413,8.413,0,0,1-5.615-.233l-1.875,9.318A.556.556,0,0,1,120.135,172.7Zm-20.459-3.577,9.861,1.068,10.154,1.332,1.91-9.488a.557.557,0,0,1,.789-.39,7.308,7.308,0,0,0,5.5.445l.137-.035c2.827-.717,3.16-3.525,3.546-6.775.046-.39.093-.782.144-1.172a12.674,12.674,0,0,0,.052-3.406.561.561,0,0,1,.169-.5,11.721,11.721,0,0,0,1.924-2.132,45,45,0,0,0-2.53-5.838.694.694,0,0,1-.037-.1,7.753,7.753,0,0,1-.168-2.658l.007-.11a27.742,27.742,0,0,0-.081-6.177c-3.2-14.742-10.671-15.582-17.427-15.216-10.31.561-12.623,10.771-12.716,11.205-2.376,8.521,4.875,26.041,4.949,26.217.144.212.936,1.9-1.977,6.172A51.446,51.446,0,0,0,99.676,169.122Z" fill="#191919"/><path d="M129.705,154.618h-.093a4.91,4.91,0,0,1-3.249-1.778.557.557,0,0,1,.868-.7,3.834,3.834,0,0,0,2.418,1.362,2.487,2.487,0,0,0,1.989-1.022.557.557,0,1,1,.827.747A3.7,3.7,0,0,1,129.705,154.618Z" fill="#191919"/><path d="M123.768,152.748a.557.557,0,0,1-.557-.54,2.9,2.9,0,0,1,.681-2.194,1.811,1.811,0,0,1,1.263-.566.558.558,0,0,1,0,1.115c-.152.006-.877.117-.832,1.612a.557.557,0,0,1-.54.573Z" fill="#191919"/><path d="M128.229,140.492a1.328,1.328,0,1,0,1.224-1.7A1.508,1.508,0,0,0,128.229,140.492Z" fill="#191919"/><path d="M125.15,137.725a.558.558,0,0,1-.472-.852,4.351,4.351,0,0,1,5.385-1.572.557.557,0,1,1-.4,1.038,3.219,3.219,0,0,0-4.036,1.123A.56.56,0,0,1,125.15,137.725Z" fill="#191919"/><path d="M92.672,126.86c1.644-4.334,1.948-9.671,10.691-11.208a18.913,18.913,0,0,1,6.283-3.229c12.214-2.764,16.166,4.719,19.888,5.493,3.531.734,4.837,7.171.328,9.218-1.3.589-5.649-1.54-7.131.047-.428.457-3.52,2.913-4.2,6.814a37.132,37.132,0,0,1-2.609,7.468,82.483,82.483,0,0,0-3.124,9.4c-1.135,4.594-7.65,6.621-7.65,6.621s-10.98-4.146-12.588-18.292C92.564,139.193,90.385,132.889,92.672,126.86Z" fill="#ffb067"/><path d="M105.137,158.013l-.161-.061c-.113-.042-11.257-4.406-12.9-18.649-.224-.676-2.107-6.72.132-12.62.238-.629.448-1.279.66-1.936,1.238-3.834,2.641-8.177,10.288-9.566a18.933,18.933,0,0,1,6.383-3.245c8.911-2.016,13.482,1.251,16.82,3.637a10.17,10.17,0,0,0,3.28,1.853,4.93,4.93,0,0,1,3.57,4.515,5.373,5.373,0,0,1-3.138,5.648,5.63,5.63,0,0,1-2.961-.153c-1.476-.295-3.314-.661-4.011.086-.055.059-.15.149-.277.267a11.57,11.57,0,0,0-3.792,6.292,30.01,30.01,0,0,1-2.147,6.4c-.176.414-.342.8-.491,1.169a82.508,82.508,0,0,0-3.1,9.332c-1.189,4.812-7.71,6.892-7.987,6.978Zm9.61-45.7a22.608,22.608,0,0,0-4.99.6,18.481,18.481,0,0,0-6.083,3.132l-.1.079-.125.023c-7.162,1.259-8.418,5.148-9.633,8.91-.217.672-.432,1.338-.677,1.982h0c-2.2,5.793-.124,11.931-.1,11.992l.024.107c1.448,12.739,10.773,17.234,12.11,17.814,1-.35,6.19-2.339,7.146-6.206a83.535,83.535,0,0,1,3.146-9.469c.15-.368.318-.764.5-1.183a29.17,29.17,0,0,0,2.083-6.182,12.688,12.688,0,0,1,4.094-6.851c.1-.1.184-.171.229-.22,1.077-1.153,3.127-.744,4.937-.384a5.99,5.99,0,0,0,2.353.223,4.331,4.331,0,0,0,2.557-4.627,4,4,0,0,0-2.78-3.646,10.712,10.712,0,0,1-3.658-2.019C123.285,114.607,120.077,112.314,114.747,112.314Z" fill="#181818"/><path d="M101.928,155.675a.558.558,0,0,1-.189-1.082,6.711,6.711,0,0,0,3.567-3.685.557.557,0,1,1,1.047.381,7.776,7.776,0,0,1-4.236,4.353A.566.566,0,0,1,101.928,155.675Z" fill="#191919"/><path d="M99.643,154.328a.557.557,0,0,1-.189-1.081,4.046,4.046,0,0,0,2.83-2.681.562.562,0,0,1,.651-.441.556.556,0,0,1,.444.645,5.1,5.1,0,0,1-3.546,3.524A.553.553,0,0,1,99.643,154.328Z" fill="#191919"/><path d="M122.731,127.738a.557.557,0,0,1-.317-1.015c.746-.517,2.728-2.157,2.938-3.526a.558.558,0,0,1,1.1.17c-.328,2.123-3.281,4.185-3.407,4.272A.551.551,0,0,1,122.731,127.738Z" fill="#191919"/><path d="M97.1,134.851a.677.677,0,0,1-.077-.005.558.558,0,0,1-.476-.628c.848-6.182,7.684-10.45,7.975-10.629a.558.558,0,0,1,.584.95c-.067.041-6.68,4.174-7.455,9.831A.557.557,0,0,1,97.1,134.851Z" fill="#191919"/><path d="M102.923,138.655a.557.557,0,0,1-.335-1,17.865,17.865,0,0,0,4.6-5.47.557.557,0,0,1,1,.5,18.654,18.654,0,0,1-4.93,5.863A.551.551,0,0,1,102.923,138.655Z" fill="#191919"/><path d="M109.492,145.426c.726,3.236,3.109,4.788,5.119,4.336s3.048-3.377,2.322-6.612-3.085-5.743-5.116-5.4C108,138.4,108.766,142.19,109.492,145.426Z" fill="#fff"/><path d="M114.221,150.995a3.777,3.777,0,0,1-2.419-.97c-2.256-1.869-3.557-5.857-3.6-7.9a5.712,5.712,0,0,1,1.467-4.108,3.035,3.035,0,0,1,2.727-.78c2.82.614,4.973,5.242,5.063,5.439a.557.557,0,1,1-1.012.465c-.552-1.2-2.4-4.4-4.288-4.815a1.952,1.952,0,0,0-1.762.535,4.669,4.669,0,0,0-1.081,3.243c.034,1.873,1.265,5.465,3.192,7.061a2.523,2.523,0,0,0,2.066.683.557.557,0,0,1,.188,1.1A3.372,3.372,0,0,1,114.221,150.995Z" fill="#191919"/><path d="M123.247,163.15a.558.558,0,0,1-.183-.031,11.959,11.959,0,0,1-4.9-3.416.557.557,0,0,1,.873-.691,11,11,0,0,0,4.391,3.055.557.557,0,0,1-.184,1.083Z" fill="#191919"/><path d="M83.422,171.878s-13.538,2.784-15.574,23.071a24.8,24.8,0,0,1-.533,7.159c-1.813,8.78-5.5,23.182-4.752,28.735.383,2.85.472,5.173,4.073,7.049,3.863,2.013,10.81-1.253,10.81-1.253Z" fill="#ffb067"/><path d="M69.759,239.049a7.242,7.242,0,0,1-3.354-.713c-3.618-1.885-3.921-4.222-4.272-6.927l-.065-.5c-.607-4.517,1.565-14.343,3.481-23.011.467-2.114.91-4.118,1.277-5.892a24.6,24.6,0,0,0,.525-7l-.006-.054,0-.054c2.049-20.417,15.832-23.482,15.971-23.511l.661-.136-6.065,65.719-.258.121A21.638,21.638,0,0,1,69.759,239.049Zm-1.408-44.1a25.533,25.533,0,0,1-.546,7.262c-.367,1.777-.811,3.786-1.28,5.9-1.8,8.162-4.049,18.321-3.466,22.662l.066.5c.341,2.627.587,4.525,3.742,6.169,3.2,1.664,8.838-.6,10.108-1.147l5.882-63.741C80.153,173.457,70.079,177.918,68.351,194.947Z" fill="#181818"/><path d="M135.521,250.5a65.93,65.93,0,0,1-.483-8.068c-.06-11.286-1.11-24.867.289-39.339,1.575-16.295,5.513-24.943,2.828-25.544-3.061-.686-4.935-2.6-7.129-3.836-2.9-1.634-14.169-4.582-24.624-5.389a58.4,58.4,0,0,0-16.47,1.457,93.191,93.191,0,0,0-10.13,3.17s-10.379,5.5-8.55,77.549Z" fill="#ffb067"/><path d="M136.1,251H70.765l-.013-.487c-1.816-71.538,8.382-77.774,8.817-78a92.731,92.731,0,0,1,10.25-3.216,58.353,58.353,0,0,1,16.621-1.468c10.561.815,21.94,3.82,24.831,5.451.689.388,1.354.847,2,1.289a14,14,0,0,0,5,2.494c1.985.446,1.4,3.35.231,9.136a158.33,158.33,0,0,0-2.672,16.945c-1.014,10.495-.734,20.625-.486,29.562.1,3.417.184,6.644.2,9.726a65.538,65.538,0,0,0,.477,7.995ZM71.74,250h63.205a71.756,71.756,0,0,1-.407-7.566c-.016-3.071-.1-6.292-.2-9.7-.248-8.966-.529-19.13.491-29.686A159.091,159.091,0,0,1,137.515,186c.906-4.488,1.561-7.731.531-7.961A14.846,14.846,0,0,1,132.7,175.4c-.654-.451-1.272-.876-1.922-1.243-2.815-1.588-13.988-4.521-24.417-5.326a57.412,57.412,0,0,0-16.318,1.446,93.428,93.428,0,0,0-10.064,3.15C79.947,173.451,70.015,180.212,71.74,250Z" fill="#181818"/><path d="M92.458,169.188l8.017-5.607s18.152-.167,23.121,4.791l5.233,4.425S105.38,165.689,92.458,169.188Z" fill="#ffb067"/><path d="M131,173.978l-2.315-.7c-.233-.07-23.463-7.025-36.1-3.6l-2.763.749,10.489-7.338h.155c.745.008,18.42-.111,23.479,4.938Zm-29.844-6.268c9.778,0,20.9,2.7,25.582,3.974l-3.465-2.93c-4.556-4.544-20.874-4.673-22.64-4.673l-5.862,4.1A39.626,39.626,0,0,1,101.156,167.71Z" fill="#181818"/><path d="M158.2,228.258c0-4.289-2.232-9.507-5.079-11.723-1.435-7.806-3.261-16.731-3.261-16.731-.433-3.737-.031-6.529-.825-9.143-4.526-14.9-14.751-13.5-14.751-13.5l-1.079,15.186,1.422,31.181,4.509,12.221c1.8,4.177,6.753,4.927,9.8,4.158a8.2,8.2,0,0,0,4.8-2.783A11.113,11.113,0,0,0,158.2,228.258Z" fill="#ffb067"/><path d="M146.7,240.67c-2.908,0-6.477-1.149-8.021-4.72l-4.55-12.4-1.422-31.182,1.108-15.648.4-.055c.108-.013,10.7-1.288,15.3,13.847a19.4,19.4,0,0,1,.6,5.174c.036,1.266.074,2.576.246,4.057.011.046,1.807,8.836,3.222,16.514,2.884,2.362,5.121,7.58,5.121,12a11.565,11.565,0,0,1-4.614,9.231,8.78,8.78,0,0,1-5.026,2.906A9.879,9.879,0,0,1,146.7,240.67Zm-11.575-17.239,4.482,12.148c1.749,4.045,6.58,4.508,9.21,3.847a7.832,7.832,0,0,0,4.522-2.6l.106-.1a10.545,10.545,0,0,0,4.257-8.463c0-4.15-2.192-9.231-4.886-11.328l-.15-.117-.035-.187c-1.418-7.712-3.24-16.632-3.258-16.721-.184-1.567-.224-2.959-.26-4.186a18.657,18.657,0,0,0-.554-4.912c-3.889-12.807-11.9-13.264-13.8-13.179l-1.048,14.757Z" fill="#181818"/><path d="M163.53,223.7c0,2.25-4.7,6.364-7.52,6.364s-4.017-3.859-4.017-6.11-.713-10.476,2.107-10.476c.35,0,2.455-.833,3.868-.647,1.235.163,1.3.938,1.765,1.107,1.509.551,1.974,3.349,2.413,4.57a27.266,27.266,0,0,1,1.1,2.678A8.39,8.39,0,0,1,163.53,223.7Z" fill="#fff"/><path d="M156.01,230.616c-3.12,0-4.574-3.977-4.574-6.666,0-.3-.013-.722-.029-1.215-.117-3.679-.122-7.73,1.32-9.219a1.878,1.878,0,0,1,1.373-.6c.081-.011.28-.072.542-.146a9.365,9.365,0,0,1,3.4-.5,2.418,2.418,0,0,1,1.709.951,1.337,1.337,0,0,0,.177.187c1.467.535,2.051,2.559,2.476,4.036.1.331.181.63.267.867s.214.512.354.811a11.947,11.947,0,0,1,.755,1.908,8.646,8.646,0,0,1,.309,2.53v.131C164.087,226.348,159.1,230.616,156.01,230.616Zm1.512-17.259a10.521,10.521,0,0,0-2.579.488,3.565,3.565,0,0,1-.843.186.761.761,0,0,0-.573.26c-1.235,1.274-1.081,6.093-1.006,8.409.016.506.029.936.029,1.25,0,1.937,1.015,5.553,3.46,5.553,2.592,0,6.963-3.959,6.963-5.808v-.137a7.58,7.58,0,0,0-.268-2.227,11.12,11.12,0,0,0-.691-1.732c-.156-.334-.3-.637-.393-.907s-.186-.579-.289-.935c-.34-1.178-.853-2.957-1.791-3.3a1.526,1.526,0,0,1-.641-.511,1.339,1.339,0,0,0-1.005-.566A2.813,2.813,0,0,0,157.522,213.357Z" fill="#191919"/><path d="M154.914,232.889a.516.516,0,0,1-.128-.016.556.556,0,0,1-.415-.669c1.522-6.491-1.736-15.386-1.769-15.475a.557.557,0,1,1,1.044-.388c.14.377,3.409,9.3,1.81,16.117A.559.559,0,0,1,154.914,232.889Z" fill="#191919"/><path d="M135.038,251.061a.557.557,0,0,1-.554-.5c-1.015-10.428.363-49.808.377-50.2,1.393-15.336,3.655-22.1,3.751-22.379a.557.557,0,1,1,1.055.359c-.023.067-2.317,6.941-3.7,22.09-.012.364-1.387,39.671-.38,50.026a.558.558,0,0,1-.5.609A.488.488,0,0,1,135.038,251.061Z" fill="#191919"/><path d="M71.251,251.061a.558.558,0,0,1-.556-.538c-2.105-58.569,4.212-73.579,8.164-77.313a3.548,3.548,0,0,1,2.113-1.116,61.857,61.857,0,0,1,8.834-2.852,58.653,58.653,0,0,1,16.638-1.47c10.57.816,21.959,3.827,24.855,5.459,1.506.85,2.982,1.632,4.692,2.539.764.4,1.567.831,2.427,1.292a.557.557,0,0,1-.526.982c-.859-.46-1.661-.886-2.423-1.29-1.717-.91-3.2-1.695-4.717-2.552-2.81-1.585-13.972-4.514-24.394-5.318a57.369,57.369,0,0,0-16.3,1.444,60.633,60.633,0,0,0-8.75,2.833.5.5,0,0,1-.27.042c.015,0-.626,0-1.578.977-3.014,3.082-9.795,16.686-7.652,76.3a.557.557,0,0,1-.537.577Z" fill="#191919"/><path d="M100.475,164.485l2.291-2.847s9.433-3.556,19.449,3.444l-.433,3.44S109.195,163.9,100.475,164.485Z" fill="#fff"/><path d="M121.783,169.079a.561.561,0,0,1-.193-.034c-.124-.046-12.578-4.582-21.078-4.005a.542.542,0,0,1-.532-.3.556.556,0,0,1,.061-.606l2.292-2.847a.557.557,0,0,1,.237-.172c.4-.148,9.824-3.577,19.965,3.509a.558.558,0,0,1,.233.526l-.433,3.441a.556.556,0,0,1-.552.487Zm-19.688-5.2c7.469,0,16.681,3.009,19.221,3.891l.305-2.417a21.881,21.881,0,0,0-18.521-3.237l-1.422,1.766Q101.885,163.875,102.1,163.875Z" fill="#191919"/><path d="M90.292,249.259a.558.558,0,0,1-.557-.53,225.269,225.269,0,0,1,8.893-72.421.557.557,0,1,1,1.058.349,224.032,224.032,0,0,0-8.837,72.019.559.559,0,0,1-.531.583Z" fill="#191919"/><path d="M217.615,168.644s-8.459,1.567-10.5,21.854a24.749,24.749,0,0,1-.533,7.158c-1.813,8.781-4.392,20.2-3.646,25.749.383,2.85.747,7.5,4.21,8.926,8.506,3.506,10.608-3.381,10.608-3.381l1.382-9.425Z" fill="#ffb067"/><path d="M211.576,233.828a12.235,12.235,0,0,1-4.615-1.035c-3.5-1.443-4.065-5.831-4.439-8.734l-.076-.587c-.689-5.126,1.342-14.851,3.135-23.43l.518-2.487a24.576,24.576,0,0,0,.524-7l-.006-.054.006-.054c2.05-20.426,10.54-22.229,10.9-22.3l.574-.106,1.544,51.465-1.387,9.511a6.856,6.856,0,0,1-6.678,4.806ZM207.623,190.5a25.494,25.494,0,0,1-.546,7.262l-.517,2.488c-1.688,8.08-3.789,18.137-3.123,23.093l.078.593c.364,2.834.862,6.714,3.827,7.937,2.728,1.124,5.04,1.26,6.866.4a6.281,6.281,0,0,0,3.073-3.468l1.365-9.35-1.511-50.115C215.252,170.16,209.286,174.038,207.623,190.5Z" fill="#181818"/><path d="M233.858,137.122c.808,2.426,2.5,6.639.266,7.384s-4.24-.192-6.4-4.892c-1.067-2.324-.569-5.4,1.669-6.151S233.05,134.7,233.858,137.122Z" fill="#fff"/><path d="M232.818,145.293c-2.129,0-3.9-1.745-5.6-5.447a6.142,6.142,0,0,1-.17-4.853,3.58,3.58,0,0,1,2.169-2.058,3.14,3.14,0,0,1,3.33.766,7.934,7.934,0,0,1,1.838,3.245h0l.238.7c.733,2.137,1.646,4.8.878,6.349a2,2,0,0,1-1.2,1.04A4.688,4.688,0,0,1,232.818,145.293Zm-2.5-11.431a2.373,2.373,0,0,0-.746.13,2.516,2.516,0,0,0-1.5,1.445,5.07,5.07,0,0,0,.159,3.944c2.283,4.97,4.173,5.112,5.717,4.6a.9.9,0,0,0,.557-.477c.561-1.136-.338-3.758-.934-5.493l-.241-.71a6.962,6.962,0,0,0-1.553-2.793A2.069,2.069,0,0,0,230.316,133.862Z" fill="#191919"/><path d="M258.438,137.087c-.808,2.426-2.5,6.639-.266,7.384s3.919-.1,6.078-4.8c1.067-2.324.89-5.5-1.348-6.242S259.246,134.661,258.438,137.087Z" fill="#fff"/><path d="M259.478,145.264A4.7,4.7,0,0,1,258,145a2,2,0,0,1-1.2-1.04c-.769-1.553.144-4.212.878-6.349l.238-.7h0c1.495-4.489,3.881-4.439,5.168-4.011a3.228,3.228,0,0,1,1.968,1.852,6.655,6.655,0,0,1-.289,5.15C263.049,143.62,261.479,145.264,259.478,145.264Zm-.512-8-.241.71c-.6,1.735-1.5,4.357-.934,5.493a.9.9,0,0,0,.557.477c1.519.5,3.077.541,5.4-4.5a5.594,5.594,0,0,0,.279-4.243,2.12,2.12,0,0,0-1.3-1.238c-1.976-.655-3.136,1.435-3.76,3.306Z" fill="#191919"/><path d="M261.1,129.248c-.22,13.333-3.081,27.624-15.071,27.624-12.761,0-15.072-16.135-15.072-27.624s7.155-19.583,15.479-19.583S261.293,117.761,261.1,129.248Z" fill="#fff"/><path d="M246.032,157.429c-10.077,0-15.627-10.008-15.627-28.181,0-11.293,7.043-20.14,16.034-20.14a13.316,13.316,0,0,1,9.639,4.17c3.653,3.715,5.689,9.539,5.582,15.979C261.353,147.951,256.1,157.429,246.032,157.429Zm.407-47.207c-8.366,0-14.92,8.357-14.92,19.026,0,10.109,1.885,27.067,14.513,27.067,9.335,0,14.218-9.11,14.515-27.076.1-6.143-1.818-11.676-5.264-15.179A12.223,12.223,0,0,0,246.439,110.222Z" fill="#191919"/><path d="M215.921,252.662h61.6l-1.33-31.553,2.144-51.745s-17.166-6.59-18.592-7.182c-5.267-2.185-19.366-1.606-25.3.639-1.444.546-17.435,6.223-17.435,6.223l1.737,51.3Z" fill="#ffb067"/><path d="M278.043,253.162H215.375l2.872-32.863L216.5,168.7l.345-.123c.159-.056,16-5.68,17.426-6.219,5.876-2.222,20.142-2.925,25.668-.633,1.4.584,18.408,7.112,18.579,7.177l.336.129-2.159,52.1Zm-61.576-1H277l-1.309-31.032L277.82,169.7c-2.471-.949-16.946-6.509-18.269-7.058-5.241-2.175-19.333-1.473-24.931.644-1.332.5-14.7,5.254-17.1,6.105l1.725,50.933Z" fill="#181818"/><path d="M262.78,163.668a128.511,128.511,0,0,0-14.93-1.264c-6.241,0-17.408,1.858-17.408,1.858l4.461-5.09s3.5-3.248,12.947-3.248,10.492,2.171,10.492,2.171Z" fill="#ffb067"/><path d="M229.143,164.984l5.384-6.142c.185-.175,3.793-3.418,13.323-3.418,8.909,0,10.629,1.944,10.906,2.387l5.2,6.534-1.25-.182A128.742,128.742,0,0,0,247.85,162.9c-6.127,0-17.215,1.832-17.327,1.851Zm18.707-8.56c-9.087,0-12.574,3.085-12.608,3.116l-3.513,4.012A130.956,130.956,0,0,1,247.85,161.9a121.053,121.053,0,0,1,13.763,1.1l-3.72-4.692h0S256.6,156.424,247.85,156.424Z" fill="#181818"/><path d="M238.435,160.388h16.64a88.856,88.856,0,0,0-1.691-11.648s.882-1.265-6.639-1.265-7.691,1.436-7.691,1.436S238.911,153.8,238.435,160.388Z" fill="#fff"/><path d="M238.3,156.191a.522.522,0,0,1-.16-.024.555.555,0,0,1-.373-.693l1.065-3.551a.556.556,0,0,1,1.066.32l-1.065,3.551A.556.556,0,0,1,238.3,156.191Z" fill="#191919"/><path d="M254.92,155.565a.557.557,0,0,1-.52-.357l-1.33-3.461a.557.557,0,1,1,1.039-.4l1.33,3.461a.555.555,0,0,1-.319.719A.545.545,0,0,1,254.92,155.565Z" fill="#191919"/><path d="M215.9,253.527a.354.354,0,0,1-.046,0,.555.555,0,0,1-.509-.6l2.564-31.284-1.925-52.577a.558.558,0,0,1,.371-.545c.16-.057,16-5.681,17.423-6.219,5.784-2.189,19.136-3.677,24.667-1.382,1.4.582,20.471,7.853,20.663,7.926a.555.555,0,0,1,.358.554l-3.187,51.745,1.75,30.592a.554.554,0,0,1-.523.588h-.032a.556.556,0,0,1-.556-.524l-1.75-30.66,3.161-51.4c-2.793-1.065-18.989-7.243-20.311-7.792-4.952-2.053-17.631-.957-23.845,1.395-1.325.5-14.56,5.2-17.061,6.09l1.909,52.234-2.567,31.351A.554.554,0,0,1,215.9,253.527Z" fill="#191919"/><path d="M258.342,159.525a74.257,74.257,0,0,0-11.125-1.106,74.278,74.278,0,0,0-11.126,1.106l1.919-4.926s1.584-1.385,9.207-1.385,8.872,1.385,8.872,1.385Z" fill="#fff"/><path d="M258.343,160.082a.563.563,0,0,1-.1-.009,74.373,74.373,0,0,0-11.026-1.1,74.392,74.392,0,0,0-11.026,1.1.557.557,0,0,1-.619-.75l1.918-4.926a.544.544,0,0,1,.153-.216c.178-.157,1.961-1.524,9.574-1.524,7.491,0,9.05,1.308,9.286,1.57a.557.557,0,0,1,.093.141l2.254,4.926a.558.558,0,0,1-.507.788Zm-19.878-5.115-1.5,3.846a71.846,71.846,0,0,1,10.25-.951,71.423,71.423,0,0,1,10.182.941l-1.765-3.86c-.278-.184-2.051-1.172-8.417-1.172C241,153.771,238.915,154.712,238.465,154.967Z" fill="#191919"/><path d="M248.682,253.527h-.042a.557.557,0,0,1-.515-.6c2.09-28.3-.084-81.527-.106-82.061a.557.557,0,0,1,.533-.58.574.574,0,0,1,.58.533c.022.535,2.2,53.822.1,82.19A.555.555,0,0,1,248.682,253.527Z" fill="#191919"/><path d="M264.594,124.185c0-4.8-2.286-9.516-4.769-10.166-.3-2.818-4.4-6.716-9.913-5.369a11.5,11.5,0,0,0-7.255-2.1c-5.727,0-10.444,4.257-11.147,7.951-2.274,1.5-4.127,5.719-4.127,9.86a11.488,11.488,0,0,0,2.886,8.121c.369,6.871,1.912,14.364,7.133,17.185a31.532,31.532,0,0,0,8.883,1.092,24.526,24.526,0,0,0,8.263-1.092c4.946-2.673,6.168-9.542,6.464-16.1.024.056.044.089.056.076C262.765,131.838,264.594,129.338,264.594,124.185Z" fill="#ffb067"/><path d="M246.285,151.264a31.751,31.751,0,0,1-9.038-1.117c-4.524-2.436-6.941-8.138-7.468-17.465a12.028,12.028,0,0,1-2.9-8.316c0-4.126,1.784-8.437,4.179-10.158.88-3.9,5.776-8.153,11.6-8.153a12.369,12.369,0,0,1,7.376,2.054,9.074,9.074,0,0,1,7.264,1.382,7.056,7.056,0,0,1,2.976,4.148c2.6,1,4.821,5.785,4.821,10.547,0,5.14-1.808,7.811-3.6,9.734-.279,5.641-1.321,13.279-6.71,16.192C254.617,150.183,251.831,151.264,246.285,151.264Zm-8.646-2.033a32.426,32.426,0,0,0,8.646,1.033,24.506,24.506,0,0,0,8.08-1.057c4.993-2.7,5.9-10.233,6.148-15.659l.1-2.141.591,1.346c1.567-1.816,2.895-4.2,2.895-8.567,0-4.884-2.321-9.141-4.4-9.684l-.333-.087-.037-.343a5.905,5.905,0,0,0-2.605-3.763,8.1,8.1,0,0,0-6.693-1.173l-.242.059-.192-.157c-2-1.64-4.879-1.983-6.939-1.983-5.433,0-9.976,3.976-10.656,7.545l-.04.207-.176.116c-2.188,1.441-3.9,5.589-3.9,9.443a10.96,10.96,0,0,0,2.766,7.795l.111.129.009.17c.479,8.924,2.791,14.567,6.87,16.772Z" fill="#181818"/><path d="M247.469,112.431c-.023,0-.044,0-.067,0a.557.557,0,0,1-.376-.215c-2.272-2.969-7.59-1.735-7.644-1.722a.557.557,0,0,1-.261-1.083c.235-.057,5.6-1.309,8.441,1.715.847-.56,2.752-1.594,4.444-.864a.557.557,0,1,1-.442,1.022c-1.57-.676-3.725,1.01-3.746,1.027A.555.555,0,0,1,247.469,112.431Z" fill="#191919"/><path d="M245.045,120.965a.555.555,0,0,1-.491-.295,6.747,6.747,0,0,1,1.06-8.153.557.557,0,0,1,.75.823,5.556,5.556,0,0,0-.828,6.806.556.556,0,0,1-.491.819Z" fill="#191919"/><path d="M295.294,222.031c0-4.289-1.75-9.507-3.982-11.723-1.125-7.806-2.556-16.731-2.556-16.731-.34-3.737-.125-6.507-.647-9.143-2.577-13.034-9.2-15.07-9.2-15.07L277.753,188.1l-1.983,32.286.818,10.139c1.415,4.177,6.683,4.36,9.073,3.591,1.437-.463,4.114-.964,5.064-2.554C292.684,229.763,295.294,225.79,295.294,222.031Z" fill="#ffb067"/><path d="M283.136,234.968c-2.694,0-5.92-1.036-7.022-4.287l-.024-.12-.818-10.139,3.174-51.722.607.187c.282.086,6.942,2.275,9.547,15.451a31.028,31.028,0,0,1,.427,5.022c.043,1.3.087,2.64.227,4.172.01.055,1.421,8.86,2.53,16.543,2.259,2.36,4.011,7.56,4.011,11.956,0,4.041-2.779,8.078-4.681,9.848-.915,1.448-2.989,2.041-4.51,2.475-.288.083-.555.159-.79.234A9,9,0,0,1,283.136,234.968Zm-6.055-4.551c1.322,3.763,6.132,3.955,8.427,3.22.244-.079.522-.158.822-.244,1.382-.4,3.274-.936,3.966-2.091l.091-.112c1.7-1.562,4.408-5.43,4.408-9.159,0-4.17-1.721-9.269-3.835-11.368l-.118-.117-.025-.166c-1.111-7.713-2.541-16.635-2.555-16.724-.146-1.594-.193-3.011-.235-4.262a30.2,30.2,0,0,0-.408-4.863c-2.023-10.233-6.61-13.536-8.259-14.414l-3.09,50.295Z" fill="#181818"/><path d="M296.388,218.8c0,2.251-3.685,6.364-5.9,6.364s-3.149-3.859-3.149-6.11-.559-10.475,1.652-10.475c.274,0,1.925-.833,3.032-.647.969.162,1.022.938,1.384,1.106,1.183.551,1.548,3.35,1.892,4.57.192.683.624,1.593.859,2.679A10.6,10.6,0,0,1,296.388,218.8Z" fill="#fff"/><path d="M290.492,225.722c-2.8,0-3.705-4.492-3.705-6.666,0-.307-.011-.726-.023-1.22-.1-4.014-.092-8.041,1.186-9.353a1.445,1.445,0,0,1,1.045-.46c.028-.012.171-.068.355-.133a6.088,6.088,0,0,1,2.769-.507,2.012,2.012,0,0,1,1.437,1,1.536,1.536,0,0,0,.125.174c1.158.533,1.6,2.471,1.948,4.029.075.333.142.635.21.873s.17.517.28.817a13.926,13.926,0,0,1,.587,1.9,10.858,10.858,0,0,1,.24,2.5v.129C296.945,221.453,292.965,225.722,290.492,225.722Zm1.183-17.26a6.555,6.555,0,0,0-1.948.476,2.4,2.4,0,0,1-.732.2.322.322,0,0,0-.247.124c-1.058,1.085-.927,6.314-.87,8.548.012.5.022.933.022,1.247,0,2.318.987,5.552,2.592,5.552,1.847,0,5.34-3.8,5.34-5.807v-.134a9.708,9.708,0,0,0-.214-2.261,13.033,13.033,0,0,0-.545-1.747c-.122-.331-.231-.632-.306-.9s-.145-.575-.225-.931c-.25-1.107-.67-2.962-1.366-3.286a1.372,1.372,0,0,1-.548-.544.919.919,0,0,0-.692-.518A1.666,1.666,0,0,0,291.675,208.462Z" fill="#191919"/><path d="M291.933,226.661a.579.579,0,0,1-.1-.01.555.555,0,0,1-.447-.648c1.2-6.549-.6-15.493-.617-15.582a.557.557,0,0,1,1.091-.225c.077.375,1.865,9.244.621,16.008A.556.556,0,0,1,291.933,226.661Z" fill="#191919"/><path d="M162.258,121.978c.688,2.206,3.046,8.1,6.132,8.691-.612-1.66-1.531-2.071-.661-3.45,6.631-10.508-1.137-19.864-2.327-18.882A14.12,14.12,0,0,0,162.258,121.978Z" fill="#ffb067"/><path d="M169.165,131.326l-.869-.166c-3.888-.742-6.41-8.7-6.516-9.034h0a14.52,14.52,0,0,1,3.3-14.174c.312-.256.889-.38,1.873.486,2.662,2.342,6.659,10.391,1.2,19.047-.452.718-.313.973.1,1.73a9.161,9.161,0,0,1,.606,1.281Zm-6.43-9.5c.713,2.286,2.484,6.417,4.641,7.868v0a2.263,2.263,0,0,1-.068-2.743,14.747,14.747,0,0,0,.873-15.228c-1.057-1.969-2.174-2.868-2.517-2.952a13.7,13.7,0,0,0-2.928,13.057Z" fill="#181818"/><path d="M166.208,116.557a.556.556,0,0,1-.467-.253c-1.818-2.791.374-6.111.468-6.25a.557.557,0,1,1,.924.621c-.018.028-1.872,2.852-.459,5.021a.556.556,0,0,1-.466.861Z" fill="#191919"/><path d="M168.152,103.174c.629,2.393,1.058,7.24-1.195,7.8s-4.563-.5-6.364-5.182c-.891-2.313.216-5.223,2.468-5.784A4.187,4.187,0,0,1,168.152,103.174Z" fill="#fff"/><path d="M165.863,111.674c-2.392,0-4.336-1.9-5.79-5.68a5.4,5.4,0,0,1,.252-4.373,4.064,4.064,0,0,1,2.6-2.152,4.728,4.728,0,0,1,5.763,3.563h0c.447,1.7.988,5.421-.16,7.358a2.3,2.3,0,0,1-1.438,1.126A5.037,5.037,0,0,1,165.863,111.674Zm-1.777-11.235a3.664,3.664,0,0,0-.89.111,2.973,2.973,0,0,0-1.883,1.585,4.34,4.34,0,0,0-.2,3.459c1.481,3.846,3.348,5.427,5.71,4.841a1.208,1.208,0,0,0,.749-.612c.884-1.493.494-4.784.041-6.508h0A3.68,3.68,0,0,0,164.086,100.439Z" fill="#191919"/><path d="M191.844,116.557a.557.557,0,0,1-.419-.924c1.663-1.9,0-4.415-.074-4.521a.557.557,0,0,1,.921-.627c.779,1.141,1.779,3.839-.009,5.882A.554.554,0,0,1,191.844,116.557Z" fill="#191919"/><path d="M193.619,92.124s2.832,26.51-11.8,30.387c0,0-10.028,1.572-14.533-11.4,0,0-3.042-10.037-2.8-18.772.131-4.781,2.168-14.31,15.366-13.919C185.883,78.6,192.07,82.459,193.619,92.124Z" fill="#fff"/><path d="M182.072,115.738a4.39,4.39,0,0,1-2.942-1.25.557.557,0,0,1,.783-.793,2.841,2.841,0,0,0,4.156,0,.557.557,0,0,1,.783.792A3.89,3.89,0,0,1,182.072,115.738Z" fill="#191919"/><path d="M172.367,119.8a.555.555,0,0,1-.353-.127,17.285,17.285,0,0,1-5.54-9.995.557.557,0,1,1,1.1-.158c.008.058.877,5.777,5.146,9.293a.557.557,0,0,1-.355.987Z" fill="#191919"/><path d="M180.515,123.165a11.827,11.827,0,0,1-6.178-1.948.557.557,0,1,1,.581-.951c7.88,4.813,12.191-1.561,12.371-1.835.1-.127,5.421-6.2,5.743-17.432a.526.526,0,0,1,.572-.541.557.557,0,0,1,.541.573c-.333,11.661-5.746,17.82-5.976,18.076A9.809,9.809,0,0,1,180.515,123.165Z" fill="#191919"/><path d="M174.029,103.155a1.5,1.5,0,1,0,1.461-1.745A1.621,1.621,0,0,0,174.029,103.155Z" fill="#191919"/><path d="M186.789,103.155a1.5,1.5,0,1,0,1.46-1.745A1.62,1.62,0,0,0,186.789,103.155Z" fill="#191919"/><path d="M190.706,100.045a.555.555,0,0,1-.427-.2,3.014,3.014,0,0,0-4.125-.526.557.557,0,1,1-.651-.9,4.069,4.069,0,0,1,5.629.714.558.558,0,0,1-.426.915Z" fill="#191919"/><path d="M171.15,100.563a.557.557,0,0,1-.394-.95c1.189-1.19,4.077-2.952,6.491-1.113a.557.557,0,1,1-.676.886c-2.24-1.706-4.915.9-5.028,1.015A.555.555,0,0,1,171.15,100.563Z" fill="#191919"/><path d="M183.721,110.922a.557.557,0,0,1-.321-1.013l.387-.271-.779-2.071a.557.557,0,1,1,1.043-.393l.931,2.475a.559.559,0,0,1-.2.653l-.74.519A.556.556,0,0,1,183.721,110.922Z" fill="#191919"/><path d="M169.012,78.121c-11.547,8.278-5.135,21.757-5.135,21.757,3.564,1.141,9.787-5.5,12.938-13.656,4.6,8.95,13.915,12.526,17.168,13.722,0,0,4.484-15.8-7.038-22.692A16.608,16.608,0,0,0,169.012,78.121Z" fill="#ffb067"/><path d="M194.317,100.6l-.506-.186c-7.97-2.931-13.66-7.308-16.93-13.021-3.394,8.038-9.5,14.136-13.156,12.962l-.206-.065-.093-.2c-.066-.138-6.456-13.954,5.295-22.378a17.1,17.1,0,0,1,18.481-.892c11.715,7.009,7.308,23.1,7.262,23.258Zm-30.082-1.142c3.251.7,9.173-5.807,12.114-13.415l.4-1.04.51.992c2.986,5.816,8.493,10.284,16.372,13.284.63-2.771,2.943-15.682-6.944-21.6a16.08,16.08,0,0,0-17.384.846l-.291-.406.291.406C158.87,86.007,163.464,97.7,164.235,99.457Z" fill="#181818"/><path d="M164.665,100.563a3.3,3.3,0,0,1-1.016-.153.559.559,0,0,1-.333-.292c-.066-.139-6.476-14,5.313-22.449a16.954,16.954,0,0,1,5.508-2.609.557.557,0,0,1,.288,1.076,15.811,15.811,0,0,0-5.146,2.439c-10.347,7.416-5.862,18.994-5.061,20.833,3.223.649,9.094-5.821,12.019-13.386a.555.555,0,0,1,.491-.355.562.562,0,0,1,.524.3c4.251,8.279,12.412,11.274,15.96,12.559.7-2.756,3.162-14.95-6.611-20.8a16.034,16.034,0,0,0-9.728-2.048.557.557,0,1,1-.118-1.108,17.171,17.171,0,0,1,10.418,2.2c11.764,7.038,6.995,22.5,6.946,22.652a.557.557,0,0,1-.723.353l-.5-.183c-3.489-1.264-11.469-4.154-16.064-12.078C173.946,94.235,168.606,100.563,164.665,100.563Z" fill="#191919"/><path d="M193.589,99.064h-.023a.557.557,0,0,1-.534-.579,21.657,21.657,0,0,0-2.795-11.559.557.557,0,0,1,.936-.605,22.376,22.376,0,0,1,2.972,12.209A.557.557,0,0,1,193.589,99.064Z" fill="#191919"/><path d="M189.255,93.477a.557.557,0,0,1-.542-.433,7.354,7.354,0,0,0-2.41-3.38.557.557,0,0,1,.683-.881,8.41,8.41,0,0,1,2.813,4.012.556.556,0,0,1-.419.667A.54.54,0,0,1,189.255,93.477Z" fill="#191919"/><path d="M163.877,100.436a.558.558,0,0,1-.544-.437c-1.495-6.764,3.351-11.789,3.558-12a.557.557,0,0,1,.795.781c-.046.047-4.627,4.815-3.265,10.977a.556.556,0,0,1-.423.664A.562.562,0,0,1,163.877,100.436Z" fill="#191919"/></g></svg>