<svg xmlns="http://www.w3.org/2000/svg" width="267.183" height="215.94" viewBox="0 0 267.183 215.94"><g transform="translate(-66.408 -49.792)"><rect width="14.356" height="5.873" transform="translate(82.26 113.584)" fill="#191919"/><path d="M96.617,119.861H82.261a.4.4,0,0,1-.4-.4v-5.874a.4.4,0,0,1,.4-.4H96.617a.4.4,0,0,1,.4.4v5.874A.4.4,0,0,1,96.617,119.861Zm-13.951-.809H96.212v-5.064H82.666Z" fill="#191919"/><rect width="5.541" height="107.567" transform="translate(85.031 221.15) rotate(180)" fill="#fff"/><path d="M85.031,221.555a.4.4,0,0,1-.4-.4V113.988H79.895V221.15a.4.4,0,0,1-.81,0V113.583a.405.405,0,0,1,.4-.4h5.541a.405.405,0,0,1,.4.4V221.15A.405.405,0,0,1,85.031,221.555Z" fill="#191919"/><rect width="244.321" height="5.585" transform="translate(85.031 184.461)" fill="#fff"/><path d="M329.352,190.45H85.031a.4.4,0,0,1-.4-.4v-5.585a.4.4,0,0,1,.4-.4H329.352a.4.4,0,0,1,.4.4v5.585A.4.4,0,0,1,329.352,190.45Zm-243.916-.808H328.947v-4.777H85.436Z" fill="#191919"/><rect width="14.356" height="5.873" transform="translate(333.187 119.456) rotate(180)" fill="#191919"/><path d="M333.187,119.861H318.831a.4.4,0,0,1-.4-.4v-5.874a.4.4,0,0,1,.4-.4h14.356a.4.4,0,0,1,.4.4v5.874A.4.4,0,0,1,333.187,119.861Zm-13.952-.809h13.547v-5.064H319.235Z" fill="#191919"/><rect width="5.541" height="107.567" transform="translate(333.187 221.15) rotate(180)" fill="#fff"/><path d="M333.187,221.555a.4.4,0,0,1-.4-.4V113.988h-4.731V221.15a.4.4,0,1,1-.809,0V113.583a.4.4,0,0,1,.4-.4h5.541a.4.4,0,0,1,.4.4V221.15A.4.4,0,0,1,333.187,221.555Z" fill="#191919"/><rect width="20.976" height="7.717" transform="translate(145.073 176.744)" fill="#64d3a5"/><path d="M166.549,184.961H144.573v-8.717h21.976Zm-20.976-1h19.976v-6.717H145.573Z" fill="#231815"/><ellipse cx="5.953" cy="1.022" rx="5.953" ry="1.022" transform="translate(149.608 179.58)" fill="#fff"/><path d="M155.561,182.029c-1.491,0-6.358-.1-6.358-1.426s4.867-1.427,6.358-1.427,6.357.1,6.357,1.427S157.052,182.029,155.561,182.029Zm-5.4-1.426a16.856,16.856,0,0,0,5.4.618,16.856,16.856,0,0,0,5.4-.618,16.813,16.813,0,0,0-5.4-.619A16.813,16.813,0,0,0,150.165,180.6Zm10.978.113h0Z" fill="#191919"/><rect width="232.365" height="120.944" transform="translate(91.541 50.197)" fill="#fff"/><path d="M323.906,171.545H91.541a.4.4,0,0,1-.4-.4V50.2a.4.4,0,0,1,.4-.4H323.906a.4.4,0,0,1,.4.4V171.141A.4.4,0,0,1,323.906,171.545Zm-231.96-.809H323.5V50.6H91.946Z" fill="#191919"/><rect width="222.214" height="111.894" transform="translate(96.369 54.87)" fill="#fff"/><path d="M318.583,167.169H96.37a.4.4,0,0,1-.405-.4V54.87a.4.4,0,0,1,.405-.4H318.583a.4.4,0,0,1,.4.4v111.9A.4.4,0,0,1,318.583,167.169ZM96.774,166.36h221.4V55.275H96.774Z" fill="#191919"/><rect width="21.273" height="3.809" transform="translate(173.503 180.652)" fill="#191919"/><path d="M194.775,184.865H173.5a.4.4,0,0,1-.4-.4v-3.809a.4.4,0,0,1,.4-.4h21.273a.4.4,0,0,1,.4.4v3.809A.4.4,0,0,1,194.775,184.865Zm-20.868-.808H194.37v-3H173.907Z" fill="#191919"/><rect width="10.884" height="3.809" transform="translate(181.962 180.652)" fill="#fff"/><path d="M192.846,184.865H181.962a.4.4,0,0,1-.4-.4v-3.809a.4.4,0,0,1,.4-.4h10.884a.4.4,0,0,1,.4.4v3.809A.4.4,0,0,1,192.846,184.865Zm-10.479-.808h10.074v-3H182.367Z" fill="#191919"/><rect width="21.272" height="3.809" transform="translate(198.142 180.652)" fill="#64d3a5"/><path d="M219.914,184.961H197.642v-4.809h22.272Zm-21.272-1h20.272v-2.809H198.642Z" fill="#231815"/><rect width="10.884" height="3.809" transform="translate(206.601 180.652)" fill="#fff"/><path d="M217.484,184.865H206.6a.4.4,0,0,1-.4-.4v-3.809a.4.4,0,0,1,.4-.4h10.882a.4.4,0,0,1,.405.4v3.809A.4.4,0,0,1,217.484,184.865Zm-10.478-.808H217.08v-3H207.006Z" fill="#191919"/><rect width="8.993" height="50.098" transform="translate(151.357 86.912)" fill="#64d3a5"/><path d="M160.85,137.511h-9.993v-51.1h9.993Zm-8.993-1h7.993v-49.1h-7.993Z" fill="#231815"/><rect width="8.993" height="39.952" transform="translate(164.269 97.058)" fill="#64d3a5"/><path d="M173.762,137.511h-9.993V96.558h9.993Zm-8.993-1h7.993V97.558h-7.993Z" fill="#231815"/><rect width="8.993" height="28.877" transform="translate(177.573 108.133)" fill="#64d3a5"/><path d="M187.065,137.511h-9.992V107.633h9.992Zm-8.992-1h7.992V108.633h-7.992Z" fill="#231815"/><rect width="8.993" height="19.836" transform="translate(190 117.175)" fill="#64d3a5"/><path d="M199.493,137.511H189.5V116.675h9.993Zm-8.993-1h7.993V117.675H190.5Z" fill="#231815"/><rect width="8.993" height="12.671" transform="translate(202.28 124.34)" fill="#64d3a5"/><path d="M211.772,137.511h-9.993V123.84h9.993Zm-8.993-1h7.993V124.84h-7.993Z" fill="#231815"/><path d="M212.011,142.2H146.393a.506.506,0,0,1-.506-.506V86.958a.506.506,0,0,1,1.012,0v54.23h65.112a.506.506,0,1,1,0,1.011Z" fill="#191919"/><path d="M254.478,233.3h15.777c.183-1.725.353-3.409.357-4.451.027-6.848-.286-11.43-.135-16.63.514-17.749-.576-26.659-.914-26.675L253.337,186.7c-.7,2.961-1.381,19.322.869,43.867C254.3,231.622,254.393,232.509,254.478,233.3Z" fill="#64d3a5"/><path d="M270.7,233.806H254.029l-.048-.448c-.085-.8-.176-1.687-.273-2.744-2.2-23.961-1.631-40.751-.857-44.028l.084-.357,16.593-1.179c.477.018.909.039,1.31,7.158.217,3.843.416,10.437.139,20.03-.083,2.854-.027,5.467.039,8.493.053,2.481.108,5.045.1,8.124,0,1.07-.173,2.741-.36,4.5Zm-15.775-1H269.8c.16-1.521.3-3.024.307-3.954.012-3.067-.043-5.625-.1-8.1-.066-3.039-.122-5.665-.039-8.544.46-15.881-.383-24.495-.744-26.139l-15.48,1.1c-.573,3.349-1.316,18.63.951,43.349C254.782,231.381,254.857,232.128,254.929,232.806Z" fill="#231815"/><path d="M270.865,233.3h16.926c-.016-.845-.029-1.534-.033-1.912-.017-1.872.134-2.107.192-4.316.222-8.426,1.322-13.574,1.483-20.336.332-13.983.563-21.716-.018-20.625l-23.836,1.019c-.345.035,1.442,5.46,2.969,23.155C268.806,213.28,269.078,220.837,270.865,233.3Z" fill="#64d3a5"/><path d="M288.3,233.806H270.432l-.062-.429c-1.436-10.024-1.9-17-2.154-20.745-.064-.945-.114-1.711-.165-2.3a207.526,207.526,0,0,0-2.741-21.321c-.312-1.682-.352-1.9-.154-2.163l.132-.176.24-.035,23.657-1.013a.565.565,0,0,1,.466-.094c.7.183.786.206.352,18.27l-.07,2.952c-.078,3.242-.369,6.1-.676,9.136-.34,3.347-.692,6.809-.807,11.2-.027,1.011-.073,1.613-.113,2.144a20.892,20.892,0,0,0-.078,2.155c0,.376.015,1.063.032,1.907Zm-17-1h15.982c-.011-.614-.019-1.109-.022-1.408a22.037,22.037,0,0,1,.081-2.24c.039-.518.084-1.107.11-2.1.116-4.428.47-7.91.812-11.276.3-3.011.594-5.854.671-9.058l.071-2.952c.213-8.866.372-15.489.185-17.152l-23.113.989c.046.3.128.736.217,1.216a208.041,208.041,0,0,1,2.754,21.417c.051.593.1,1.365.167,2.318C269.46,216.245,269.915,223.049,271.3,232.806Z" fill="#231815"/><rect width="30.749" height="16.399" transform="translate(253.421 189.676)" fill="#64d3a5"/><path d="M284.67,206.576H252.921v-17.4H284.67Zm-30.749-1H283.67v-15.4H253.921Z" fill="#231815"/><path d="M226.43,140.909c2.812-1.141,5.328.005,5.549,1.414s-2.14,4.264-4.878,4.694-4.832,1.3-5.053-.1S223.863,141.952,226.43,140.909Z" fill="#64d3a5"/><path d="M223.169,148.183a1.836,1.836,0,0,1-1.074-.277,1.31,1.31,0,0,1-.541-.916c-.257-1.641,1.919-5.419,4.688-6.544h0a5.705,5.705,0,0,1,4.888.083,2.49,2.49,0,0,1,1.344,1.716c.279,1.788-2.412,4.813-5.295,5.266-.63.1-1.226.222-1.772.335A12.21,12.21,0,0,1,223.169,148.183Zm3.45-6.81c-2.4.972-4.252,4.344-4.077,5.462.028.184.095.229.122.248.34.235,1.459.006,2.541-.217.561-.116,1.172-.241,1.819-.343,2.575-.4,4.624-3.08,4.461-4.123a1.551,1.551,0,0,0-.847-1,4.73,4.73,0,0,0-4.019-.026Z" fill="#231815"/><path d="M231.684,143.608l-2.523-4.877c.415-1.989-.633-3.871-2.074-5.565a3.758,3.758,0,0,0-3.213-1.594c-.425-.685-3-3.874-4.07-2.918-1.34,1.2.841,3.323,1.509,4-.259-.283-.289-.132-.629-.4-1.408-1.129-3.157,1.454-1.632,2.334a3.975,3.975,0,0,1,.619.465c-.774-.009-1.551-.278-1.879.912a1.455,1.455,0,0,0,.335,1.561,1.267,1.267,0,0,0-.778.658c-.325.786.322,1.8,1.444,2.263a14.123,14.123,0,0,0,1.994,1.853,8.5,8.5,0,0,0,3.1.944l2.021,3.323a4.65,4.65,0,0,0,3.9-.677C232.117,144.553,231.684,143.608,231.684,143.608Z" fill="#fff"/><path d="M226.982,147.134a3.37,3.37,0,0,1-1.224-.194.4.4,0,0,1-.191-.163l-1.915-3.15a8.9,8.9,0,0,1-3.075-.981,6.909,6.909,0,0,1-1.655-1.5,3.258,3.258,0,0,0-.31-.337,3.092,3.092,0,0,1-1.425-1.153,1.739,1.739,0,0,1-.212-1.625,1.438,1.438,0,0,1,.545-.647,1.891,1.891,0,0,1-.118-1.525,1.45,1.45,0,0,1,1.087-1.2,1.5,1.5,0,0,1-.429-1.159,2.155,2.155,0,0,1,1.223-1.79,1.628,1.628,0,0,1,.522-.137,3.472,3.472,0,0,1-.832-2.043,1.6,1.6,0,0,1,.561-1.179,1.129,1.129,0,0,1,.947-.266c1.333.191,3.068,2.336,3.6,3.07A4.239,4.239,0,0,1,227.4,132.9c1.785,2.1,2.5,3.987,2.189,5.767l2.459,4.751.009.018c.059.131.511,1.323-2.043,2.8A6.035,6.035,0,0,1,226.982,147.134Zm-.8-.9a4.5,4.5,0,0,0,3.423-.69c1.525-.883,1.748-1.568,1.705-1.777l-2.508-4.846a.4.4,0,0,1-.037-.268c.33-1.583-.3-3.242-1.986-5.221a3.409,3.409,0,0,0-2.872-1.452.4.4,0,0,1-.377-.19c-.428-.69-2.182-2.757-3.164-2.9a.323.323,0,0,0-.293.068.8.8,0,0,0-.292.6c-.028.936,1.244,2.233,1.739,2.734.029.027.06.059.092.1a.4.4,0,0,1-.588.556l-.071-.073,0,0a.242.242,0,0,0-.08-.042,1.446,1.446,0,0,1-.439-.255.741.741,0,0,0-.817-.118,1.375,1.375,0,0,0-.747,1.092.715.715,0,0,0,.387.7,4.192,4.192,0,0,1,.719.546.4.4,0,0,1,.066.436c-.066.147-.224.282-.373.237-.126,0-.252-.009-.377-.017-.648-.038-.916-.058-1.107.632a1.067,1.067,0,0,0,.242,1.179.4.4,0,0,1-.154.653.88.88,0,0,0-.547.434.987.987,0,0,0,.146.881,2.322,2.322,0,0,0,1.078.854,1.812,1.812,0,0,1,.589.545A6.17,6.17,0,0,0,221,141.954a8.144,8.144,0,0,0,2.925.886.4.4,0,0,1,.316.194Z" fill="#191919"/><path d="M223.607,143.911l1.581,2.9a10.149,10.149,0,0,0,6.379-3.875l-1.377-2.788a4.782,4.782,0,0,1-3.779,3.662A4.578,4.578,0,0,1,223.607,143.911Z" fill="#fff"/><path d="M225.187,147.218a.4.4,0,0,1-.355-.212l-1.58-2.9a.4.4,0,0,1,.521-.562,3.567,3.567,0,0,0,2.21-.048l.345-.078a4.349,4.349,0,0,0,3.463-3.335.4.4,0,0,1,.341-.331.391.391,0,0,1,.42.22l1.378,2.788a.405.405,0,0,1-.05.436,10.481,10.481,0,0,1-6.659,4.022Zm-.794-2.712,1.015,1.866a10.12,10.12,0,0,0,5.68-3.492l-.829-1.677a5.156,5.156,0,0,1-3.765,3l-.326.074A6.114,6.114,0,0,1,224.393,144.506Z" fill="#191919"/><path d="M222.526,133.432a2.862,2.862,0,0,1-1.047-.223.4.4,0,0,1,.324-.742c.2.085.829.273,1.143.046.265-.193.278-.682.242-1.06a.4.4,0,0,1,.365-.441.419.419,0,0,1,.44.365,1.848,1.848,0,0,1-.573,1.792A1.5,1.5,0,0,1,222.526,133.432Z" fill="#191919"/><path d="M224.542,133.3l-.826.72-2.208-1.368-7.627-13.81,1.611-.946Z" fill="#fff"/><path d="M223.717,134.429a.4.4,0,0,1-.213-.061L221.3,133a.4.4,0,0,1-.142-.148l-7.627-13.809a.406.406,0,0,1,.15-.545l1.611-.946a.4.4,0,0,1,.554.143l9.049,15.4a.406.406,0,0,1-.083.51l-.826.72A.4.4,0,0,1,223.717,134.429Zm-1.9-2.062,1.864,1.155.347-.3-8.673-14.767-.923.542Z" fill="#191919"/><rect width="1.432" height="9.895" transform="matrix(0.862, -0.507, 0.507, 0.862, 208.998, 110.101)" fill="#fff"/><path d="M214.01,119.037a.4.4,0,0,1-.349-.2l-5.012-8.531a.405.405,0,0,1,.144-.554l1.234-.726a.413.413,0,0,1,.307-.043.408.408,0,0,1,.247.187l5.013,8.532a.4.4,0,0,1-.144.553l-1.235.726A.4.4,0,0,1,214.01,119.037Zm-4.458-8.792,4.6,7.834.538-.316-4.6-7.834Z" fill="#191919"/><path d="M209.615,110.143a.4.4,0,0,1-.348-.2L196.735,88.61a.4.4,0,1,1,.7-.41l12.532,21.333a.4.4,0,0,1-.144.553A.39.39,0,0,1,209.615,110.143Z" fill="#191919"/><path d="M197.873,88.12c.509.867.6,1.757.211,1.988s-1.125-.285-1.634-1.152-.6-1.758-.211-1.989S197.364,87.252,197.873,88.12Z" fill="#191919"/><path d="M223.212,136.922a.4.4,0,0,1-.152-.779c.358-.146.564-.324.613-.529a1.061,1.061,0,0,0-.279-.779.4.4,0,0,1-.078-.129,5.6,5.6,0,0,0-2.184-1.686.4.4,0,0,1,.363-.724c.359.181,2.137,1.111,2.553,2.06a1.8,1.8,0,0,1,.413,1.439,1.636,1.636,0,0,1-1.1,1.1A.406.406,0,0,1,223.212,136.922Z" fill="#191919"/><path d="M220.236,141.171a3.016,3.016,0,0,1-.919-.153.4.4,0,0,1,.246-.771c.9.285,1.443,0,1.66-.368a.6.6,0,0,0-.054-.748,6.159,6.159,0,0,0-2.476-1.124.405.405,0,0,1-.309-.481.4.4,0,0,1,.481-.31,6.971,6.971,0,0,1,2.863,1.329,1.391,1.391,0,0,1,.191,1.747A1.905,1.905,0,0,1,220.236,141.171Z" fill="#191919"/><path d="M221.8,139.266a1.186,1.186,0,0,1-.331-.046.4.4,0,1,1,.222-.778.629.629,0,0,0,.494-.12,1.475,1.475,0,0,0,.626-.842c.038-.229-.173-.486-.382-.651a7.679,7.679,0,0,0-2.607-1.241.4.4,0,0,1,.137-.8,8.416,8.416,0,0,1,2.971,1.4,1.534,1.534,0,0,1,.68,1.416,2.247,2.247,0,0,1-.991,1.4A1.526,1.526,0,0,1,221.8,139.266Z" fill="#191919"/><path d="M227.837,132.109s-.836-.868-1.645-1.917-2.09-.133-3.33-2.015c-1.019-1.548-1.809.34-1.809.34a6.722,6.722,0,0,0,2.233,3.053l1.7,1.181a4.605,4.605,0,0,0-.4,5.163l4.3,1.979C230.3,138.214,227.837,132.109,227.837,132.109Z" fill="#fff"/><path d="M228.88,139.983a.4.4,0,0,1-.31-.665c.908-1.076-.174-5.016-1.085-7.3-.2-.214-.915-.981-1.618-1.893a1.488,1.488,0,0,0-1.008-.488,3.221,3.221,0,0,1-2.338-1.552c-.185-.28-.391-.44-.494-.427-.176.016-.4.3-.539.563a6.161,6.161,0,0,0,2.014,2.7l1.713,1.187a.406.406,0,0,1,.064.61,4.189,4.189,0,0,0-.334,4.711.4.4,0,0,1-.73.35,5.094,5.094,0,0,1,.189-5.248l-1.353-.939a7.056,7.056,0,0,1-2.385-3.253.409.409,0,0,1,.01-.288c.048-.114.49-1.121,1.275-1.194a1.394,1.394,0,0,1,1.245.787,2.444,2.444,0,0,0,1.832,1.206,2.243,2.243,0,0,1,1.48.785c.784,1.017,1.607,1.875,1.615,1.883a.427.427,0,0,1,.084.13c.262.648,2.51,6.383.982,8.2A.4.4,0,0,1,228.88,139.983Z" fill="#191919"/><path d="M220.705,129.082c1.381.343,2.6,1.211,2.41,1.987s-1.728,1.167-3.109.824-1.642-1.137-1.449-1.913S219.325,128.738,220.705,129.082Z" fill="#fff"/><path d="M221.036,132.421a4.723,4.723,0,0,1-1.128-.136c-1.989-.494-1.883-1.845-1.744-2.4.2-.794.817-1.646,2.639-1.193h0a5.34,5.34,0,0,1,1.947.906,1.575,1.575,0,0,1,.757,1.572,1.383,1.383,0,0,1-.672.829A3.586,3.586,0,0,1,221.036,132.421Zm-1.152-3.049a.821.821,0,0,0-.935.705c-.113.459-.118,1.107,1.155,1.423a3.349,3.349,0,0,0,2.314-.2.622.622,0,0,0,.3-.331c.048-.194-.128-.471-.472-.741a4.508,4.508,0,0,0-1.643-.757A3.045,3.045,0,0,0,219.884,129.372Z" fill="#191919"/><path d="M250.893,133.96a25.384,25.384,0,0,0-4.107,5.619c-1.875,3.226-3.413,8.43-5.4,11.135a34.806,34.806,0,0,1-2.547,3.088c-1.964-3.854-4.509-7.038-6.99-11.826a17.183,17.183,0,0,1-3.633,2.95,20.162,20.162,0,0,1-6.06,2.256s7.264,14.144,9.838,17.6c0,0,2.171,3.508,5.014,3.234,1.321.077,3.4.015,3.4.015s5.583-1.271,10.191-9.163,4.942-9.47,4.942-9.47Z" fill="#64d3a5"/><path d="M238.642,168.558c-.563,0-1.163-.01-1.663-.039-3.08.3-5.316-3.317-5.411-3.471-2.546-3.418-9.561-17.059-9.858-17.638l-.31-.6.666-.119a19.773,19.773,0,0,0,5.891-2.191,16.877,16.877,0,0,0,3.516-2.853l.483-.547.336.648c1.275,2.461,2.557,4.478,3.8,6.428,1.019,1.6,1.988,3.129,2.861,4.762.47-.531,1.232-1.427,2.032-2.518a32.487,32.487,0,0,0,3.01-6.036,46.914,46.914,0,0,1,2.363-5.054,25.653,25.653,0,0,1,4.2-5.739l.586-.533,4.909,16.323-.027.125c-.036.17-.48,1.881-5,9.619-4.664,7.987-10.275,9.345-10.511,9.4C240.4,168.531,239.572,168.558,238.642,168.558Zm-1.683-1.037c1.36.073,3.409.015,3.43.013-.044,0,5.345-1.331,9.774-8.915,3.865-6.619,4.692-8.739,4.852-9.217l-4.354-14.476a30.34,30.34,0,0,0-3.442,4.9,46.036,46.036,0,0,0-2.307,4.941,33.115,33.115,0,0,1-3.124,6.239,34.591,34.591,0,0,1-2.589,3.136l-.486.511-.32-.629c-.936-1.836-2.011-3.527-3.149-5.318s-2.329-3.666-3.516-5.889a18.129,18.129,0,0,1-3.253,2.533,20.145,20.145,0,0,1-5.576,2.181c1.4,2.7,7.271,13.961,9.5,16.951C232.438,164.555,234.473,167.766,236.959,167.521Z" fill="#231815"/><path d="M241.385,161.873h-.02a.406.406,0,0,1-.385-.424,12.114,12.114,0,0,0-2.456-7.391.4.4,0,0,1,.51-.61c.155.086,3.8,2.143,3.8,5.379a.4.4,0,0,1-.809,0,4.845,4.845,0,0,0-1.638-3.321,11.986,11.986,0,0,1,1.4,5.982A.4.4,0,0,1,241.385,161.873Z" fill="#191919"/><path d="M263.371,127.763l-3.189,2.346-9.289,3.851s-.8,2.313-.479,9.648,1.956,17.73,1.956,17.73l.459,14.439-1.167,23.564s8.343,3.034,12.512-.547c.6-.511,1.041-3.508,1.428-4.282,0,0,.557,3.862,1.964,4.773,3.132,2.029,9.578,3.626,23.5.858l-1.221-21.96-.229-14.782L294.55,132.4l-11.813-5.435-2.979-2.635-14.5.8Z" fill="#64d3a5"/><path d="M278.1,202.127c-4.7,0-8.318-.808-10.81-2.422a5.76,5.76,0,0,1-1.763-3.149,5.665,5.665,0,0,1-1.032,2.618c-4.341,3.728-12.656.764-13.008.637l-.346-.126,1.185-23.933-.46-14.4c-.011-.042-1.634-10.446-1.956-17.725-.325-7.345.472-9.735.506-9.834l.074-.212,9.441-3.912,3.076-2.264,1.984-2.766,14.941-.827,3.078,2.723L295.1,132.1l-5,31.38.235,14.7,1.245,22.372-.426.085A68.278,68.278,0,0,1,278.1,202.127Zm-12.237-9.267.23,1.58c.2,1.407.856,3.853,1.74,4.425,4.169,2.7,11.807,2.992,22.7.871l-1.2-21.525-.23-14.8L294,132.691l-11.591-5.356-2.826-2.5-14.052.778-1.861,2.553-3.294,2.4-9.063,3.757c-.17.7-.66,3.317-.4,9.257.319,7.224,1.935,17.571,1.951,17.676l.465,14.5-1.148,23.225c1.59.508,8.237,2.375,11.667-.571a9.29,9.29,0,0,0,.782-2.376,10.537,10.537,0,0,1,.524-1.751Z" fill="#231815"/><path d="M268.786,124.325l-5.414,3.438,1.117,33.627s7.272-27.955,15.066-37.065Z" fill="#fff"/><path d="M264.489,161.794l-.045,0a.405.405,0,0,1-.359-.389l-1.117-33.627a.4.4,0,0,1,.187-.355l5.414-3.438a.406.406,0,0,1,.217-.063h10.77a.4.4,0,0,1,.307.668c-7.646,8.935-14.91,36.625-14.982,36.9A.405.405,0,0,1,264.489,161.794Zm-.705-33.814,1.021,30.71c1.956-6.983,7.659-25.977,13.9-33.961h-9.8Z" fill="#191919"/><path d="M280.192,124.067l3.132,3.77-3.547,2.21,4.393,2.08L264.1,163.148S271.9,130,280.192,124.067Z" fill="#64d3a5"/><path d="M262.952,165.843l.661-2.809c.32-1.361,7.938-33.4,16.287-39.374l.379-.27,3.8,4.568-3.256,2.029,4.08,1.932Zm17.162-41.087c-6.484,5.294-12.716,27.545-14.8,35.591l18.124-28.013-4.705-2.227,3.838-2.391Z" fill="#231815"/><path d="M264.1,163.148s-8.636-21.634-7.776-28.052l3.664-2.12-.612-1.8,4.724-4.43S261.533,154.918,264.1,163.148Z" fill="#64d3a5"/><path d="M263.635,163.334c-.355-.889-8.673-21.831-7.806-28.3l.032-.243,3.522-2.038-.584-1.716,5.918-5.55-.119,1.309c-.026.281-2.53,28.166-.021,36.208ZM256.793,135.4c-.417,4.567,3.538,16.2,5.963,22.8-.861-9.562.341-25.5.733-30.2l-3.536,3.316.641,1.883Z" fill="#231815"/><path d="M266.508,132.127l-3.136,7.879s-.409,1.536-.409,7.693A109.729,109.729,0,0,0,264.1,161.39l5.959-18.662v-3.115l-1.789-7.3Z" fill="#64d3a5"/><path d="M263.925,163.581l-.32-2.117a111.213,111.213,0,0,1-1.142-13.765c0-6.152.408-7.756.426-7.822l3.295-8.288,2.489.269,1.887,7.755-.024,3.268Zm-.088-23.391a43.288,43.288,0,0,0-.374,7.509,100.229,100.229,0,0,0,.836,11.423l5.261-16.472v-2.976l-1.692-6.9-1.036-.112-2.995,7.525Z" fill="#231815"/><path d="M279.183,124.325c-2.465-7.406-1.6-10.465-1.6-10.465l-11.555.335a26.394,26.394,0,0,1-1.45,14.127l2.682,4.367Z" fill="#fff"/><path d="M267.262,133.093a.375.375,0,0,1-.082-.009.4.4,0,0,1-.263-.184l-2.682-4.366a.407.407,0,0,1-.031-.361,26.242,26.242,0,0,0,1.432-13.889.4.4,0,0,1,.383-.493l11.554-.335a.4.4,0,0,1,.4.514c-.008.028-.788,3.075,1.592,10.227a.4.4,0,0,1-.151.459l-11.922,8.364A.4.4,0,0,1,267.262,133.093Zm-2.232-4.811,2.352,3.828,11.323-7.944c-1.837-5.631-1.75-8.73-1.6-9.887l-10.584.307A26.966,26.966,0,0,1,265.03,128.282Z" fill="#191919"/><path d="M265.177,129.876l.64,3.848s-.088-.46,1.383-.46,1.335.46,1.335.46l1.6-3.521-2.478-2.083Z" fill="#64d3a5"/><path d="M268.99,133.93l-.934-.349a.3.3,0,0,0,.059.31,1.846,1.846,0,0,0-.915-.127,1.871,1.871,0,0,0-.955.138.284.284,0,0,0,.065-.26l-.985.175,0-.018-.69-4.151,3.049-2.159,3.063,2.576Zm-1.79-1.166a3.713,3.713,0,0,1,1.156.144l1.164-2.566-1.892-1.591-1.906,1.352.459,2.761A4.265,4.265,0,0,1,267.2,132.764Z" fill="#231815"/><path d="M265.177,124.167a4.651,4.651,0,0,0,1.04,2.355,6.818,6.818,0,0,0,1.651,1.6l-2.147,1.892-2.148,3.252S263.888,125.8,265.177,124.167Z" fill="#fff"/><path d="M263.573,133.668a.389.389,0,0,1-.125-.02.4.4,0,0,1-.279-.4c.033-.778.358-7.644,1.69-9.331a.4.4,0,0,1,.721.222,4.331,4.331,0,0,0,.953,2.132,6.625,6.625,0,0,0,1.538,1.5.406.406,0,0,1,.065.654l-2.108,1.856-2.117,3.207A.407.407,0,0,1,263.573,133.668Zm1.486-8.346a32.177,32.177,0,0,0-.993,6.46l1.317-1.993a.454.454,0,0,1,.07-.081l1.771-1.56a9.091,9.091,0,0,1-1.322-1.373A5.539,5.539,0,0,1,265.059,125.322Z" fill="#191919"/><path d="M268.036,128.12a44.2,44.2,0,0,0,5.759-2.891,33.659,33.659,0,0,0,4.71-3.611,2.465,2.465,0,0,1,1.05,1.255c.5,1.029,0,1.452,0,1.452L273,135.025S270.555,129.722,268.036,128.12Z" fill="#fff"/><path d="M273,135.43h-.023a.4.4,0,0,1-.344-.235c-.025-.052-2.422-5.214-4.811-6.733a.4.4,0,0,1,.065-.716,44.081,44.081,0,0,0,5.7-2.86,33.677,33.677,0,0,0,4.646-3.561.4.4,0,0,1,.429-.08,2.8,2.8,0,0,1,1.263,1.452,1.62,1.62,0,0,1-.04,1.874l-6.538,10.666A.4.4,0,0,1,273,135.43Zm-4.152-7.214a21.12,21.12,0,0,1,4.193,5.968l6.173-10.071a.427.427,0,0,1,.083-.1h0s.237-.266-.1-.967a2.891,2.891,0,0,0-.649-.916,33.847,33.847,0,0,1-4.532,3.439A43.056,43.056,0,0,1,268.845,128.216Z" fill="#191919"/><path d="M266.711,167.169a2.008,2.008,0,1,1-2.008-2.009A2.008,2.008,0,0,1,266.711,167.169Z" fill="#191919"/><path d="M266.711,179.011A2.008,2.008,0,1,1,264.7,177,2.009,2.009,0,0,1,266.711,179.011Z" fill="#191919"/><path d="M280.033,177.728l.165,3.748,8.076-.079.032-3.85Z" fill="#64d3a5"/><path d="M279.72,181.98l-.209-4.741,9.3-.2-.04,4.857Zm.836-3.764.121,2.755,7.1-.07.025-2.844Z" fill="#231815"/><path d="M252.732,177.5v3.751l3.6.275.09-3.845Z" fill="#64d3a5"/><path d="M256.823,182.063l-4.591-.351v-4.74l4.705.231Zm-3.591-1.277,2.617.2.065-2.831-2.682-.132Z" fill="#231815"/><path d="M279.67,108.2c-.591,1.823-1.837,4.991-.154,5.536s3.486-.167,5.076-3.7c.786-1.749.084-4.057-1.6-4.6S280.261,106.375,279.67,108.2Z" fill="#fff"/><path d="M280.523,114.308a3.649,3.649,0,0,1-1.132-.189,1.488,1.488,0,0,1-.9-.765c-.583-1.155.085-3.151.62-4.755l.175-.526h0a5.928,5.928,0,0,1,1.356-2.438,2.341,2.341,0,0,1,2.478-.592,3.094,3.094,0,0,1,1.846,1.752,4.237,4.237,0,0,1,0,3.4C283.731,112.93,282.243,114.308,280.523,114.308Zm-.468-5.986-.177.534c-.437,1.306-1.1,3.28-.665,4.133a.682.682,0,0,0,.428.361c1.777.574,3.27-.567,4.582-3.486a3.454,3.454,0,0,0,0-2.741,2.3,2.3,0,0,0-1.357-1.31,1.538,1.538,0,0,0-1.664.4A5.227,5.227,0,0,0,280.055,108.322Z" fill="#191919"/><path d="M270.6,89.221c-4.467-.035-9.15,2.707-10.56,9.964,0,0-3.587,20.176,7.778,23.319a12.5,12.5,0,0,0,11.915-8.213,66.647,66.647,0,0,0,2-13.959C281.765,96.717,280.37,89.3,270.6,89.221Z" fill="#fff"/><path d="M267.559,122.724a.4.4,0,0,1-.113-.016c-9.049-2.613-8.144-16.4-8.1-16.991a.4.4,0,1,1,.806.059c-.009.137-.9,13.724,7.52,16.155a.4.4,0,0,1-.112.793Z" fill="#191919"/><path d="M268.628,122.786a5.588,5.588,0,0,1-1.344-.136.4.4,0,0,1,.206-.782c.029.007,2.919.713,6.62-1.7a.4.4,0,1,1,.442.678A10.881,10.881,0,0,1,268.628,122.786Z" fill="#191919"/><path d="M276.892,118.689a.4.4,0,0,1-.293-.683c2.751-2.894,2.949-5.271,2.951-5.295a.4.4,0,0,1,.806.053c0,.107-.2,2.673-3.171,5.8A.4.4,0,0,1,276.892,118.689Z" fill="#191919"/><path d="M272.782,107.018a1,1,0,1,1-.992-1.092A1.044,1.044,0,0,1,272.782,107.018Z" fill="#191919"/><path d="M264,106.961a.934.934,0,1,1-.914-1.091A1.014,1.014,0,0,1,264,106.961Z" fill="#191919"/><path d="M261.395,104.869a.4.4,0,0,1-.285-.118.4.4,0,0,1,0-.57,3.077,3.077,0,0,1,4.12-.245.4.4,0,0,1-.489.645,2.3,2.3,0,0,0-3.055.169A.405.405,0,0,1,261.395,104.869Z" fill="#191919"/><path d="M274.71,104.836a.4.4,0,0,1-.255-.091c-.086-.07-2.125-1.7-3.932-.4a.4.4,0,0,1-.47-.658c1.848-1.326,4.024-.3,4.915.433a.4.4,0,0,1-.258.717Z" fill="#191919"/><path d="M265.948,113.392a.4.4,0,0,1-.286-.119l-.592-.59a.407.407,0,0,1-.094-.424l.911-2.52a.4.4,0,0,1,.761.275l-.824,2.278.41.408a.406.406,0,0,1-.286.692Z" fill="#191919"/><path d="M264.928,115.416c.921,1.433,1.7,1.972,2.552,1.869,1.477-.18,2.367-2.037,2.367-2.037s-1.6.127-3.3.154C265.73,115.416,264.928,115.416,264.928,115.416Z" fill="#fff"/><path d="M267.276,117.6c-.9,0-1.712-.635-2.6-2.021a.3.3,0,0,1,.255-.467s.8,0,1.61-.014c1.675-.027,3.27-.153,3.285-.154a.285.285,0,0,1,.275.131.3.3,0,0,1,.023.3c-.039.082-.981,2.009-2.6,2.207A1.989,1.989,0,0,1,267.276,117.6Zm-1.775-1.884c.887,1.212,1.5,1.322,1.942,1.266a2.92,2.92,0,0,0,1.852-1.393c-.622.04-1.668.1-2.747.116C266.171,115.712,265.8,115.715,265.5,115.717Z" fill="#191919"/><path d="M284.913,99.825a10.475,10.475,0,0,0-.7-5.192c-.492-1.049-1.354-2.608-2.045-3.825-1.513-2.665-4.414-3.193-8.179-3.827-1.448-.243-5.864.048-8.081,2.7-1.495-1.448-5.145,1.175-6.194,3.694-1.443,3.235-1.853,4.754-.189,11.273a15.641,15.641,0,0,1,1.872-7.256c.245-.433,2.663-2.962,2.663-2.962a30.108,30.108,0,0,0,5.179,4.766c4.159,3,9.656,4.073,9.87,4.455a7.906,7.906,0,0,1,1.212,4.226C282.63,105.8,284.616,103.769,284.913,99.825Z" fill="#64d3a5"/><path d="M280.409,108.474l-.3-.137a.561.561,0,0,1-.3-.576,7.706,7.706,0,0,0-1.091-3.771c-.191-.091-.72-.263-1.234-.43a26.747,26.747,0,0,1-13.446-8.38c-1.044,1.1-2.08,2.24-2.209,2.463a14.792,14.792,0,0,0-1.8,6.882c0,.143-.011.58-.449.631l-.434.051-.111-.431c-1.664-6.52-1.31-8.175.216-11.6a8.019,8.019,0,0,1,4.923-4.337,2.4,2.4,0,0,1,1.657.179c2.482-2.56,6.856-2.763,8.234-2.53,3.69.621,6.876,1.158,8.532,4.073.66,1.162,1.554,2.775,2.063,3.859a10.8,10.8,0,0,1,.749,5.443h0c-.308,4.067-2.337,6.206-4.759,8.39ZM264.087,93.68l.358.439a29.865,29.865,0,0,0,5.084,4.676,30.221,30.221,0,0,0,8.266,3.814c1.251.407,1.587.516,1.747.8a9.63,9.63,0,0,1,1.208,3.393c1.96-1.855,3.416-3.728,3.664-7.017h0a9.831,9.831,0,0,0-.657-4.943c-.494-1.055-1.375-2.643-2.027-3.79-1.352-2.381-3.855-2.912-7.828-3.58-1.233-.205-5.508.009-7.613,2.531l-.345.413-.386-.374a1.251,1.251,0,0,0-1.179-.227,7.112,7.112,0,0,0-4.206,3.754c-1.159,2.6-1.633,4.012-.837,8.046a14.877,14.877,0,0,1,1.623-4.466,39.982,39.982,0,0,1,2.737-3.063Z" fill="#231815"/><path d="M279.105,103.766a.406.406,0,0,1-.4-.324,11.848,11.848,0,0,0-3.333-5.742.4.4,0,0,1,.537-.6,12.452,12.452,0,0,1,3.589,6.185.4.4,0,0,1-.315.477A.389.389,0,0,1,279.105,103.766Z" fill="#191919"/><path d="M282.693,101.188a.43.43,0,0,1-.062,0,.4.4,0,0,1-.338-.462c.313-2.05-1.426-4.18-1.443-4.2a.4.4,0,0,1,.623-.517c.081.1,1.989,2.428,1.619,4.841A.4.4,0,0,1,282.693,101.188Z" fill="#191919"/><path d="M263.589,98.449a.405.405,0,0,1-.28-.113c-1.168-1.119.056-3.607.2-3.888a.4.4,0,0,1,.72.369c-.292.572-.984,2.337-.36,2.935a.4.4,0,0,1-.28.7Z" fill="#191919"/><path d="M264.057,94.56a.4.4,0,0,1-.4-.342c-.339-2.131,1.694-4.437,1.78-4.534a.4.4,0,1,1,.6.538c-.019.021-1.863,2.119-1.585,3.869a.4.4,0,0,1-.336.463A.347.347,0,0,1,264.057,94.56Z" fill="#191919"/><path d="M264.058,92.459a.4.4,0,0,1-.3-.137,1.6,1.6,0,0,0-1.833-.207.4.4,0,0,1-.366-.721,2.361,2.361,0,0,1,2.806.393.405.405,0,0,1-.3.672Z" fill="#191919"/><path d="M268.247,93.221a.4.4,0,0,1-.231-.073c-2.183-1.523-3.458-.457-3.471-.446a.4.4,0,1,1-.531-.611c.071-.061,1.769-1.487,4.465.393a.405.405,0,0,1-.232.737Z" fill="#191919"/><path d="M265.154,91.152a.4.4,0,0,1-.285-.692,2.764,2.764,0,0,1,3.2-.321.4.4,0,1,1-.375.716,1.932,1.932,0,0,0-2.26.185A.406.406,0,0,1,265.154,91.152Z" fill="#191919"/><path d="M295.921,193.851c1.986.114,2.952-.654,3.991,3.766a10.249,10.249,0,0,1,.185,8.754c-1.5,3.247-6.663,6.025-3.534,2.579-.62.679-1.275,1.857-1.65,1.626-.6-.373-1.393-.251.64-3.906.194-1.4.5-1.846.4-2.253a10.931,10.931,0,0,1-.081-2.185c-.289-1.223-2.02-.719-2.022-.683a14.375,14.375,0,0,1-.085,2c-.167.938-.571,3.183-1.068,3.214-1.767.113-1.3-1.283-1.538-2.893a40.236,40.236,0,0,1,.082-4.039C291.39,195.067,293.731,193.724,295.921,193.851Z" fill="#fff"/><path d="M295.021,211.019a.61.61,0,0,1-.321-.1c-.053-.033-.107-.061-.16-.088a1.124,1.124,0,0,1-.654-.676c-.154-.511.007-1.323,1.278-3.618a11.563,11.563,0,0,1,.3-1.428,1.54,1.54,0,0,0,.1-.595,9.811,9.811,0,0,1-.1-2.113l0-.124a.539.539,0,0,0-.278-.349,1.614,1.614,0,0,0-.947-.073c-.005.208,0,.38,0,.541a5.524,5.524,0,0,1-.08,1.223c-.472,2.646-.821,3.508-1.44,3.546a1.76,1.76,0,0,1-1.336-.349,2.51,2.51,0,0,1-.545-1.866c-.015-.32-.031-.666-.083-1.023a26.1,26.1,0,0,1,.048-3.464c.014-.283.026-.513.03-.647.075-2.432.71-4.212,1.888-5.289a4.257,4.257,0,0,1,3.217-1.083c.282.017.54.013.785.013,1.738-.028,2.66.16,3.577,4.065a1.807,1.807,0,0,1,.076.166,10.416,10.416,0,0,1,.082,8.851c-1.012,2.19-3.761,4.4-4.733,4.4a.487.487,0,0,1-.291-.07A.748.748,0,0,1,295.021,211.019Zm-.366-10.008a1.487,1.487,0,0,1,1.613,1.128.421.421,0,0,1,.01.1l0,.185a9.573,9.573,0,0,0,.074,1.9,1.939,1.939,0,0,1-.1,1,10.979,10.979,0,0,0-.291,1.408.394.394,0,0,1-.047.14c-1.162,2.089-1.319,2.817-1.246,3.058.019.062.07.1.252.19.037.02.075.039.112.061a2.879,2.879,0,0,0,.386-.424,7.781,7.781,0,0,1,.829-1.046c.008-.01.017-.018.025-.027a.4.4,0,0,1,.6.544h0a.257.257,0,0,0-.021.024c-.157.175-.318.383-.474.588a8.928,8.928,0,0,0,3.275-11.821c-.049-.113-.086-.2-.108-.257-.827-3.5-1.437-3.516-2.8-3.49-.256,0-.536,0-.838-.013h0a3.51,3.51,0,0,0-2.625.871c-1.009.925-1.556,2.512-1.625,4.718,0,.137-.015.372-.03.662a28.818,28.818,0,0,0-.055,3.306c.055.384.074.757.09,1.1.029.591.053,1.1.276,1.3a.928.928,0,0,0,.673.148,8.531,8.531,0,0,0,.767-2.884,4.779,4.779,0,0,0,.068-1.065c-.005-.247-.01-.519.013-.891.011-.2.094-.424.942-.5C294.481,201.015,294.57,201.011,294.655,201.011Z" fill="#191919"/><path d="M296.73,209.208a.4.4,0,0,1-.272-.7,6.173,6.173,0,0,0,1.8-3.039c.013-.325.034-.637.054-.925a5.718,5.718,0,0,0,.012-1.308.4.4,0,1,1,.787-.189,5.764,5.764,0,0,1,.008,1.553c-.019.281-.04.584-.053.9A6.775,6.775,0,0,1,297,209.1.4.4,0,0,1,296.73,209.208Z" fill="#191919"/><path d="M300.329,205.925h-.021a.4.4,0,0,1-.383-.426,8.812,8.812,0,0,0-.135-2.195.405.405,0,0,1,.3-.485.4.4,0,0,1,.484.3,9.358,9.358,0,0,1,.155,2.421A.4.4,0,0,1,300.329,205.925Z" fill="#191919"/><path d="M291.944,196.291a7.915,7.915,0,0,0,4.749,1.063c2.945-.389,3.57-1.242,3.57-1.242l-.212-3.471-8.18.885Z" fill="#fff"/><path d="M295.884,197.772a8.476,8.476,0,0,1-4.135-1.172.369.369,0,0,1-.17-.3l-.073-2.765a.366.366,0,0,1,.326-.373l8.18-.885a.385.385,0,0,1,.274.084.369.369,0,0,1,.129.257l.212,3.471a.374.374,0,0,1-.069.238c-.074.1-.8.989-3.817,1.389A6.621,6.621,0,0,1,295.884,197.772Zm-3.58-1.7a7.479,7.479,0,0,0,4.342.915,6.6,6.6,0,0,0,3.242-1.024l-.178-2.922-7.465.808Z" fill="#191919"/><path d="M294.269,132.266s4.443,2.161,4.917,9.644c0,0-.062,7.938,1.114,25.886,1.2,18.371.513,26.193.513,26.193a8.339,8.339,0,0,1-4.645,1.266,21.769,21.769,0,0,1-5.4-.718l-1.08-26.479.317-10.2a107.015,107.015,0,0,1,0-15.781C290.7,135.411,294.269,132.266,294.269,132.266Z" fill="#64d3a5"/><path d="M296.168,195.756a22.064,22.064,0,0,1-5.542-.738l-.347-.1-1.093-26.839.316-10.24a107.532,107.532,0,0,1,0-15.817c.71-6.779,4.282-10,4.434-10.13l.249-.221.3.146c.193.094,4.71,2.377,5.2,10.062,0,.115-.048,8.168,1.113,25.886,1.191,18.2.519,26.19.513,26.269l-.02.226-.183.134A8.8,8.8,0,0,1,296.168,195.756Zm-4.919-1.61a21.692,21.692,0,0,0,4.919.61,8.273,8.273,0,0,0,4.165-1.053c.1-1.454.54-9.508-.532-25.875-1.163-17.76-1.115-25.842-1.114-25.922-.379-5.954-3.374-8.381-4.338-9.013a15.941,15.941,0,0,0-3.85,9.232,106.884,106.884,0,0,0,0,15.69l-.315,10.258Z" fill="#231815"/><path d="M66.813,250.673l.241,9.37L280,260.005l.572-9.332Z" fill="#fff"/><path d="M280.57,250.673H66.813l63.38-36.267h173.53Z" fill="#fff"/><path d="M304.165,214.81H126.594a.4.4,0,1,1,0-.809H304.165a.4.4,0,0,1,0,.809Z" fill="#191919"/><path d="M280.57,251.077H66.813a.4.4,0,1,1,0-.808H280.57a.4.4,0,1,1,0,.808Z" fill="#191919"/><path d="M280.57,260.447H66.813a.4.4,0,1,1,0-.808H280.57a.4.4,0,1,1,0,.808Z" fill="#191919"/><path d="M165.671,220.23l-.205,15.09h26.143l-4.533-15.141Z" fill="#fff"/><path d="M191.608,235.725H165.465a.4.4,0,0,1-.4-.411l.205-15.089a.4.4,0,0,1,.4-.4l21.4-.052h0a.405.405,0,0,1,.387.289L192,235.2a.4.4,0,0,1-.388.521Zm-25.733-.809h25.189l-4.29-14.332-20.705.05Z" fill="#191919"/><path d="M184.241,223.454h-14.28a.4.4,0,1,1,0-.808h14.28a.4.4,0,1,1,0,.808Z" fill="#191919"/><path d="M181.176,227.639H170.131a.4.4,0,1,1,0-.809h11.045a.4.4,0,1,1,0,.809Z" fill="#191919"/><path d="M188.316,232.452H176.024a.4.4,0,1,1,0-.808h12.292a.4.4,0,1,1,0,.808Z" fill="#191919"/><path d="M253.538,238.44h30.021l-2.917-19H255.636Z" fill="#fff"/><path d="M283.56,238.844H253.538a.4.4,0,0,1-.4-.448l2.1-19a.406.406,0,0,1,.4-.36h25.006a.4.4,0,0,1,.4.343l2.918,19a.4.4,0,0,1-.4.466Zm-29.57-.809h29.1L280.3,219.846H256Z" fill="#191919"/><path d="M277.082,223.428H260.015a.4.4,0,1,1,0-.809h17.067a.4.4,0,0,1,0,.809Z" fill="#191919"/><path d="M275.648,227.1H262.262a.4.4,0,1,1,0-.808h13.386a.4.4,0,1,1,0,.808Z" fill="#191919"/><path d="M271.68,231.413H258.586a.4.4,0,0,1,0-.809H271.68a.4.4,0,0,1,0,.809Z" fill="#191919"/><path d="M277.419,235.205H260.355a.4.4,0,0,1,0-.809h17.064a.4.4,0,0,1,0,.809Z" fill="#191919"/><path d="M271.047,243.166H241.025l2.917-19h25.006Z" fill="#fff"/><path d="M271.047,243.57H241.025a.4.4,0,0,1-.4-.466l2.917-19a.4.4,0,0,1,.4-.342h25.006a.406.406,0,0,1,.4.36l2.1,19a.4.4,0,0,1-.1.314A.41.41,0,0,1,271.047,243.57Zm-29.55-.808h29.1l-2.009-18.19h-24.3Z" fill="#191919"/><path d="M264.569,228.153H247.5a.4.4,0,1,1,0-.808h17.066a.4.4,0,1,1,0,.808Z" fill="#191919"/><path d="M262.323,231.831H248.937a.4.4,0,1,1,0-.809h13.386a.4.4,0,1,1,0,.809Z" fill="#191919"/><path d="M266,236.14H252.9a.4.4,0,0,1,0-.809H266a.4.4,0,0,1,0,.809Z" fill="#191919"/><path d="M264.229,239.932H247.166a.4.4,0,0,1,0-.809h17.063a.4.4,0,0,1,0,.809Z" fill="#191919"/><path d="M135.829,206.349l1.109-7.323a5.781,5.781,0,0,0,4.384.115c2.562-.784,2.461-3.573,2.683-6.248a11.6,11.6,0,0,0-.207-3.114s1.41-.807,1.539-1.268-2.076-4.451-2.076-4.451a5.459,5.459,0,0,1-.193-1.872,19.867,19.867,0,0,0-.29-4.589c-2.973-11.1-8.91-11.209-13.607-10.725-7.868.811-9.191,8.911-9.191,8.911-1.467,6.452,4.543,19.085,4.543,19.085s.727,1.028-1.2,4.161a37.067,37.067,0,0,0-3.018,6.214l7.74.463Z" fill="#fff"/><path d="M135.83,206.753H135.8l-7.781-.641-7.731-.462a.4.4,0,0,1-.357-.54,37.187,37.187,0,0,1,3.054-6.291c1.7-2.766,1.206-3.722,1.2-3.732-.272-.563-6.078-12.876-4.6-19.391.009-.059,1.461-8.39,9.543-9.223,5.6-.576,11.182.357,14.04,11.023a19,19,0,0,1,.3,4.7,5.12,5.12,0,0,0,.174,1.742c2.253,4.063,2.124,4.531,2.081,4.684-.133.476-.948,1.039-1.477,1.362a11.944,11.944,0,0,1,.159,2.946c-.024.281-.043.563-.063.844-.171,2.446-.348,4.975-2.906,5.756a6.206,6.206,0,0,1-4.177.057l-1.034,6.825A.4.4,0,0,1,135.83,206.753Zm-14.948-1.879,7.19.43,7.414.61,1.052-6.949a.406.406,0,0,1,.2-.293.4.4,0,0,1,.356-.019,5.3,5.3,0,0,0,4.009.13l.1-.029c2.026-.619,2.17-2.668,2.336-5.039.02-.285.04-.57.063-.855a11.281,11.281,0,0,0-.2-2.992.4.4,0,0,1,.193-.439,4.668,4.668,0,0,0,1.352-1.033,33.58,33.58,0,0,0-2.042-4.141,5.536,5.536,0,0,1-.245-1.989,20.616,20.616,0,0,0-.274-4.562c-2.836-10.584-8.291-10.928-13.176-10.428-7.473.77-8.819,8.5-8.832,8.575-1.425,6.265,4.449,18.72,4.509,18.845.112.149.746,1.348-1.218,4.546A37.5,37.5,0,0,0,120.882,204.874Z" fill="#191919"/><path d="M142.045,192.784a3.588,3.588,0,0,1-2.374-1.177.4.4,0,0,1,.6-.536,2.706,2.706,0,0,0,1.8.9,1.9,1.9,0,0,0,1.407-.811.4.4,0,1,1,.626.512,2.66,2.66,0,0,1-2.021,1.108Z" fill="#191919"/><path d="M137.765,192.153a.405.405,0,0,1-.4-.373,2.109,2.109,0,0,1,.418-1.616,1.34,1.34,0,0,1,.9-.454.405.405,0,0,1,.04.809c-.109.009-.632.114-.547,1.2a.4.4,0,0,1-.372.434Z" fill="#191919"/><path d="M140.019,182.086a.964.964,0,1,0,.828-1.279A1.094,1.094,0,0,0,140.019,182.086Z" fill="#191919"/><path d="M138.222,180.78a.4.4,0,0,1-.353-.6,3.163,3.163,0,0,1,3.852-1.329.4.4,0,0,1-.257.767,2.361,2.361,0,0,0-2.889.958A.406.406,0,0,1,138.222,180.78Z" fill="#191919"/><path d="M114.32,174.461c1.041-3.2,1.074-7.083,7.363-8.505a13.72,13.72,0,0,1,4.445-2.562c8.763-2.433,11.893,2.856,14.62,3.288,2.587.409,3.76,5.033.561,6.675-.922.473-4.152-.919-5.172.284a9.185,9.185,0,0,0-2.8,5.09,26.98,26.98,0,0,1-1.631,5.51,59.953,59.953,0,0,0-1.937,6.929c-.662,3.372-5.317,5.07-5.317,5.07s-8.111-2.622-9.773-12.828A14.649,14.649,0,0,1,114.32,174.461Z" fill="#64d3a5"/><path d="M124.457,196.769l-.164-.053c-.084-.028-8.392-2.827-10.1-13.171a14.991,14.991,0,0,1-.344-9.238h0c.15-.463.279-.94.409-1.42.772-2.858,1.647-6.092,7.2-7.391A13.816,13.816,0,0,1,126,162.912a13.65,13.65,0,0,1,12.44,2.067,7.34,7.34,0,0,0,2.391,1.209,3.715,3.715,0,0,1,2.862,3.263,4.036,4.036,0,0,1-2.151,4.351,4.156,4.156,0,0,1-2.237.007c-1.047-.158-2.351-.352-2.781.156-.04.046-.107.117-.2.21a8.277,8.277,0,0,0-2.493,4.618,21.9,21.9,0,0,1-1.341,4.751c-.113.306-.22.594-.314.862a59.715,59.715,0,0,0-1.918,6.861c-.709,3.607-5.436,5.37-5.637,5.443Zm5.993-33.51a15.628,15.628,0,0,0-4.188.616,13.288,13.288,0,0,0-4.249,2.457l-.1.084-.124.027c-5.071,1.148-5.8,3.847-6.574,6.7-.135.5-.268.991-.423,1.468h0a14.254,14.254,0,0,0,.342,8.612l.029.1c1.463,8.978,8.144,11.935,9.273,12.373.805-.332,4.3-1.921,4.834-4.632a60.691,60.691,0,0,1,1.955-7c.1-.273.205-.567.32-.878a21.134,21.134,0,0,0,1.287-4.527,9.332,9.332,0,0,1,2.768-5.191c.069-.072.122-.125.152-.161.79-.932,2.331-.7,3.692-.5a4.691,4.691,0,0,0,1.633.093,3.014,3.014,0,0,0,1.62-3.3,2.767,2.767,0,0,0-2.032-2.433,7.874,7.874,0,0,1-2.776-1.357A12.837,12.837,0,0,0,130.45,163.259Z" fill="#231815"/><path d="M122.025,195.041a.4.4,0,0,1-.156-.777,4.89,4.89,0,0,0,2.459-2.8.4.4,0,1,1,.772.24,5.649,5.649,0,0,1-2.919,3.306A.409.409,0,0,1,122.025,195.041Z" fill="#191919"/><path d="M120.32,194.144a.4.4,0,0,1-.155-.778,2.939,2.939,0,0,0,1.959-2.045.4.4,0,0,1,.456-.342.4.4,0,0,1,.345.452,3.705,3.705,0,0,1-2.449,2.681A.389.389,0,0,1,120.32,194.144Z" fill="#191919"/><path d="M136.138,174.046a.4.4,0,0,1-.247-.726c.523-.4,1.9-1.66,2.008-2.66a.4.4,0,0,1,.445-.36.4.4,0,0,1,.36.444c-.162,1.551-2.233,3.152-2.321,3.219A.4.4,0,0,1,136.138,174.046Z" fill="#191919"/><path d="M117.793,180.1h-.036a.4.4,0,0,1-.367-.439c.4-4.515,5.209-7.851,5.413-7.99a.4.4,0,0,1,.457.668c-.047.032-4.7,3.262-5.064,7.392A.405.405,0,0,1,117.793,180.1Z" fill="#191919"/><path d="M122.15,182.659a.4.4,0,0,1-.258-.716,12.955,12.955,0,0,0,3.146-4.13.4.4,0,0,1,.741.327,13.542,13.542,0,0,1-3.371,4.426A.4.4,0,0,1,122.15,182.659Z" fill="#191919"/><path d="M127.172,187.341c.64,2.321,2.424,3.364,3.866,2.966s2.093-2.556,1.452-4.878-2.439-4.059-3.9-3.738C125.841,182.295,126.532,185.019,127.172,187.341Z" fill="#fff"/><path d="M130.687,191.218a2.789,2.789,0,0,1-1.678-.622,8.973,8.973,0,0,1-2.884-5.6,4.169,4.169,0,0,1,.919-3.032A2.214,2.214,0,0,1,129,181.3c2.067.347,3.791,3.629,3.863,3.768a.4.4,0,1,1-.717.373c-.443-.851-1.9-3.111-3.28-3.343a1.418,1.418,0,0,0-1.259.45,3.4,3.4,0,0,0-.671,2.392,8.141,8.141,0,0,0,2.563,5.01,1.848,1.848,0,0,0,1.523.423.4.4,0,0,1,.174.791A2.4,2.4,0,0,1,130.687,191.218Z" fill="#191919"/><path d="M137.752,199.716a.38.38,0,0,1-.114-.017,8.684,8.684,0,0,1-3.672-2.3.4.4,0,1,1,.609-.534,7.968,7.968,0,0,0,3.292,2.063.4.4,0,0,1-.115.792Z" fill="#191919"/><path d="M109.153,206.431s-9.832,2.023-11.311,16.757a18,18,0,0,1-.387,5.2c-1.317,6.377-3.993,16.837-3.451,20.87.278,2.07.343,3.757,2.958,5.12,2.806,1.462,7.851-.91,7.851-.91Z" fill="#64d3a5"/><path d="M99.227,255.352a5.4,5.4,0,0,1-2.5-.532c-2.691-1.4-2.926-3.215-3.175-5.133l-.048-.364c-.444-3.3,1.137-10.45,2.53-16.755.339-1.537.662-2.993.928-4.283a17.745,17.745,0,0,0,.38-5.039l-.007-.054.006-.053c1.5-14.928,11.606-17.176,11.708-17.2l.66-.136L105.285,253.8l-.259.121A15.854,15.854,0,0,1,99.227,255.352Zm-.882-32.164a18.763,18.763,0,0,1-.4,5.3c-.267,1.293-.59,2.754-.93,4.3C95.707,238.7,94.08,246.063,94.5,249.19l.048.368c.242,1.866.417,3.214,2.645,4.376,2.211,1.153,6.113-.365,7.149-.806l4.246-46.016C106.4,207.854,99.575,211.117,98.345,223.188Z" fill="#231815"/><path d="M167.335,244.066c0,1.635-3.415,4.622-5.462,4.622s-2.917-2.8-2.917-4.437-.518-7.609,1.53-7.609a10.045,10.045,0,0,1,2.809-.469c.9.117.946.681,1.282.8,1.1.4,1.434,2.433,1.752,3.319a19.742,19.742,0,0,1,.8,1.946A6.063,6.063,0,0,1,167.335,244.066Z" fill="#fff"/><path d="M161.873,249.093c-2.267,0-3.322-2.889-3.322-4.842,0-.222-.01-.524-.021-.882-.086-2.673-.089-5.615.959-6.7a1.366,1.366,0,0,1,1-.435c.058-.008.2-.052.392-.105a6.778,6.778,0,0,1,2.47-.362,1.759,1.759,0,0,1,1.241.691.874.874,0,0,0,.129.136c1.065.387,1.489,1.857,1.8,2.93.069.241.132.458.194.63s.156.373.258.59a8.622,8.622,0,0,1,.547,1.384,6.246,6.246,0,0,1,.224,1.838l-.4.1h.4C167.739,245.992,164.121,249.093,161.873,249.093Zm1.1-12.535a7.638,7.638,0,0,0-1.873.353,2.58,2.58,0,0,1-.611.136.554.554,0,0,0-.416.188c-.9.926-.785,4.426-.732,6.108.012.368.022.679.022.908,0,1.406.737,4.033,2.513,4.033,1.882,0,5.057-2.875,5.057-4.218v-.1a5.422,5.422,0,0,0-.195-1.616,7.914,7.914,0,0,0-.5-1.257c-.113-.243-.216-.464-.287-.66s-.135-.42-.209-.68c-.247-.855-.619-2.148-1.3-2.4a1.111,1.111,0,0,1-.466-.371.971.971,0,0,0-.729-.411A2.19,2.19,0,0,0,162.97,236.558Z" fill="#191919"/><path d="M163.466,247.38c0-3.116-1.622-6.9-3.689-8.514-1.042-5.67-2.368-12.152-2.368-12.152-.315-2.714-.023-4.742-.6-6.64-3.288-10.825-10.714-9.8-10.714-9.8l-.784,11.029,1.033,22.647,3.275,8.875c1.311,3.034,4.9,3.579,7.118,3.02a5.957,5.957,0,0,0,3.484-2.021A8.071,8.071,0,0,0,163.466,247.38Z" fill="#64d3a5"/><path d="M155.116,256.53a6.2,6.2,0,0,1-5.955-3.509l-3.316-9.051-1.033-22.648.813-11.492.4-.055c.077-.013,7.889-.952,11.261,10.154a14.22,14.22,0,0,1,.44,3.794c.026.916.053,1.864.177,2.933.007.023,1.3,6.37,2.33,11.937,2.1,1.754,3.731,5.562,3.731,8.787a8.543,8.543,0,0,1-3.392,6.8,6.527,6.527,0,0,1-3.713,2.143A7.228,7.228,0,0,1,155.116,256.53Zm-8.275-12.683,3.248,8.8c1.234,2.854,4.661,3.177,6.527,2.709a5.409,5.409,0,0,0,3.209-1.84l.106-.1a7.624,7.624,0,0,0,3.035-6.035c0-2.977-1.569-6.619-3.5-8.12l-.151-.117-.034-.187c-1.03-5.6-2.353-12.077-2.366-12.142-.136-1.155-.165-2.168-.191-3.062a13.484,13.484,0,0,0-.4-3.532c-2.678-8.82-8.174-9.474-9.742-9.474h-.026l-.752,10.589Z" fill="#231815"/><path d="M161.077,250.742a.37.37,0,0,1-.093-.011.4.4,0,0,1-.3-.486c1.106-4.719-1.26-11.174-1.285-11.239a.4.4,0,1,1,.759-.281c.1.273,2.475,6.751,1.314,11.706A.405.405,0,0,1,161.077,250.742Z" fill="#191919"/><path d="M146.992,263.536a47.742,47.742,0,0,1-.351-5.86c-.043-8.2-.806-18.06.21-28.571,1.144-11.834,4-18.115,2.054-18.552-2.223-.5-3.584-1.887-5.178-2.786-2.1-1.186-10.29-3.327-17.884-3.914a42.4,42.4,0,0,0-11.961,1.059,67.484,67.484,0,0,0-7.357,2.3s-7.539,3.993-6.211,56.322Z" fill="#64d3a5"/><path d="M147.574,264.036H99.827l-.013-.487c-1.32-52.04,6.158-56.608,6.477-56.777a67.489,67.489,0,0,1,7.478-2.348,42.678,42.678,0,0,1,12.113-1.069c7.689.593,15.98,2.786,18.091,3.976.5.285.99.619,1.46.942a10.052,10.052,0,0,0,3.582,1.792c1.572.353,1.137,2.506.272,6.795a114.54,114.54,0,0,0-1.938,12.293A170.876,170.876,0,0,0,147,250.6c.068,2.484.133,4.829.145,7.07a47.687,47.687,0,0,0,.345,5.786Zm-46.772-1h45.617c-.24-1.984-.273-4.557-.278-5.356-.012-2.231-.077-4.571-.145-7.048a171.617,171.617,0,0,1,.358-21.574,115.766,115.766,0,0,1,1.952-12.4c.594-2.942,1.107-5.483.49-5.621a10.882,10.882,0,0,1-3.93-1.944c-.472-.326-.919-.633-1.385-.9-2.033-1.146-10.12-3.266-17.676-3.85A41.77,41.77,0,0,0,114,205.4a67.748,67.748,0,0,0-7.292,2.283C106.7,207.692,99.572,212.733,100.8,263.036Z" fill="#231815"/><path d="M146.641,263.94a.405.405,0,0,1-.4-.365c-.736-7.573.264-36.175.275-36.463,1.012-11.137,2.654-16.049,2.724-16.253a.4.4,0,1,1,.765.262c-.016.049-1.682,5.041-2.682,16.043-.009.265-1.008,28.813-.276,36.333a.4.4,0,0,1-.364.441A.253.253,0,0,1,146.641,263.94Z" fill="#191919"/><path d="M100.314,263.94a.4.4,0,0,1-.4-.389c-1.529-42.538,3.059-53.44,5.929-56.152a2.575,2.575,0,0,1,1.536-.81,44.8,44.8,0,0,1,6.415-2.071,42.654,42.654,0,0,1,12.085-1.068c7.673.592,15.946,2.779,18.051,3.964,1.1.62,2.189,1.2,3.42,1.852l1.75.931a.4.4,0,1,1-.382.713l-1.747-.93c-1.238-.656-2.334-1.238-3.439-1.861-2.042-1.151-10.15-3.278-17.716-3.862a41.677,41.677,0,0,0-11.839,1.049,44.017,44.017,0,0,0-6.354,2.057.351.351,0,0,1-.2.031c.011,0-.455,0-1.146.71-2.19,2.238-7.114,12.119-5.558,55.417a.4.4,0,0,1-.39.419Z" fill="#191919"/><path d="M121.538,201.062l1.665-2.067a16.087,16.087,0,0,1,14.125,2.5l-.314,2.5S127.872,200.634,121.538,201.062Z" fill="#fff"/><path d="M137.014,204.4a.391.391,0,0,1-.139-.024c-.091-.033-9.142-3.315-15.309-2.909a.387.387,0,0,1-.386-.217.4.4,0,0,1,.044-.44l1.664-2.068a.417.417,0,0,1,.173-.125,16.357,16.357,0,0,1,14.5,2.549.405.405,0,0,1,.169.383l-.313,2.5a.4.4,0,0,1-.4.353Zm-14.3-3.779c5.425,0,12.118,2.185,13.962,2.825l.221-1.755a15.9,15.9,0,0,0-13.451-2.35l-1.032,1.282Z" fill="#191919"/><path d="M115.716,204.478l5.822-4.072s13.184-.122,16.793,3.479l3.8,3.214S125.1,201.936,115.716,204.478Z" fill="#64d3a5"/><path d="M144.3,208.279l-2.316-.7c-.169-.051-17-5.09-26.14-2.617l-2.762.748,8.294-5.8h.155c.541-.005,13.435-.08,17.15,3.627ZM122.03,203.27c6.738,0,14.343,1.759,18.029,2.731l-2.051-1.733c-3.247-3.238-14.838-3.361-16.311-3.363l-3.745,2.619A30.247,30.247,0,0,1,122.03,203.27Z" fill="#231815"/><path d="M114.143,262.632a.4.4,0,0,1-.4-.385,163.588,163.588,0,0,1,6.458-52.6.4.4,0,0,1,.768.254,162.753,162.753,0,0,0-6.418,52.305.4.4,0,0,1-.385.424Z" fill="#191919"/><path d="M213.481,181.189c.587,1.762,1.818,4.822.193,5.363s-3.08-.139-4.647-3.553c-.776-1.688-.414-3.926,1.212-4.467S212.894,179.427,213.481,181.189Z" fill="#fff"/><path d="M212.727,187.123c-1.547,0-2.833-1.267-4.068-3.955a4.466,4.466,0,0,1-.123-3.526,2.6,2.6,0,0,1,1.574-1.494,2.281,2.281,0,0,1,2.419.557,5.75,5.75,0,0,1,1.335,2.357l.173.506c.533,1.553,1.2,3.485.639,4.613a1.457,1.457,0,0,1-.874.756A3.4,3.4,0,0,1,212.727,187.123Zm-1.819-8.3a1.737,1.737,0,0,0-.542.094,1.828,1.828,0,0,0-1.088,1.048,3.689,3.689,0,0,0,.117,2.866c1.657,3.608,3.029,3.713,4.151,3.339a.654.654,0,0,0,.4-.347c.408-.826-.246-2.73-.679-3.991l-.174-.514a5.064,5.064,0,0,0-1.128-2.028A1.5,1.5,0,0,0,210.908,178.822Z" fill="#191919"/><path d="M231.332,181.164c-.586,1.762-1.818,4.821-.192,5.363s2.846-.073,4.413-3.487c.776-1.688.647-3.992-.978-4.534S231.919,179.4,231.332,181.164Z" fill="#fff"/><path d="M232.088,187.1a3.391,3.391,0,0,1-1.076-.192,1.45,1.45,0,0,1-.874-.755c-.559-1.129.1-3.061.638-4.614l.172-.505c1.086-3.261,2.815-3.223,3.754-2.914a2.349,2.349,0,0,1,1.429,1.346,4.84,4.84,0,0,1-.209,3.741C234.681,185.908,233.541,187.1,232.088,187.1Zm1.834-8.3c-1.122,0-1.812,1.306-2.206,2.492h0l-.174.513c-.434,1.26-1.088,3.166-.679,3.991a.653.653,0,0,0,.4.347c1.1.368,2.234.394,3.919-3.272a4.069,4.069,0,0,0,.2-3.081,1.539,1.539,0,0,0-.943-.9A1.636,1.636,0,0,0,233.922,178.8Zm-2.59,2.364h0Z" fill="#191919"/><path d="M233.269,175.47c-.16,9.684-2.237,20.064-10.946,20.064-9.268,0-10.946-11.719-10.946-20.064s5.2-14.223,11.241-14.223S233.406,167.128,233.269,175.47Z" fill="#fff"/><path d="M222.323,195.938c-7.319,0-11.35-7.269-11.35-20.467,0-8.2,5.115-14.628,11.645-14.628a9.672,9.672,0,0,1,7,3.028c2.654,2.7,4.132,6.929,4.055,11.607C233.45,189.054,229.631,195.938,222.323,195.938Zm.295-34.287c-6.076,0-10.837,6.071-10.837,13.82,0,7.342,1.37,19.658,10.542,19.658,6.781,0,10.326-6.616,10.541-19.665h0c.073-4.462-1.32-8.481-3.823-11.026A8.881,8.881,0,0,0,222.618,161.651Z" fill="#191919"/><path d="M216.8,198.087H228.89a64.574,64.574,0,0,0-1.228-8.46s.641-.919-4.822-.919-5.586,1.043-5.586,1.043S217.151,193.3,216.8,198.087Z" fill="#fff"/><path d="M216.709,195.038a.392.392,0,0,1-.116-.017.4.4,0,0,1-.272-.5l.774-2.579a.4.4,0,0,1,.775.233l-.773,2.578A.406.406,0,0,1,216.709,195.038Z" fill="#191919"/><path d="M228.777,194.584a.408.408,0,0,1-.378-.259l-.965-2.513a.4.4,0,1,1,.755-.291l.966,2.513a.406.406,0,0,1-.232.524A.441.441,0,0,1,228.777,194.584Z" fill="#191919"/><path d="M200.453,265.1h44.739l-.965-22.917,1.557-37.581s-12.468-4.786-13.5-5.216c-3.826-1.587-14.066-1.167-18.376.464-1.048.4-12.662,4.52-12.662,4.52l1.261,37.257Z" fill="#64d3a5"/><path d="M245.714,265.6H199.908l2.1-24.017-1.275-37.562.345-.122c.116-.042,11.62-4.127,12.653-4.517,4.288-1.62,14.706-2.132,18.743-.458,1.017.422,13.366,5.164,13.491,5.212l.335.129-1.571,37.938ZM201,264.6h43.672l-.944-22.4,1.542-37.264c-2.035-.781-12.234-4.7-13.18-5.092-3.783-1.57-13.961-1.061-18.007.469-.952.361-10.358,3.7-12.327,4.4L203,241.614Z" fill="#231815"/><path d="M200.435,265.732H200.4a.4.4,0,0,1-.37-.436l1.863-22.722-1.4-38.184a.405.405,0,0,1,.269-.4c.116-.042,11.623-4.128,12.656-4.518,4.2-1.587,13.894-2.669,17.914-1,1.018.423,14.867,5.7,15.008,5.757a.4.4,0,0,1,.259.4l-2.315,37.58,1.273,22.22a.406.406,0,0,1-.381.427.421.421,0,0,1-.428-.38l-1.272-22.268,2.3-37.331c-2.028-.774-13.792-5.261-14.752-5.659-3.594-1.493-12.8-.694-17.317,1.011-.963.365-10.575,3.78-12.392,4.425l1.386,37.936-1.863,22.769A.4.4,0,0,1,200.435,265.732Z" fill="#191919"/><path d="M231.263,197.46a53.886,53.886,0,0,0-8.08-.8,53.886,53.886,0,0,0-8.08.8l1.393-3.577s1.15-1.007,6.687-1.007,6.443,1.007,6.443,1.007Z" fill="#fff"/><path d="M231.264,197.864a.45.45,0,0,1-.073-.006,53.9,53.9,0,0,0-8.008-.8,53.9,53.9,0,0,0-8.008.8.4.4,0,0,1-.449-.545l1.393-3.577a.426.426,0,0,1,.11-.158c.13-.113,1.425-1.106,6.954-1.106,5.441,0,6.572.95,6.744,1.14a.415.415,0,0,1,.067.1l1.638,3.577a.4.4,0,0,1-.368.572Zm-14.438-3.715-1.088,2.794a40.385,40.385,0,0,1,14.84-.007l-1.283-2.8c-.2-.133-1.487-.852-6.112-.852C218.669,193.28,217.153,193.965,216.826,194.149Z" fill="#191919"/><path d="M234.486,200.469a93.326,93.326,0,0,0-10.843-.918A104.183,104.183,0,0,0,211,200.9l3.241-3.7s2.545-2.358,9.4-2.358,7.62,1.577,7.62,1.577Z" fill="#64d3a5"/><path d="M209.7,201.623l4.164-4.75c.146-.139,2.805-2.528,9.779-2.528,6.437,0,7.777,1.378,8.035,1.795l3.986,5.006-1.25-.182a93.184,93.184,0,0,0-10.771-.913,104.221,104.221,0,0,0-12.562,1.343Zm13.943-6.278c-6.533,0-9.04,2.205-9.065,2.226l-2.293,2.619a91.394,91.394,0,0,1,11.358-1.139,86.285,86.285,0,0,1,9.678.757l-2.508-3.168h0C230.808,196.64,229.807,195.345,223.643,195.345Z" fill="#231815"/><path d="M224.246,265.732h-.03a.4.4,0,0,1-.373-.433c1.517-20.557-.061-59.211-.077-59.6a.406.406,0,0,1,.387-.421.414.414,0,0,1,.421.388c.016.389,1.6,39.09.075,59.693A.4.4,0,0,1,224.246,265.732Z" fill="#191919"/><path d="M235.8,171.794c0-3.486-1.66-6.912-3.463-7.384-.221-2.047-3.193-4.878-7.2-3.9a8.346,8.346,0,0,0-5.269-1.522c-4.16,0-7.585,3.092-8.1,5.774-1.651,1.088-3,4.154-3,7.162a8.346,8.346,0,0,0,2.1,5.9c.268,4.99,1.388,10.432,5.18,12.481a22.915,22.915,0,0,0,6.452.793,17.823,17.823,0,0,0,6-.793c3.592-1.942,4.479-6.93,4.694-11.7.018.041.032.065.041.056A9.032,9.032,0,0,0,235.8,171.794Z" fill="#64d3a5"/><path d="M222.506,191.6a23.2,23.2,0,0,1-6.606-.818c-3.346-1.8-5.125-5.963-5.516-12.761a8.856,8.856,0,0,1-2.106-6.093c0-3.013,1.3-6.164,3.05-7.458.682-2.87,4.276-5.979,8.543-5.979a9.17,9.17,0,0,1,5.391,1.483,6.722,6.722,0,0,1,5.322,1.039,5.309,5.309,0,0,1,2.2,3.023c1.939.808,3.52,4.232,3.52,7.761a9.581,9.581,0,0,1-2.617,7.126c-.208,4.125-.983,9.684-4.942,11.823A17.823,17.823,0,0,1,222.506,191.6Zm-6.214-1.734a23.72,23.72,0,0,0,6.214.734,17.706,17.706,0,0,0,5.818-.758c3.551-1.924,4.2-7.345,4.379-11.252l.1-2.183.579,1.351a8.635,8.635,0,0,0,1.924-5.961c0-3.431-1.661-6.526-3.091-6.9l-.333-.087-.037-.343a4.153,4.153,0,0,0-1.833-2.635,5.754,5.754,0,0,0-4.751-.832l-.242.06-.193-.159a7.993,7.993,0,0,0-4.953-1.409c-3.768,0-7.123,2.834-7.6,5.369l-.039.208-.178.117c-1.554,1.022-2.772,3.984-2.772,6.743a7.823,7.823,0,0,0,1.975,5.571l.111.13.009.169c.347,6.431,2,10.491,4.918,12.068Z" fill="#231815"/><path d="M223.365,163.256l-.049,0a.406.406,0,0,1-.272-.155c-1.654-2.16-5.512-1.26-5.551-1.25a.4.4,0,0,1-.189-.787c.173-.041,4.07-.951,6.129,1.245a3.642,3.642,0,0,1,3.228-.627.4.4,0,0,1-.32.742c-1.15-.493-2.706.733-2.722.746A.405.405,0,0,1,223.365,163.256Z" fill="#191919"/><path d="M221.6,169.454a.4.4,0,0,1-.357-.214,4.9,4.9,0,0,1,.772-5.922.4.4,0,0,1,.543.6,4.034,4.034,0,0,0-.6,4.942.4.4,0,0,1-.358.6Z" fill="#191919"/><path d="M258.895,240.511c0,1.635-2.677,4.622-4.282,4.622s-2.287-2.8-2.287-4.437-.406-7.608,1.2-7.608a6.364,6.364,0,0,1,2.2-.47c.7.118.742.681,1.005.8.859.4,1.124,2.433,1.374,3.319.139.5.453,1.157.624,1.946A7.7,7.7,0,0,1,258.895,240.511Z" fill="#fff"/><path d="M254.613,245.537c-2.034,0-2.691-3.262-2.691-4.841,0-.222-.008-.526-.017-.885-.073-2.915-.067-5.841.862-6.793a1.043,1.043,0,0,1,.758-.334c.021-.009.124-.049.257-.1a4.438,4.438,0,0,1,2.014-.368,1.455,1.455,0,0,1,1.042.725.914.914,0,0,0,.091.126c.842.388,1.159,1.8,1.415,2.928.054.241.1.46.152.633s.124.377.2.6a10.046,10.046,0,0,1,.427,1.372,7.953,7.953,0,0,1,.174,1.818l-.4.094h.4C259.3,242.438,256.409,245.537,254.613,245.537ZM255.472,233a4.781,4.781,0,0,0-1.416.345,1.72,1.72,0,0,1-.531.144.238.238,0,0,0-.179.09c-.768.788-.673,4.587-.632,6.208.009.367.016.679.016.906,0,1.684.717,4.033,1.883,4.033,1.341,0,3.878-2.759,3.878-4.217v-.1a7.069,7.069,0,0,0-.155-1.643,9.439,9.439,0,0,0-.4-1.264c-.087-.242-.169-.462-.223-.657s-.105-.416-.162-.674c-.182-.8-.487-2.153-.993-2.387a1.016,1.016,0,0,1-.4-.4.663.663,0,0,0-.5-.375A1.053,1.053,0,0,0,255.472,233Z" fill="#191919"/><path d="M258.1,242.857c0-3.115-1.271-6.9-2.892-8.514-.817-5.669-1.857-12.152-1.857-12.152-.247-2.714-.091-4.725-.47-6.64-1.871-9.466-6.684-10.945-6.684-10.945l-.837,13.6-1.44,23.448.594,7.364c1.028,3.034,4.853,3.167,6.589,2.608,1.044-.336,2.988-.7,3.678-1.854A10.652,10.652,0,0,0,258.1,242.857Z" fill="#64d3a5"/><path d="M249.274,252.388c-2,0-4.41-.775-5.233-3.2l-.024-.121-.594-7.364,2.315-37.757.607.187c.209.063,5.12,1.677,7.028,11.325a22.5,22.5,0,0,1,.313,3.668c.031.941.063,1.915.165,3.024.005.031,1.025,6.394,1.83,11.964,1.646,1.752,2.92,5.543,2.92,8.747,0,2.971-2.032,5.933-3.43,7.241-.7,1.085-2.224,1.52-3.344,1.84-.208.059-.4.115-.569.168A6.66,6.66,0,0,1,249.274,252.388Zm-4.266-3.469c.929,2.6,4.376,2.739,5.943,2.236.179-.057.382-.116.6-.178.981-.281,2.326-.664,2.8-1.457l.09-.112c1.221-1.118,3.157-3.886,3.157-6.551,0-3-1.231-6.658-2.745-8.16l-.118-.117-.024-.166c-.808-5.6-1.845-12.079-1.856-12.143-.107-1.172-.141-2.205-.171-3.116a22.13,22.13,0,0,0-.294-3.508c-1.389-7.021-4.443-9.507-5.742-10.268l-2.231,36.31Z" fill="#231815"/><path d="M255.659,246.22a.368.368,0,0,1-.073-.007.4.4,0,0,1-.324-.471c.874-4.76-.436-11.253-.45-11.318a.406.406,0,0,1,.316-.478.4.4,0,0,1,.477.316c.056.271,1.354,6.714.452,11.627A.4.4,0,0,1,255.659,246.22Z" fill="#191919"/><path d="M201.683,204.083s-6.143,1.138-7.622,15.872a18,18,0,0,1-.387,5.2c-1.317,6.377-3.19,14.669-2.648,18.7.278,2.07.543,5.446,3.058,6.483,6.178,2.546,7.7-2.456,7.7-2.456l1-6.845Z" fill="#64d3a5"/><path d="M197.3,251.563a9.006,9.006,0,0,1-3.4-.763c-2.618-1.079-3.033-4.313-3.308-6.453l-.055-.425c-.5-3.743.972-10.811,2.274-17.046l.38-1.823a17.726,17.726,0,0,0,.379-5.04l-.006-.054.005-.054c1.5-14.936,7.763-16.264,8.03-16.313l.573-.107,1.126,37.537-1.009,6.933a5.116,5.116,0,0,1-4.985,3.608Zm-2.735-31.609a18.714,18.714,0,0,1-.4,5.3l-.38,1.825c-1.222,5.852-2.742,13.135-2.262,16.708l.056.431c.26,2.024.616,4.8,2.7,5.656a6.015,6.015,0,0,0,4.874.3,4.427,4.427,0,0,0,2.163-2.437l.986-6.77L201.205,204.8C199.707,205.542,195.718,208.569,194.563,219.954Z" fill="#231815"/><rect width="42.359" height="5.079" transform="translate(104.301 63.171)" fill="#64d3a5"/><path d="M147.16,68.75H103.8V62.67H147.16Zm-42.359-1H146.16V63.67H104.8Z" fill="#231815"/><rect width="21.18" height="5.079" transform="translate(104.301 73.05)" fill="#64d3a5"/><path d="M125.981,78.629H103.8V72.55h22.18Zm-21.18-1h20.18V73.55H104.8Z" fill="#231815"/><rect width="9.783" height="5.079" transform="translate(104.301 92.816)" fill="#64d3a5"/><path d="M114.583,98.395H103.8V92.316h10.782Zm-9.782-1h8.782V93.316H104.8Z" fill="#231815"/><rect width="4.891" height="5.079" transform="translate(104.301 101.521)" fill="#64d3a5"/><path d="M109.692,107.1H103.8v-6.079h5.891Zm-4.891-1h3.891v-4.079H104.8Z" fill="#231815"/><rect width="32.348" height="3.175" transform="translate(104.301 83.783)" fill="#64d3a5"/><path d="M137.149,87.458H103.8V83.283h33.348Zm-32.348-1h31.348V84.283H104.8Z" fill="#231815"/><path d="M172.367,80.411h-9.38a.457.457,0,0,1,0-.914h9.38a.457.457,0,1,1,0,.914Z" fill="#191919"/><path d="M187.584,80.411h-9.379a.457.457,0,0,1,0-.914h9.379a.457.457,0,1,1,0,.914Z" fill="#191919"/><path d="M169.818,149.158h-22.36a.506.506,0,0,1,0-1.012h22.36a.506.506,0,1,1,0,1.012Z" fill="#191919"/><path d="M164.97,153.871H147.458a.506.506,0,0,1,0-1.012H164.97a.506.506,0,0,1,0,1.012Z" fill="#191919"/><path d="M186.3,65.7a3.4,3.4,0,1,1-3.4-3.4A3.4,3.4,0,0,1,186.3,65.7Z" fill="#64d3a5"/><path d="M182.9,69.608a3.9,3.9,0,1,1,3.9-3.9A3.909,3.909,0,0,1,182.9,69.608Zm0-6.807a2.9,2.9,0,1,0,2.9,2.9A2.906,2.906,0,0,0,182.9,62.8Z" fill="#231815"/><path d="M188.527,76.367a5.725,5.725,0,1,0-11.264,0Z" fill="#64d3a5"/><path d="M188.952,76.867H176.836l-.067-.421a6.215,6.215,0,1,1,12.349-.988,6.046,6.046,0,0,1-.1.989Zm-11.255-1h10.4a3.741,3.741,0,0,0,.025-.409,5.223,5.223,0,1,0-10.447,0A3.494,3.494,0,0,0,177.7,75.867Z" fill="#231815"/><path d="M202.337,80.411h-9.38a.457.457,0,0,1,0-.914h9.38a.457.457,0,0,1,0,.914Z" fill="#191919"/><path d="M201.051,65.7a3.4,3.4,0,1,1-3.4-3.4A3.4,3.4,0,0,1,201.051,65.7Z" fill="#64d3a5"/><path d="M197.647,69.608a3.9,3.9,0,1,1,3.9-3.9A3.908,3.908,0,0,1,197.647,69.608Zm0-6.807a2.9,2.9,0,1,0,2.9,2.9A2.906,2.906,0,0,0,197.647,62.8Z" fill="#231815"/><path d="M203.279,76.367a5.725,5.725,0,1,0-11.264,0Z" fill="#64d3a5"/><path d="M203.705,76.867H191.589l-.068-.421a6.215,6.215,0,1,1,12.349-.988,6.159,6.159,0,0,1-.1.988Zm-11.256-1h10.4a3.741,3.741,0,0,0,.025-.409,5.223,5.223,0,1,0-10.447,0A3.521,3.521,0,0,0,192.449,75.867Z" fill="#231815"/><path d="M171.081,65.7a3.4,3.4,0,1,1-3.4-3.4A3.4,3.4,0,0,1,171.081,65.7Z" fill="#64d3a5"/><path d="M167.677,69.608a3.9,3.9,0,1,1,3.9-3.9A3.909,3.909,0,0,1,167.677,69.608Zm0-6.807a2.9,2.9,0,1,0,2.9,2.9A2.907,2.907,0,0,0,167.677,62.8Z" fill="#231815"/><path d="M173.309,76.367a5.724,5.724,0,1,0-11.264,0Z" fill="#64d3a5"/><path d="M173.734,76.867H161.619l-.067-.421a6.135,6.135,0,0,1-.1-.988,6.224,6.224,0,1,1,12.447,0,6.046,6.046,0,0,1-.1.989Zm-11.255-1h10.4a3.508,3.508,0,0,0,.026-.409,5.224,5.224,0,1,0-10.447,0A3.519,3.519,0,0,0,162.479,75.867Z" fill="#231815"/></g></svg>